<?xml version="1.0" encoding="UTF-8" standalone="no" ?>
<!DOCTYPE sesx>
<sesx version="1.9">

  <session appBuild="22.6.0.66" appVersion="22.6" audioChannelType="stereo" bitDepth="32" duration="2699451" sampleRate="44100">
    <tracks>
      <audioTrack automationLaneOpenState="false" id="10001" index="1" select="true" visible="true">
        <trackParameters trackHeight="1055" trackHue="160" trackMinimized="false">
          <name>Track 1</name>
        </trackParameters>
        <trackAudioParameters audioChannelType="stereo" automationMode="1" monitoring="false" recordArmed="false" solo="false" soloSafe="false">
          <trackOutput outputID="10000" type="trackID"/>
          <trackInput inputID="1"/>
          <component componentGuid="c5f3e06b-49a4-4511-8bf5-3219c96c27e7" componentID="Audition.Fader" id="trackFader" name="volume" powered="true">
            <parameter index="0" name="volume" parameterValue="1"/>
            <parameter index="1" name="static gain" parameterValue="1"/>
          </component>
          <component componentGuid="c042b1ed-0006-44bd-a9f7-fe897d41a81d" componentID="Audition.Mute" id="trackMute" name="Mute" powered="true">
            <parameter index="0" parameterValue="0"/>
            <parameter index="1" name="mute" parameterValue="0"/>
          </component>
          <component componentGuid="0569ec73-f4dc-4ca2-ae2d-19c99b221ce2" componentID="Audition.StereoPanner" id="trackPan" name="StereoPanner" powered="true">
            <parameter index="0" name="Pan" parameterValue="0"/>
          </component>
          <component componentGuid="0afce56f-43b1-4cc5-b4a6-938b3cc2a1c5" componentID="Audition.EQ" id="trackEQ" name="EQ" powered="false">
            <parameter index="0" name="Low Shelf Frequency" parameterValue="0.0009078529546968638896942138671875"/>
            <parameter index="1" name="Low Shelf Gain" parameterValue="0.5"/>
            <parameter index="2" name="High Shelf Frequency" parameterValue="0.816159784793853759765625"/>
            <parameter index="3" name="High Shelf Gain" parameterValue="0.5"/>
            <parameter index="4" name="EQ Band 1 Center Frequency" parameterValue="0.0013617794029414653778076171875"/>
            <parameter index="5" name="EQ Band 1 Q" parameterValue="0.000199989997781813144683837890625"/>
            <parameter index="6" name="EQ Band 1 Gain" parameterValue="0.5"/>
            <parameter index="7" name="EQ Band 1 Enable" parameterValue="1"/>
            <parameter index="8" name="EQ Band 2 Center Frequency" parameterValue="0.008170676417648792266845703125"/>
            <parameter index="9" name="EQ Band 2 Q" parameterValue="0.000199989997781813144683837890625"/>
            <parameter index="10" name="EQ Band 2 Gain" parameterValue="0.5"/>
            <parameter index="11" name="EQ Band 2 Enable" parameterValue="1"/>
            <parameter index="12" name="EQ Band 3 Center Frequency" parameterValue="0.0354062654078006744384765625"/>
            <parameter index="13" name="EQ Band 3 Q" parameterValue="0.000199989997781813144683837890625"/>
            <parameter index="14" name="EQ Band 3 Gain" parameterValue="0.5"/>
            <parameter index="15" name="EQ Band 3 Enable" parameterValue="1"/>
            <parameter index="16" name="EQ Band 4 Center Frequency" parameterValue="0.144348621368408203125"/>
            <parameter index="17" name="EQ Band 4 Q" parameterValue="0.000199989997781813144683837890625"/>
            <parameter index="18" name="EQ Band 4 Gain" parameterValue="0.5"/>
            <parameter index="19" name="EQ Band 4 Enable" parameterValue="1"/>
            <parameter index="20" name="EQ Band 5 Center Frequency" parameterValue="0.580118000507354736328125"/>
            <parameter index="21" name="EQ Band 5 Q" parameterValue="0.000199989997781813144683837890625"/>
            <parameter index="22" name="EQ Band 5 Gain" parameterValue="0.5"/>
            <parameter index="23" name="EQ Band 5 Enable" parameterValue="1"/>
            <parameter index="24" name="Gain" parameterValue="0.666666686534881591796875"/>
            <parameter index="25" name="ConstantQ" parameterValue="1"/>
            <parameter index="26" name="Low Shelf Filter Order" parameterValue="0"/>
            <parameter index="27" name="High Shelf Filter Order" parameterValue="0"/>
            <parameter index="28" name="Ultra-Quiet Mode" parameterValue="0"/>
            <parameter index="29" name="Low Shelf Enable" parameterValue="1"/>
            <parameter index="30" name="High Shelf Enable" parameterValue="1"/>
            <parameter index="31" name="Original Sample Rate" parameterValue="0.22968749701976776123046875"/>
            <parameter index="32" name="EQ Band 1 Bandwidth" parameterValue="0.002499990165233612060546875"/>
            <parameter index="33" name="EQ Band 2 Bandwidth" parameterValue="0.0099999904632568359375"/>
            <parameter index="34" name="EQ Band 3 Bandwidth" parameterValue="0.0399999916553497314453125"/>
            <parameter index="35" name="EQ Band 4 Bandwidth" parameterValue="0.15999998152256011962890625"/>
            <parameter index="36" name="EQ Band 5 Bandwidth" parameterValue="0.63999998569488525390625"/>
            <parameter index="37" name="High-Pass Filter Enable" parameterValue="0"/>
            <parameter index="38" name="High-Pass Cutoff Frequency" parameterValue="0"/>
            <parameter index="39" name="High-Pass Slope" parameterValue="0.4000000059604644775390625"/>
            <parameter index="40" name="Low-Pass Filter Enable" parameterValue="0"/>
            <parameter index="41" name="Low-Pass Cutoff Frequency" parameterValue="0.906945049762725830078125"/>
            <parameter index="42" name="Low-Pass Slope" parameterValue="0.4000000059604644775390625"/>
            <parameter index="43" name="Bypass" parameterValue="0"/>
            <parameter index="44" name="LowGraphRange" parameterValue="1"/>
          </component>
        </trackAudioParameters>
        <editParameter parameterIndex="0" slotIndex="4294967280"/>
        <audioClip clipAutoCrossfade="true" crossFadeHeadClipID="-1" crossFadeTailClipID="1" endPoint="35190" fileID="0" hue="-1" id="0" lockedInTime="false" looped="false" name="61-974.017-1006.06" offline="false" select="false" sourceInPoint="0" sourceOutPoint="35190" startPoint="0" zOrder="0">
          <component componentGuid="d8e6f6e4-8ed0-412a-8f28-286f44dd6aa0" componentID="Audition.Fader" id="clipGain" name="volume" powered="true">
            <parameter index="0" name="volume" parameterValue="1"/>
            <parameter index="1" name="static gain" parameterValue="1"/>
          </component>
          <component componentGuid="cf79275b-92b0-412d-bd61-d2020ae65402" componentID="Audition.Mute" id="clipMute" name="Mute" powered="true">
            <parameter index="0" parameterValue="0"/>
            <parameter index="1" name="mute" parameterValue="0"/>
          </component>
          <component componentGuid="d740ea35-e673-4733-9896-cdc6b9060372" componentID="Audition.StereoPanner" id="clipPan" name="StereoPanner" powered="true">
            <parameter index="0" name="Pan" parameterValue="0"/>
          </component>
          <fadeIn crossFadeLinkType="linkedAsymmetric" endPoint="0" shape="19" startPoint="0" type="log"/>
          <fadeOut crossFadeLinkType="linkedAsymmetric" endPoint="35190" shape="19" startPoint="27220" type="log"/>
          <editParameter parameterIndex="0" slotIndex="4294967280"/>
          <editParameter parameterIndex="0" slotIndex="4294967281"/>
          <channelMap>
            <channel index="0" sourceIndex="0"/>
            <channel index="1" sourceIndex="1"/>
          </channelMap>
        </audioClip>
        <audioClip clipAutoCrossfade="true" crossFadeHeadClipID="0" crossFadeTailClipID="2" endPoint="93993" fileID="1" hue="-1" id="1" lockedInTime="false" looped="false" name="29-1056.37-1085.66" offline="false" select="false" sourceInPoint="29424" sourceOutPoint="96197" startPoint="27220" zOrder="77">
          <component componentGuid="4dd7205e-d94c-4397-83f5-16511cd55026" componentID="Audition.Fader" id="clipGain" name="volume" powered="true">
            <parameter index="0" name="volume" parameterValue="1"/>
            <parameter index="1" name="static gain" parameterValue="1"/>
          </component>
          <component componentGuid="9d6fbfb9-3ea2-4b41-aaba-a9dee758058d" componentID="Audition.Mute" id="clipMute" name="Mute" powered="true">
            <parameter index="0" parameterValue="0"/>
            <parameter index="1" name="mute" parameterValue="0"/>
          </component>
          <component componentGuid="4060fc95-65d6-49a9-8ac9-9ddd8e93ac5e" componentID="Audition.StereoPanner" id="clipPan" name="StereoPanner" powered="true">
            <parameter index="0" name="Pan" parameterValue="0"/>
          </component>
          <fadeIn crossFadeLinkType="linkedAsymmetric" endPoint="7970" shape="18" startPoint="0" type="log"/>
          <fadeOut crossFadeLinkType="linkedAsymmetric" endPoint="66773" shape="19" startPoint="64632" type="log"/>
          <editParameter parameterIndex="0" slotIndex="4294967280"/>
          <editParameter parameterIndex="0" slotIndex="4294967281"/>
          <channelMap>
            <channel index="0" sourceIndex="0"/>
            <channel index="1" sourceIndex="1"/>
          </channelMap>
        </audioClip>
        <audioClip clipAutoCrossfade="true" crossFadeHeadClipID="1" crossFadeTailClipID="3" endPoint="121188" fileID="2" hue="-1" id="2" lockedInTime="false" looped="false" name="42-1432.53-1457.36" offline="false" select="false" sourceInPoint="93616" sourceOutPoint="122952" startPoint="91852" zOrder="78">
          <component componentGuid="1251dece-d881-4b54-adbf-d992de7e0361" componentID="Audition.Fader" id="clipGain" name="volume" powered="true">
            <parameter index="0" name="volume" parameterValue="1"/>
            <parameter index="1" name="static gain" parameterValue="1.862087726593017578125"/>
          </component>
          <component componentGuid="27e7c3b0-d9bc-4411-ac57-519657ab92cd" componentID="Audition.Mute" id="clipMute" name="Mute" powered="true">
            <parameter index="0" parameterValue="0"/>
            <parameter index="1" name="mute" parameterValue="0"/>
          </component>
          <component componentGuid="75e9926c-3c22-4040-92b6-074a2a51c290" componentID="Audition.StereoPanner" id="clipPan" name="StereoPanner" powered="true">
            <parameter index="0" name="Pan" parameterValue="0"/>
          </component>
          <fadeIn crossFadeLinkType="linkedAsymmetric" endPoint="2141" shape="18" startPoint="0" type="log"/>
          <fadeOut crossFadeLinkType="linkedAsymmetric" endPoint="29336" shape="18" startPoint="28330" type="log"/>
          <editParameter parameterIndex="0" slotIndex="4294967280"/>
          <editParameter parameterIndex="0" slotIndex="4294967281"/>
          <channelMap>
            <channel index="0" sourceIndex="0"/>
            <channel index="1" sourceIndex="1"/>
          </channelMap>
        </audioClip>
        <audioClip clipAutoCrossfade="true" crossFadeHeadClipID="2" crossFadeTailClipID="4" endPoint="145052" fileID="3" hue="-1" id="3" lockedInTime="false" looped="false" name="111-1307.18-1321.43" offline="false" select="false" sourceInPoint="120658" sourceOutPoint="145528" startPoint="120182" zOrder="2">
          <component componentGuid="207cb0ae-f156-4d2c-8344-c21dcbae3784" componentID="Audition.Fader" id="clipGain" name="volume" powered="true">
            <parameter index="0" name="volume" parameterValue="1"/>
            <parameter index="1" name="static gain" parameterValue="1.364582538604736328125"/>
          </component>
          <component componentGuid="d94bed18-55f5-4e7f-9e96-c7aa08369d18" componentID="Audition.Mute" id="clipMute" name="Mute" powered="true">
            <parameter index="0" parameterValue="0"/>
            <parameter index="1" name="mute" parameterValue="0"/>
          </component>
          <component componentGuid="7ba48021-43ba-4cc5-9c72-86dbc023b7a4" componentID="Audition.StereoPanner" id="clipPan" name="StereoPanner" powered="true">
            <parameter index="0" name="Pan" parameterValue="0"/>
          </component>
          <fadeIn crossFadeLinkType="linkedAsymmetric" endPoint="1006" shape="19" startPoint="0" type="log"/>
          <fadeOut crossFadeLinkType="linkedAsymmetric" endPoint="24870" shape="19" startPoint="20059" type="log"/>
          <editParameter parameterIndex="0" slotIndex="4294967281"/>
          <editParameter parameterIndex="0" slotIndex="4294967280"/>
          <channelMap>
            <channel index="0" sourceIndex="0"/>
            <channel index="1" sourceIndex="1"/>
          </channelMap>
        </audioClip>
        <audioClip clipAutoCrossfade="true" crossFadeHeadClipID="3" crossFadeTailClipID="5" endPoint="154350" fileID="4" hue="-1" id="4" lockedInTime="false" looped="false" name="75-956.034-973.303" offline="false" select="false" sourceInPoint="141564" sourceOutPoint="155673" startPoint="140241" zOrder="3">
          <component componentGuid="ada04953-7c8e-4871-a273-0c8b3d415abf" componentID="Audition.Fader" id="clipGain" name="volume" powered="true">
            <parameter index="0" name="volume" parameterValue="1"/>
            <parameter index="1" name="static gain" parameterValue="2.065379619598388671875"/>
          </component>
          <component componentGuid="081e29dc-0119-4920-8f09-33d6fa1b5c26" componentID="Audition.Mute" id="clipMute" name="Mute" powered="true">
            <parameter index="0" parameterValue="0"/>
            <parameter index="1" name="mute" parameterValue="0"/>
          </component>
          <component componentGuid="ea76967b-9913-4968-a2bd-4f21256a075a" componentID="Audition.StereoPanner" id="clipPan" name="StereoPanner" powered="true">
            <parameter index="0" name="Pan" parameterValue="0"/>
          </component>
          <fadeIn crossFadeLinkType="linkedAsymmetric" endPoint="4811" shape="18" startPoint="0" type="log"/>
          <fadeOut crossFadeLinkType="linkedAsymmetric" endPoint="14109" shape="19" startPoint="7532" type="log"/>
          <editParameter parameterIndex="0" slotIndex="4294967281"/>
          <editParameter parameterIndex="0" slotIndex="4294967280"/>
          <channelMap>
            <channel index="0" sourceIndex="0"/>
            <channel index="1" sourceIndex="1"/>
          </channelMap>
        </audioClip>
        <audioClip clipAutoCrossfade="true" crossFadeHeadClipID="4" crossFadeTailClipID="6" endPoint="176400" fileID="5" hue="-1" id="5" lockedInTime="false" looped="false" name="65-206.796-233.151" offline="false" select="false" sourceInPoint="147735" sourceOutPoint="176362" startPoint="147773" zOrder="4">
          <component componentGuid="7fb9aac8-236c-4ebe-80a6-d1c84e225def" componentID="Audition.Fader" id="clipGain" name="volume" powered="true">
            <parameter index="0" name="volume" parameterValue="1.21180593967437744140625"/>
            <parameter index="1" name="static gain" parameterValue="1.67880380153656005859375"/>
          </component>
          <component componentGuid="eb4eab6d-1c81-4d6b-9072-c03130f67e41" componentID="Audition.Mute" id="clipMute" name="Mute" powered="true">
            <parameter index="0" parameterValue="0"/>
            <parameter index="1" name="mute" parameterValue="0"/>
          </component>
          <component componentGuid="2bbb133d-a36d-478a-8d4a-b6ef1e88f185" componentID="Audition.StereoPanner" id="clipPan" name="StereoPanner" powered="true">
            <parameter index="0" name="Pan" parameterValue="0"/>
          </component>
          <fadeIn crossFadeLinkType="linkedAsymmetric" endPoint="6577" shape="18" startPoint="0" type="log"/>
          <fadeOut crossFadeLinkType="linkedAsymmetric" endPoint="28627" shape="19" startPoint="27333" type="log"/>
          <editParameter parameterIndex="0" slotIndex="4294967281"/>
          <editParameter parameterIndex="0" slotIndex="4294967280"/>
          <channelMap>
            <channel index="0" sourceIndex="0"/>
            <channel index="1" sourceIndex="1"/>
          </channelMap>
        </audioClip>
        <audioClip clipAutoCrossfade="true" crossFadeHeadClipID="5" crossFadeTailClipID="7" endPoint="189630" fileID="6" hue="-1" id="6" lockedInTime="false" looped="false" name="107-1630.04-1670.58" offline="false" select="false" sourceInPoint="177310" sourceOutPoint="191834" startPoint="175106" zOrder="5">
          <component componentGuid="2836be05-1e32-4d21-9ecf-6baa7fdf8c51" componentID="Audition.Fader" id="clipGain" name="volume" powered="true">
            <parameter index="0" name="volume" parameterValue="1"/>
            <parameter index="1" name="static gain" parameterValue="1.0351426601409912109375"/>
          </component>
          <component componentGuid="5c7c7de9-935b-4396-b04f-671017e73324" componentID="Audition.Mute" id="clipMute" name="Mute" powered="true">
            <parameter index="0" parameterValue="0"/>
            <parameter index="1" name="mute" parameterValue="0"/>
          </component>
          <component componentGuid="eed2cd9f-f383-4260-b26a-fae8f0934570" componentID="Audition.StereoPanner" id="clipPan" name="StereoPanner" powered="true">
            <parameter index="0" name="Pan" parameterValue="0"/>
          </component>
          <fadeIn crossFadeLinkType="linkedAsymmetric" endPoint="1294" shape="18" startPoint="0" type="log"/>
          <fadeOut crossFadeLinkType="linkedAsymmetric" endPoint="14524" shape="19" startPoint="14126" type="log"/>
          <editParameter parameterIndex="0" slotIndex="4294967280"/>
          <editParameter parameterIndex="0" slotIndex="4294967281"/>
          <channelMap>
            <channel index="0" sourceIndex="0"/>
            <channel index="1" sourceIndex="1"/>
          </channelMap>
        </audioClip>
        <audioClip clipAutoCrossfade="true" crossFadeHeadClipID="6" crossFadeTailClipID="8" endPoint="221120" fileID="7" hue="-1" id="7" lockedInTime="false" looped="false" name="87-304.091-320.073" offline="false" select="false" sourceInPoint="191436" sourceOutPoint="223324" startPoint="189232" zOrder="6">
          <component componentGuid="46a1c932-35c9-4ab7-b745-4eef7486c2c1" componentID="Audition.Fader" id="clipGain" name="volume" powered="true">
            <parameter index="0" name="volume" parameterValue="1"/>
            <parameter index="1" name="static gain" parameterValue="2.5409717559814453125"/>
          </component>
          <component componentGuid="ca9e96f2-cdc8-424d-baa4-214ca6d58b6f" componentID="Audition.Mute" id="clipMute" name="Mute" powered="true">
            <parameter index="0" parameterValue="0"/>
            <parameter index="1" name="mute" parameterValue="0"/>
          </component>
          <component componentGuid="79b01ec4-d60a-4b4d-818a-59e7a9cc3c38" componentID="Audition.StereoPanner" id="clipPan" name="StereoPanner" powered="true">
            <parameter index="0" name="Pan" parameterValue="0"/>
          </component>
          <fadeIn crossFadeLinkType="linkedAsymmetric" endPoint="398" shape="18" startPoint="0" type="log"/>
          <fadeOut crossFadeLinkType="linkedAsymmetric" endPoint="31888" shape="19" startPoint="18919" type="log"/>
          <editParameter parameterIndex="0" slotIndex="4294967281"/>
          <editParameter parameterIndex="0" slotIndex="4294967280"/>
          <channelMap>
            <channel index="0" sourceIndex="0"/>
            <channel index="1" sourceIndex="1"/>
          </channelMap>
        </audioClip>
        <audioClip clipAutoCrossfade="true" crossFadeHeadClipID="7" crossFadeTailClipID="9" endPoint="252423" fileID="8" hue="-1" id="8" lockedInTime="false" looped="false" name="41-2247.06-2290.1" offline="false" select="false" sourceInPoint="208151" sourceOutPoint="252423" startPoint="208151" zOrder="7">
          <component componentGuid="6ed49e36-875a-4ac3-a42b-3d20c576c434" componentID="Audition.Fader" id="clipGain" name="volume" powered="true">
            <parameter index="0" name="volume" parameterValue="1"/>
            <parameter index="1" name="static gain" parameterValue="1.41253626346588134765625"/>
          </component>
          <component componentGuid="9f61cf7b-d52f-4bc8-afd1-5f5e8e3288c4" componentID="Audition.Mute" id="clipMute" name="Mute" powered="true">
            <parameter index="0" parameterValue="0"/>
            <parameter index="1" name="mute" parameterValue="0"/>
          </component>
          <component componentGuid="8815ace1-ae03-4158-aada-874f8c9df237" componentID="Audition.StereoPanner" id="clipPan" name="StereoPanner" powered="true">
            <parameter index="0" name="Pan" parameterValue="0"/>
          </component>
          <fadeIn crossFadeLinkType="linkedAsymmetric" endPoint="12969" shape="18" startPoint="0" type="log"/>
          <fadeOut crossFadeLinkType="linkedAsymmetric" endPoint="44272" shape="19" startPoint="39347" type="log"/>
          <editParameter parameterIndex="0" slotIndex="4294967280"/>
          <editParameter parameterIndex="0" slotIndex="4294967281"/>
          <channelMap>
            <channel index="0" sourceIndex="0"/>
            <channel index="1" sourceIndex="1"/>
          </channelMap>
        </audioClip>
        <audioClip clipAutoCrossfade="true" crossFadeHeadClipID="8" crossFadeTailClipID="10" endPoint="257351" fileID="9" hue="-1" id="9" lockedInTime="false" looped="false" name="50-1098.76-1145.11" offline="false" select="false" sourceInPoint="246176" sourceOutPoint="256029" startPoint="247498" zOrder="8">
          <component componentGuid="0808eac3-35d6-4676-a13e-6de0640baf6f" componentID="Audition.Fader" id="clipGain" name="volume" powered="true">
            <parameter index="0" name="volume" parameterValue="1"/>
            <parameter index="1" name="static gain" parameterValue="2.2130968570709228515625"/>
          </component>
          <component componentGuid="40ac215d-257b-49de-8f32-e16b9df6a4a4" componentID="Audition.Mute" id="clipMute" name="Mute" powered="true">
            <parameter index="0" parameterValue="0"/>
            <parameter index="1" name="mute" parameterValue="0"/>
          </component>
          <component componentGuid="edac6dfc-4d2c-4147-a080-43864cd784d7" componentID="Audition.StereoPanner" id="clipPan" name="StereoPanner" powered="true">
            <parameter index="0" name="Pan" parameterValue="0"/>
          </component>
          <fadeIn crossFadeLinkType="linkedAsymmetric" endPoint="4925" shape="18" startPoint="0" type="log"/>
          <fadeOut crossFadeLinkType="linkedAsymmetric" endPoint="9853" shape="19" startPoint="6992" type="log"/>
          <editParameter parameterIndex="0" slotIndex="4294967280"/>
          <editParameter parameterIndex="0" slotIndex="4294967281"/>
          <channelMap>
            <channel index="0" sourceIndex="0"/>
            <channel index="1" sourceIndex="1"/>
          </channelMap>
        </audioClip>
        <audioClip clipAutoCrossfade="true" crossFadeHeadClipID="9" crossFadeTailClipID="11" endPoint="289449" fileID="10" hue="-1" id="10" lockedInTime="false" looped="false" name="53-1674.46-1719.23" offline="false" select="false" sourceInPoint="256253" sourceOutPoint="291212" startPoint="254490" zOrder="9">
          <component componentGuid="3501eff5-2d75-4f67-aaa1-7935cd4b0263" componentID="Audition.Fader" id="clipGain" name="volume" powered="true">
            <parameter index="0" name="volume" parameterValue="1"/>
            <parameter index="1" name="static gain" parameterValue="3.12607860565185546875"/>
          </component>
          <component componentGuid="6b8e75c6-6f54-4ace-b2be-e3d6dcc1cd78" componentID="Audition.Mute" id="clipMute" name="Mute" powered="true">
            <parameter index="0" parameterValue="0"/>
            <parameter index="1" name="mute" parameterValue="0"/>
          </component>
          <component componentGuid="5262d729-511c-4010-80ca-f34cd244e551" componentID="Audition.StereoPanner" id="clipPan" name="StereoPanner" powered="true">
            <parameter index="0" name="Pan" parameterValue="0"/>
          </component>
          <fadeIn crossFadeLinkType="linkedAsymmetric" endPoint="2861" shape="18" startPoint="0" type="log"/>
          <fadeOut crossFadeLinkType="linkedAsymmetric" endPoint="34959" shape="19" startPoint="32160" type="log"/>
          <editParameter parameterIndex="0" slotIndex="4294967281"/>
          <editParameter parameterIndex="0" slotIndex="4294967280"/>
          <channelMap>
            <channel index="0" sourceIndex="0"/>
            <channel index="1" sourceIndex="1"/>
          </channelMap>
        </audioClip>
        <audioClip clipAutoCrossfade="true" crossFadeHeadClipID="10" crossFadeTailClipID="12" endPoint="300526" fileID="11" hue="-1" id="11" lockedInTime="false" looped="false" name="105-605.378-622.765" offline="false" select="false" sourceInPoint="288414" sourceOutPoint="302290" startPoint="286650" zOrder="10">
          <component componentGuid="ddb90eda-19c1-4077-bd8f-9dd54f07ee72" componentID="Audition.Fader" id="clipGain" name="volume" powered="true">
            <parameter index="0" name="volume" parameterValue="1"/>
            <parameter index="1" name="static gain" parameterValue="1.73780167102813720703125"/>
          </component>
          <component componentGuid="d4553c2a-1615-4c50-9fea-bdb90bcd60a0" componentID="Audition.Mute" id="clipMute" name="Mute" powered="true">
            <parameter index="0" parameterValue="0"/>
            <parameter index="1" name="mute" parameterValue="0"/>
          </component>
          <component componentGuid="8981912d-e77d-4fc6-8cfd-6dceaa348831" componentID="Audition.StereoPanner" id="clipPan" name="StereoPanner" powered="true">
            <parameter index="0" name="Pan" parameterValue="0"/>
          </component>
          <fadeIn crossFadeLinkType="linkedAsymmetric" endPoint="2799" shape="18" startPoint="0" type="log"/>
          <fadeOut crossFadeLinkType="linkedAsymmetric" endPoint="13876" shape="19" startPoint="10781" type="log"/>
          <editParameter parameterIndex="0" slotIndex="4294967280"/>
          <editParameter parameterIndex="0" slotIndex="4294967281"/>
          <channelMap>
            <channel index="0" sourceIndex="0"/>
            <channel index="1" sourceIndex="1"/>
          </channelMap>
        </audioClip>
        <audioClip clipAutoCrossfade="true" crossFadeHeadClipID="11" crossFadeTailClipID="13" endPoint="335962" fileID="12" hue="-1" id="12" lockedInTime="false" looped="false" name="87-2153.94-2199.65" offline="false" select="false" sourceInPoint="299195" sourceOutPoint="337726" startPoint="297431" zOrder="11">
          <component componentGuid="f6f75cff-cfb7-45d7-879a-9df5f0f74775" componentID="Audition.Fader" id="clipGain" name="volume" powered="true">
            <parameter index="0" name="volume" parameterValue="1"/>
            <parameter index="1" name="static gain" parameterValue="1.862087726593017578125"/>
          </component>
          <component componentGuid="44f58276-d0df-4cc8-b81c-eda5daeee460" componentID="Audition.Mute" id="clipMute" name="Mute" powered="true">
            <parameter index="0" parameterValue="0"/>
            <parameter index="1" name="mute" parameterValue="0"/>
          </component>
          <component componentGuid="b787ef14-db9a-4f0e-955a-7240ccd5b043" componentID="Audition.StereoPanner" id="clipPan" name="StereoPanner" powered="true">
            <parameter index="0" name="Pan" parameterValue="0"/>
          </component>
          <fadeIn crossFadeLinkType="linkedAsymmetric" endPoint="3095" shape="18" startPoint="0" type="log"/>
          <fadeOut crossFadeLinkType="linkedAsymmetric" endPoint="38531" shape="19" startPoint="33714" type="log"/>
          <editParameter parameterIndex="0" slotIndex="4294967280"/>
          <editParameter parameterIndex="0" slotIndex="4294967281"/>
          <channelMap>
            <channel index="0" sourceIndex="0"/>
            <channel index="1" sourceIndex="1"/>
          </channelMap>
        </audioClip>
        <audioClip clipAutoCrossfade="true" crossFadeHeadClipID="12" crossFadeTailClipID="14" endPoint="347611" fileID="13" hue="-1" id="13" lockedInTime="false" looped="false" name="29-1972.78-2015.83" offline="false" select="false" sourceInPoint="331145" sourceOutPoint="347611" startPoint="331145" zOrder="12">
          <component componentGuid="da9d756a-35c3-4aed-ba45-e1ccf060c3c6" componentID="Audition.Fader" id="clipGain" name="volume" powered="true">
            <parameter index="0" name="volume" parameterValue="1"/>
            <parameter index="1" name="static gain" parameterValue="1.1481540203094482421875"/>
          </component>
          <component componentGuid="06c68850-5961-44c4-8e11-32e5048c1cfa" componentID="Audition.Mute" id="clipMute" name="Mute" powered="true">
            <parameter index="0" parameterValue="0"/>
            <parameter index="1" name="mute" parameterValue="0"/>
          </component>
          <component componentGuid="f08ce8cf-ebef-419a-ace8-658374ee36a1" componentID="Audition.StereoPanner" id="clipPan" name="StereoPanner" powered="true">
            <parameter index="0" name="Pan" parameterValue="0"/>
          </component>
          <fadeIn crossFadeLinkType="linkedAsymmetric" endPoint="4817" shape="18" startPoint="0" type="log"/>
          <fadeOut crossFadeLinkType="linkedAsymmetric" endPoint="16466" shape="19" startPoint="12835" type="log"/>
          <editParameter parameterIndex="0" slotIndex="4294967281"/>
          <editParameter parameterIndex="0" slotIndex="4294967280"/>
          <channelMap>
            <channel index="0" sourceIndex="0"/>
            <channel index="1" sourceIndex="1"/>
          </channelMap>
        </audioClip>
        <audioClip clipAutoCrossfade="true" crossFadeHeadClipID="13" crossFadeTailClipID="15" endPoint="357767" fileID="14" hue="-1" id="14" lockedInTime="false" looped="false" name="86-2010.17-2043.62" offline="false" select="false" sourceInPoint="346185" sourceOutPoint="359972" startPoint="343980" zOrder="13">
          <component componentGuid="f37fe341-dee8-4c16-bc74-af18e2adc646" componentID="Audition.Fader" id="clipGain" name="volume" powered="true">
            <parameter index="0" name="volume" parameterValue="1"/>
            <parameter index="1" name="static gain" parameterValue="1.621809482574462890625"/>
          </component>
          <component componentGuid="fd51182b-8e53-4025-9d16-69ca18893864" componentID="Audition.Mute" id="clipMute" name="Mute" powered="true">
            <parameter index="0" parameterValue="0"/>
            <parameter index="1" name="mute" parameterValue="0"/>
          </component>
          <component componentGuid="2812b3a1-4ab3-483d-8a04-c9e72431c3e9" componentID="Audition.StereoPanner" id="clipPan" name="StereoPanner" powered="true">
            <parameter index="0" name="Pan" parameterValue="0"/>
          </component>
          <fadeIn crossFadeLinkType="linkedAsymmetric" endPoint="3631" shape="18" startPoint="0" type="log"/>
          <fadeOut crossFadeLinkType="linkedAsymmetric" endPoint="13787" shape="19" startPoint="11319" type="log"/>
          <editParameter parameterIndex="0" slotIndex="4294967280"/>
          <editParameter parameterIndex="0" slotIndex="4294967281"/>
          <channelMap>
            <channel index="0" sourceIndex="0"/>
            <channel index="1" sourceIndex="1"/>
          </channelMap>
        </audioClip>
        <audioClip clipAutoCrossfade="true" crossFadeHeadClipID="14" crossFadeTailClipID="16" endPoint="390102" fileID="15" hue="-1" id="15" lockedInTime="false" looped="false" name="26-1438.41-1493.49" offline="false" select="false" sourceInPoint="357945" sourceOutPoint="392748" startPoint="355299" zOrder="14">
          <component componentGuid="2c00cc37-815f-493a-b2f0-7f9615e73b24" componentID="Audition.Fader" id="clipGain" name="volume" powered="true">
            <parameter index="0" name="volume" parameterValue="1"/>
            <parameter index="1" name="static gain" parameterValue="2.2130968570709228515625"/>
          </component>
          <component componentGuid="411e416b-ab67-42bf-bfd7-ada884b6de7a" componentID="Audition.Mute" id="clipMute" name="Mute" powered="true">
            <parameter index="0" parameterValue="0"/>
            <parameter index="1" name="mute" parameterValue="0"/>
          </component>
          <component componentGuid="5a550bef-4ec8-4128-b288-bad77154c9ae" componentID="Audition.StereoPanner" id="clipPan" name="StereoPanner" powered="true">
            <parameter index="0" name="Pan" parameterValue="0"/>
          </component>
          <fadeIn crossFadeLinkType="linkedAsymmetric" endPoint="2468" shape="18" startPoint="0" type="log"/>
          <fadeOut crossFadeLinkType="linkedAsymmetric" endPoint="34803" shape="19" startPoint="32781" type="log"/>
          <editParameter parameterIndex="0" slotIndex="4294967281"/>
          <editParameter parameterIndex="0" slotIndex="4294967280"/>
          <channelMap>
            <channel index="0" sourceIndex="0"/>
            <channel index="1" sourceIndex="1"/>
          </channelMap>
        </audioClip>
        <audioClip clipAutoCrossfade="true" crossFadeHeadClipID="15" crossFadeTailClipID="17" endPoint="422577" fileID="16" hue="-1" id="16" lockedInTime="false" looped="false" name="48-2278.79-2310.96" offline="false" select="false" sourceInPoint="389844" sourceOutPoint="424341" startPoint="388080" zOrder="15">
          <component componentGuid="45777775-198b-4dcd-9e6c-faacb7da41d1" componentID="Audition.Fader" id="clipGain" name="volume" powered="true">
            <parameter index="0" name="volume" parameterValue="1"/>
            <parameter index="1" name="static gain" parameterValue="2.2130968570709228515625"/>
          </component>
          <component componentGuid="fb9f63b3-9de7-4c66-b56c-d4234b4cee17" componentID="Audition.Mute" id="clipMute" name="Mute" powered="true">
            <parameter index="0" parameterValue="0"/>
            <parameter index="1" name="mute" parameterValue="0"/>
          </component>
          <component componentGuid="c76dacce-9458-43f9-829c-e0bf4a0545bc" componentID="Audition.StereoPanner" id="clipPan" name="StereoPanner" powered="true">
            <parameter index="0" name="Pan" parameterValue="0"/>
          </component>
          <fadeIn crossFadeLinkType="linkedAsymmetric" endPoint="2022" shape="18" startPoint="0" type="log"/>
          <fadeOut crossFadeLinkType="linkedAsymmetric" endPoint="34497" shape="19" startPoint="6035" type="log"/>
          <editParameter parameterIndex="0" slotIndex="4294967280"/>
          <editParameter parameterIndex="0" slotIndex="4294967281"/>
          <channelMap>
            <channel index="0" sourceIndex="0"/>
            <channel index="1" sourceIndex="1"/>
          </channelMap>
        </audioClip>
        <audioClip clipAutoCrossfade="true" crossFadeHeadClipID="16" crossFadeTailClipID="18" endPoint="432677" fileID="17" hue="-1" id="17" lockedInTime="false" looped="false" name="76-257.63-300.435" offline="false" select="false" sourceInPoint="393233" sourceOutPoint="431795" startPoint="394115" zOrder="16">
          <component componentGuid="871dae1c-f14d-4cbb-b465-e6b1bf36235e" componentID="Audition.Fader" id="clipGain" name="volume" powered="true">
            <parameter index="0" name="volume" parameterValue="1"/>
            <parameter index="1" name="static gain" parameterValue="2.1379611492156982421875"/>
          </component>
          <component componentGuid="250c12b6-9648-425c-abc0-b280926a2916" componentID="Audition.Mute" id="clipMute" name="Mute" powered="true">
            <parameter index="0" parameterValue="0"/>
            <parameter index="1" name="mute" parameterValue="0"/>
          </component>
          <component componentGuid="d6ebaec0-abf9-4907-ae9e-53ea0e240a8e" componentID="Audition.StereoPanner" id="clipPan" name="StereoPanner" powered="true">
            <parameter index="0" name="Pan" parameterValue="0"/>
          </component>
          <fadeIn crossFadeLinkType="linkedAsymmetric" endPoint="28462" shape="18" startPoint="0" type="log"/>
          <fadeOut crossFadeLinkType="linkedAsymmetric" endPoint="38562" shape="19" startPoint="36761" type="log"/>
          <editParameter parameterIndex="0" slotIndex="4294967281"/>
          <editParameter parameterIndex="0" slotIndex="4294967280"/>
          <channelMap>
            <channel index="0" sourceIndex="0"/>
            <channel index="1" sourceIndex="1"/>
          </channelMap>
        </audioClip>
        <audioClip clipAutoCrossfade="true" crossFadeHeadClipID="17" crossFadeTailClipID="19" endPoint="468555" fileID="18" hue="-1" id="18" lockedInTime="false" looped="false" name="26-1580.19-1636.91" offline="false" select="false" sourceInPoint="432449" sourceOutPoint="470128" startPoint="430876" zOrder="17">
          <component componentGuid="b407b534-77b8-4c03-aeea-f53c73fccf3b" componentID="Audition.Fader" id="clipGain" name="volume" powered="true">
            <parameter index="0" name="volume" parameterValue="1"/>
            <parameter index="1" name="static gain" parameterValue="1.273502349853515625"/>
          </component>
          <component componentGuid="08508577-8cc7-487d-b59b-c282dded0079" componentID="Audition.Mute" id="clipMute" name="Mute" powered="true">
            <parameter index="0" parameterValue="0"/>
            <parameter index="1" name="mute" parameterValue="0"/>
          </component>
          <component componentGuid="ff30619a-abfb-4a91-a53d-7b940030bab5" componentID="Audition.StereoPanner" id="clipPan" name="StereoPanner" powered="true">
            <parameter index="0" name="Pan" parameterValue="0"/>
          </component>
          <fadeIn crossFadeLinkType="linkedAsymmetric" endPoint="1801" shape="18" startPoint="0" type="log"/>
          <fadeOut crossFadeLinkType="linkedAsymmetric" endPoint="37679" shape="19" startPoint="34552" type="log"/>
          <editParameter parameterIndex="0" slotIndex="4294967281"/>
          <editParameter parameterIndex="0" slotIndex="4294967280"/>
          <channelMap>
            <channel index="0" sourceIndex="0"/>
            <channel index="1" sourceIndex="1"/>
          </channelMap>
        </audioClip>
        <audioClip clipAutoCrossfade="true" crossFadeHeadClipID="18" crossFadeTailClipID="20" endPoint="510351" fileID="19" hue="-1" id="19" lockedInTime="false" looped="false" name="86-2582.54-2618.28" offline="false" select="false" sourceInPoint="467633" sourceOutPoint="512556" startPoint="465428" zOrder="18">
          <component componentGuid="59a48417-98d6-426f-9349-e6e552d27e7d" componentID="Audition.Fader" id="clipGain" name="volume" powered="true">
            <parameter index="0" name="volume" parameterValue="1"/>
            <parameter index="1" name="static gain" parameterValue="1.273502349853515625"/>
          </component>
          <component componentGuid="7215e1db-ccff-4ff3-aae9-2356284c6746" componentID="Audition.Mute" id="clipMute" name="Mute" powered="true">
            <parameter index="0" parameterValue="0"/>
            <parameter index="1" name="mute" parameterValue="0"/>
          </component>
          <component componentGuid="2be215f5-1e3e-4bde-af49-a9192d2d747a" componentID="Audition.StereoPanner" id="clipPan" name="StereoPanner" powered="true">
            <parameter index="0" name="Pan" parameterValue="0"/>
          </component>
          <fadeIn crossFadeLinkType="linkedAsymmetric" endPoint="3127" shape="18" startPoint="0" type="log"/>
          <fadeOut crossFadeLinkType="linkedAsymmetric" endPoint="44923" shape="19" startPoint="39268" type="log"/>
          <editParameter parameterIndex="0" slotIndex="4294967281"/>
          <editParameter parameterIndex="0" slotIndex="4294967280"/>
          <channelMap>
            <channel index="0" sourceIndex="0"/>
            <channel index="1" sourceIndex="1"/>
          </channelMap>
        </audioClip>
        <audioClip clipAutoCrossfade="true" crossFadeHeadClipID="19" crossFadeTailClipID="21" endPoint="537443" fileID="20" hue="-1" id="20" lockedInTime="false" looped="false" name="84-2120.65-2139.43" offline="false" select="false" sourceInPoint="506901" sourceOutPoint="539648" startPoint="504696" zOrder="19">
          <component componentGuid="ec489f9e-00bf-497a-9458-0130e5a2392d" componentID="Audition.Fader" id="clipGain" name="volume" powered="true">
            <parameter index="0" name="volume" parameterValue="1"/>
            <parameter index="1" name="static gain" parameterValue="1.73780167102813720703125"/>
          </component>
          <component componentGuid="23cfeeeb-2f15-4100-a6b3-109db1b941e4" componentID="Audition.Mute" id="clipMute" name="Mute" powered="true">
            <parameter index="0" parameterValue="0"/>
            <parameter index="1" name="mute" parameterValue="0"/>
          </component>
          <component componentGuid="17d0c760-ca79-40f1-a1e2-14fa258f5147" componentID="Audition.StereoPanner" id="clipPan" name="StereoPanner" powered="true">
            <parameter index="0" name="Pan" parameterValue="0"/>
          </component>
          <fadeIn crossFadeLinkType="linkedAsymmetric" endPoint="5655" shape="18" startPoint="0" type="log"/>
          <fadeOut crossFadeLinkType="linkedAsymmetric" endPoint="32747" shape="19" startPoint="24504" type="log"/>
          <editParameter parameterIndex="0" slotIndex="4294967280"/>
          <editParameter parameterIndex="0" slotIndex="4294967281"/>
          <channelMap>
            <channel index="0" sourceIndex="0"/>
            <channel index="1" sourceIndex="1"/>
          </channelMap>
        </audioClip>
        <audioClip clipAutoCrossfade="true" crossFadeHeadClipID="20" crossFadeTailClipID="22" endPoint="560035" fileID="21" hue="-1" id="21" lockedInTime="false" looped="false" name="41-1862.66-1915.59" offline="false" select="false" sourceInPoint="531405" sourceOutPoint="562240" startPoint="529200" zOrder="20">
          <component componentGuid="d7c1289c-5528-4b64-829b-cb18741efe77" componentID="Audition.Fader" id="clipGain" name="volume" powered="true">
            <parameter index="0" name="volume" parameterValue="1"/>
            <parameter index="1" name="static gain" parameterValue="1.1885025501251220703125"/>
          </component>
          <component componentGuid="29a0fbed-9eb8-4aa6-b355-300de9be0616" componentID="Audition.Mute" id="clipMute" name="Mute" powered="true">
            <parameter index="0" parameterValue="0"/>
            <parameter index="1" name="mute" parameterValue="0"/>
          </component>
          <component componentGuid="6bd24bf5-4549-4604-a941-411c9279d9fd" componentID="Audition.StereoPanner" id="clipPan" name="StereoPanner" powered="true">
            <parameter index="0" name="Pan" parameterValue="0"/>
          </component>
          <fadeIn crossFadeLinkType="linkedAsymmetric" endPoint="8243" shape="18" startPoint="0" type="log"/>
          <fadeOut crossFadeLinkType="linkedAsymmetric" endPoint="30835" shape="19" startPoint="15435" type="log"/>
          <editParameter parameterIndex="0" slotIndex="4294967281"/>
          <editParameter parameterIndex="0" slotIndex="4294967280"/>
          <channelMap>
            <channel index="0" sourceIndex="0"/>
            <channel index="1" sourceIndex="1"/>
          </channelMap>
        </audioClip>
        <audioClip clipAutoCrossfade="true" crossFadeHeadClipID="21" crossFadeTailClipID="23" endPoint="593405" fileID="22" hue="-1" id="22" lockedInTime="false" looped="false" name="94-1444.22-1504.41" offline="false" select="false" sourceInPoint="546044" sourceOutPoint="594814" startPoint="544635" zOrder="21">
          <component componentGuid="e04d16ec-a046-4a80-a64d-56260aedbb8f" componentID="Audition.Fader" id="clipGain" name="volume" powered="true">
            <parameter index="0" name="volume" parameterValue="1"/>
            <parameter index="1" name="static gain" parameterValue="1.31825649738311767578125"/>
          </component>
          <component componentGuid="3bce3455-d53d-4ddd-8ee6-baf24cdac588" componentID="Audition.Mute" id="clipMute" name="Mute" powered="true">
            <parameter index="0" parameterValue="0"/>
            <parameter index="1" name="mute" parameterValue="0"/>
          </component>
          <component componentGuid="a631adf9-4f64-49b5-a81e-409c79e974d8" componentID="Audition.StereoPanner" id="clipPan" name="StereoPanner" powered="true">
            <parameter index="0" name="Pan" parameterValue="0"/>
          </component>
          <fadeIn crossFadeLinkType="linkedAsymmetric" endPoint="15400" shape="18" startPoint="0" type="log"/>
          <fadeOut crossFadeLinkType="linkedAsymmetric" endPoint="48770" shape="19" startPoint="36492" type="log"/>
          <editParameter parameterIndex="0" slotIndex="4294967280"/>
          <editParameter parameterIndex="0" slotIndex="4294967281"/>
          <channelMap>
            <channel index="0" sourceIndex="0"/>
            <channel index="1" sourceIndex="1"/>
          </channelMap>
        </audioClip>
        <audioClip clipAutoCrossfade="true" crossFadeHeadClipID="22" crossFadeTailClipID="24" endPoint="619121" fileID="23" hue="-1" id="23" lockedInTime="false" looped="false" name="131-188.574-234.16" offline="false" select="false" sourceInPoint="583332" sourceOutPoint="621326" startPoint="581127" zOrder="22">
          <component componentGuid="ee45b0cf-dc92-46bb-af85-fee47e7d98bc" componentID="Audition.Fader" id="clipGain" name="volume" powered="true">
            <parameter index="0" name="volume" parameterValue="1"/>
            <parameter index="1" name="static gain" parameterValue="1.1481540203094482421875"/>
          </component>
          <component componentGuid="7c4cd6fc-1877-4f0f-bc24-28d73b4ff062" componentID="Audition.Mute" id="clipMute" name="Mute" powered="true">
            <parameter index="0" parameterValue="0"/>
            <parameter index="1" name="mute" parameterValue="0"/>
          </component>
          <component componentGuid="55e7a499-d366-4f60-aaac-2a12a75e4400" componentID="Audition.StereoPanner" id="clipPan" name="StereoPanner" powered="true">
            <parameter index="0" name="Pan" parameterValue="0"/>
          </component>
          <fadeIn crossFadeLinkType="linkedAsymmetric" endPoint="12278" shape="18" startPoint="0" type="log"/>
          <fadeOut crossFadeLinkType="linkedAsymmetric" endPoint="37994" shape="19" startPoint="24053" type="log"/>
          <editParameter parameterIndex="0" slotIndex="4294967280"/>
          <editParameter parameterIndex="0" slotIndex="4294967281"/>
          <channelMap>
            <channel index="0" sourceIndex="0"/>
            <channel index="1" sourceIndex="1"/>
          </channelMap>
        </audioClip>
        <audioClip clipAutoCrossfade="true" crossFadeHeadClipID="23" crossFadeTailClipID="25" endPoint="633078" fileID="24" hue="-1" id="24" lockedInTime="false" looped="false" name="77-960.775-995.553" offline="false" select="false" sourceInPoint="607385" sourceOutPoint="635283" startPoint="605180" zOrder="23">
          <component componentGuid="5404de0c-8369-4d56-922f-d38d264e623d" componentID="Audition.Fader" id="clipGain" name="volume" powered="true">
            <parameter index="0" name="volume" parameterValue="1"/>
            <parameter index="1" name="static gain" parameterValue="1"/>
          </component>
          <component componentGuid="a6186224-0180-4db0-ad28-821270fadb7d" componentID="Audition.Mute" id="clipMute" name="Mute" powered="true">
            <parameter index="0" parameterValue="0"/>
            <parameter index="1" name="mute" parameterValue="0"/>
          </component>
          <component componentGuid="e08a5cfd-944a-4a5a-9222-73c6f8a031b9" componentID="Audition.StereoPanner" id="clipPan" name="StereoPanner" powered="true">
            <parameter index="0" name="Pan" parameterValue="0"/>
          </component>
          <fadeIn crossFadeLinkType="linkedAsymmetric" endPoint="13941" shape="18" startPoint="0" type="log"/>
          <fadeOut crossFadeLinkType="linkedAsymmetric" endPoint="27898" shape="19" startPoint="13941" type="log"/>
          <editParameter parameterIndex="0" slotIndex="4294967281"/>
          <editParameter parameterIndex="0" slotIndex="4294967280"/>
          <channelMap>
            <channel index="0" sourceIndex="0"/>
            <channel index="1" sourceIndex="1"/>
          </channelMap>
        </audioClip>
        <audioClip clipAutoCrossfade="true" crossFadeHeadClipID="24" crossFadeTailClipID="26" endPoint="677263" fileID="25" hue="-1" id="25" lockedInTime="false" looped="false" name="44-1688.57-1743.64" offline="false" select="false" sourceInPoint="621767" sourceOutPoint="679909" startPoint="619121" zOrder="24">
          <component componentGuid="3aaf8c28-5e72-4ae0-b9dd-5ddc42183d74" componentID="Audition.Fader" id="clipGain" name="volume" powered="true">
            <parameter index="0" name="volume" parameterValue="1"/>
            <parameter index="1" name="static gain" parameterValue="1"/>
          </component>
          <component componentGuid="0a8e0c16-f408-4ece-a7d9-1ce326bb9379" componentID="Audition.Mute" id="clipMute" name="Mute" powered="true">
            <parameter index="0" parameterValue="0"/>
            <parameter index="1" name="mute" parameterValue="0"/>
          </component>
          <component componentGuid="674cdf9a-4191-48fb-99ee-6859779511e4" componentID="Audition.StereoPanner" id="clipPan" name="StereoPanner" powered="true">
            <parameter index="0" name="Pan" parameterValue="0"/>
          </component>
          <fadeIn crossFadeLinkType="linkedAsymmetric" endPoint="13957" shape="18" startPoint="0" type="log"/>
          <fadeOut crossFadeLinkType="linkedAsymmetric" endPoint="58142" shape="19" startPoint="55617" type="log"/>
          <editParameter parameterIndex="0" slotIndex="4294967281"/>
          <editParameter parameterIndex="0" slotIndex="4294967280"/>
          <channelMap>
            <channel index="0" sourceIndex="0"/>
            <channel index="1" sourceIndex="1"/>
          </channelMap>
        </audioClip>
        <audioClip clipAutoCrossfade="true" crossFadeHeadClipID="25" crossFadeTailClipID="27" endPoint="719942" fileID="26" hue="-1" id="26" lockedInTime="false" looped="false" name="131-930.567-965.503" offline="false" select="false" sourceInPoint="677384" sourceOutPoint="722588" startPoint="674738" zOrder="25">
          <component componentGuid="a7e6ed80-7886-45a1-9f65-1c2f591aa65a" componentID="Audition.Fader" id="clipGain" name="volume" powered="true">
            <parameter index="0" name="volume" parameterValue="1"/>
            <parameter index="1" name="static gain" parameterValue="1"/>
          </component>
          <component componentGuid="efbb7add-a35e-4a49-b609-c4affce85708" componentID="Audition.Mute" id="clipMute" name="Mute" powered="true">
            <parameter index="0" parameterValue="0"/>
            <parameter index="1" name="mute" parameterValue="0"/>
          </component>
          <component componentGuid="6d2f82c2-634f-494e-a93f-84f255b8a447" componentID="Audition.StereoPanner" id="clipPan" name="StereoPanner" powered="true">
            <parameter index="0" name="Pan" parameterValue="0"/>
          </component>
          <fadeIn crossFadeLinkType="linkedAsymmetric" endPoint="2525" shape="18" startPoint="0" type="log"/>
          <fadeOut crossFadeLinkType="linkedAsymmetric" endPoint="45204" shape="19" startPoint="20037" type="log"/>
          <editParameter parameterIndex="0" slotIndex="4294967280"/>
          <editParameter parameterIndex="0" slotIndex="4294967281"/>
          <channelMap>
            <channel index="0" sourceIndex="0"/>
            <channel index="1" sourceIndex="1"/>
          </channelMap>
        </audioClip>
        <audioClip clipAutoCrossfade="true" crossFadeHeadClipID="26" crossFadeTailClipID="28" endPoint="744085" fileID="27" hue="-1" id="27" lockedInTime="false" looped="false" name="42-1043.36-1080.38" offline="false" select="false" sourceInPoint="697421" sourceOutPoint="746731" startPoint="694775" zOrder="26">
          <component componentGuid="be711495-c498-4066-b354-25831c709c75" componentID="Audition.Fader" id="clipGain" name="volume" powered="true">
            <parameter index="0" name="volume" parameterValue="1"/>
            <parameter index="1" name="static gain" parameterValue="1.462177276611328125"/>
          </component>
          <component componentGuid="21596264-c686-463e-ac50-e3f99497dc88" componentID="Audition.Mute" id="clipMute" name="Mute" powered="true">
            <parameter index="0" parameterValue="0"/>
            <parameter index="1" name="mute" parameterValue="0"/>
          </component>
          <component componentGuid="2d733dca-aa37-4e59-abe2-798078e039ba" componentID="Audition.StereoPanner" id="clipPan" name="StereoPanner" powered="true">
            <parameter index="0" name="Pan" parameterValue="0"/>
          </component>
          <fadeIn crossFadeLinkType="linkedAsymmetric" endPoint="25167" shape="18" startPoint="0" type="log"/>
          <fadeOut crossFadeLinkType="linkedAsymmetric" endPoint="49310" shape="19" startPoint="46178" type="log"/>
          <editParameter parameterIndex="0" slotIndex="4294967281"/>
          <editParameter parameterIndex="0" slotIndex="4294967280"/>
          <channelMap>
            <channel index="0" sourceIndex="0"/>
            <channel index="1" sourceIndex="1"/>
          </channelMap>
        </audioClip>
        <audioClip clipAutoCrossfade="true" crossFadeHeadClipID="27" crossFadeTailClipID="29" endPoint="814354" fileID="28" hue="-1" id="28" lockedInTime="false" looped="false" name="60-1838.3-1856.81" offline="false" select="false" sourceInPoint="743158" sourceOutPoint="816559" startPoint="740953" zOrder="27">
          <component componentGuid="affc11f9-8ab2-4292-a1bf-a201979392f2" componentID="Audition.Fader" id="clipGain" name="volume" powered="true">
            <parameter index="0" name="volume" parameterValue="1"/>
            <parameter index="1" name="static gain" parameterValue="1"/>
          </component>
          <component componentGuid="b9f55244-bee4-4ac0-83a9-0b0f489753e4" componentID="Audition.Mute" id="clipMute" name="Mute" powered="true">
            <parameter index="0" parameterValue="0"/>
            <parameter index="1" name="mute" parameterValue="0"/>
          </component>
          <component componentGuid="b12383cf-1143-4849-b22c-f36129762266" componentID="Audition.StereoPanner" id="clipPan" name="StereoPanner" powered="true">
            <parameter index="0" name="Pan" parameterValue="0"/>
          </component>
          <fadeIn crossFadeLinkType="linkedAsymmetric" endPoint="3132" shape="18" startPoint="0" type="log"/>
          <fadeOut crossFadeLinkType="linkedAsymmetric" endPoint="73401" shape="19" startPoint="69474" type="log"/>
          <editParameter parameterIndex="0" slotIndex="4294967281"/>
          <editParameter parameterIndex="0" slotIndex="4294967280"/>
          <channelMap>
            <channel index="0" sourceIndex="0"/>
            <channel index="1" sourceIndex="1"/>
          </channelMap>
        </audioClip>
        <audioClip clipAutoCrossfade="true" crossFadeHeadClipID="28" crossFadeTailClipID="30" endPoint="849135" fileID="29" hue="-1" id="29" lockedInTime="false" looped="false" name="105-710.699-756.622" offline="false" select="false" sourceInPoint="812632" sourceOutPoint="851340" startPoint="810427" zOrder="28">
          <component componentGuid="31e41ac5-4e1c-4e46-8dd3-d252f1efe652" componentID="Audition.Fader" id="clipGain" name="volume" powered="true">
            <parameter index="0" name="volume" parameterValue="1"/>
            <parameter index="1" name="static gain" parameterValue="1.73780167102813720703125"/>
          </component>
          <component componentGuid="c1abac2a-eb7b-4471-b3cf-7b7ab51a247b" componentID="Audition.Mute" id="clipMute" name="Mute" powered="true">
            <parameter index="0" parameterValue="0"/>
            <parameter index="1" name="mute" parameterValue="0"/>
          </component>
          <component componentGuid="81721577-8d60-47ac-8b0c-1c200e9d976e" componentID="Audition.StereoPanner" id="clipPan" name="StereoPanner" powered="true">
            <parameter index="0" name="Pan" parameterValue="0"/>
          </component>
          <fadeIn crossFadeLinkType="linkedAsymmetric" endPoint="3927" shape="18" startPoint="0" type="log"/>
          <fadeOut crossFadeLinkType="linkedAsymmetric" endPoint="38708" shape="19" startPoint="35582" type="log"/>
          <editParameter parameterIndex="0" slotIndex="4294967281"/>
          <editParameter parameterIndex="0" slotIndex="4294967280"/>
          <channelMap>
            <channel index="0" sourceIndex="0"/>
            <channel index="1" sourceIndex="1"/>
          </channelMap>
        </audioClip>
        <audioClip clipAutoCrossfade="true" crossFadeHeadClipID="29" crossFadeTailClipID="31" endPoint="892371" fileID="19" hue="-1" id="30" lockedInTime="false" looped="false" name="86-2582.54-2618.28" offline="false" select="false" sourceInPoint="848214" sourceOutPoint="894576" startPoint="846009" zOrder="29">
          <component componentGuid="4a8cb588-c989-49c8-92e0-e011f1ff6ff0" componentID="Audition.Fader" id="clipGain" name="volume" powered="true">
            <parameter index="0" name="volume" parameterValue="1"/>
            <parameter index="1" name="static gain" parameterValue="1.798871517181396484375"/>
          </component>
          <component componentGuid="d751eaa5-d6d9-472f-bf41-37ac81ee8c25" componentID="Audition.Mute" id="clipMute" name="Mute" powered="true">
            <parameter index="0" parameterValue="0"/>
            <parameter index="1" name="mute" parameterValue="0"/>
          </component>
          <component componentGuid="6064cf6a-edc7-4437-934c-02b4edb61045" componentID="Audition.StereoPanner" id="clipPan" name="StereoPanner" powered="true">
            <parameter index="0" name="Pan" parameterValue="0"/>
          </component>
          <fadeIn crossFadeLinkType="linkedAsymmetric" endPoint="3126" shape="18" startPoint="0" type="log"/>
          <fadeOut crossFadeLinkType="linkedAsymmetric" endPoint="46362" shape="19" startPoint="41892" type="log"/>
          <editParameter parameterIndex="0" slotIndex="4294967281"/>
          <editParameter parameterIndex="0" slotIndex="4294967280"/>
          <channelMap>
            <channel index="0" sourceIndex="0"/>
            <channel index="1" sourceIndex="1"/>
          </channelMap>
        </audioClip>
        <audioClip clipAutoCrossfade="true" crossFadeHeadClipID="30" crossFadeTailClipID="32" endPoint="930757" fileID="30" hue="-1" id="31" lockedInTime="false" looped="false" name="107-995.803-1029.11" offline="false" select="false" sourceInPoint="890106" sourceOutPoint="932962" startPoint="887901" zOrder="30">
          <component componentGuid="3a47c729-b9c4-4de2-be35-7bd82b103aea" componentID="Audition.Fader" id="clipGain" name="volume" powered="true">
            <parameter index="0" name="volume" parameterValue="1"/>
            <parameter index="1" name="static gain" parameterValue="1.0715181827545166015625"/>
          </component>
          <component componentGuid="de2b58e1-e24c-44da-b1ea-9d964276b3be" componentID="Audition.Mute" id="clipMute" name="Mute" powered="true">
            <parameter index="0" parameterValue="0"/>
            <parameter index="1" name="mute" parameterValue="0"/>
          </component>
          <component componentGuid="d0029cf7-11ad-4a5e-9e8e-2b67850fef87" componentID="Audition.StereoPanner" id="clipPan" name="StereoPanner" powered="true">
            <parameter index="0" name="Pan" parameterValue="0"/>
          </component>
          <fadeIn crossFadeLinkType="linkedAsymmetric" endPoint="4470" shape="18" startPoint="0" type="log"/>
          <fadeOut crossFadeLinkType="linkedAsymmetric" endPoint="42856" shape="19" startPoint="38199" type="log"/>
          <editParameter parameterIndex="0" slotIndex="4294967280"/>
          <editParameter parameterIndex="0" slotIndex="4294967281"/>
          <channelMap>
            <channel index="0" sourceIndex="0"/>
            <channel index="1" sourceIndex="1"/>
          </channelMap>
        </audioClip>
        <audioClip clipAutoCrossfade="true" crossFadeHeadClipID="31" crossFadeTailClipID="33" endPoint="996182" fileID="31" hue="-1" id="32" lockedInTime="false" looped="false" name="112-307.209-330.287" offline="false" select="false" sourceInPoint="928305" sourceOutPoint="998387" startPoint="926100" zOrder="31">
          <component componentGuid="403e3f91-4efe-40e7-a579-603cbf87d73a" componentID="Audition.Fader" id="clipGain" name="volume" powered="true">
            <parameter index="0" name="volume" parameterValue="1.7797222137451171875">
              <parameterKeyframes enableSplines="false" readOnly="false">
                <parameterKeyframe sampleOffset="983847" select="false" type="linear" value="0.64999997615814208984375"/>
                <parameterKeyframe sampleOffset="994269" select="true" type="linear" value="0.797859847545623779296875"/>
              </parameterKeyframes>
            </parameter>
            <parameter index="1" name="static gain" parameterValue="1"/>
          </component>
          <component componentGuid="15b55966-761f-44ec-b201-1a211671cf1e" componentID="Audition.Mute" id="clipMute" name="Mute" powered="true">
            <parameter index="0" parameterValue="0"/>
            <parameter index="1" name="mute" parameterValue="0"/>
          </component>
          <component componentGuid="00196076-0462-472c-82bf-c158fb948654" componentID="Audition.StereoPanner" id="clipPan" name="StereoPanner" powered="true">
            <parameter index="0" name="Pan" parameterValue="0"/>
          </component>
          <fadeIn crossFadeLinkType="linkedAsymmetric" endPoint="4657" shape="18" startPoint="0" type="log"/>
          <fadeOut crossFadeLinkType="linkedAsymmetric" endPoint="70082" shape="19" startPoint="66150" type="log"/>
          <editParameter parameterIndex="0" slotIndex="4294967281"/>
          <editParameter parameterIndex="0" slotIndex="4294967280"/>
          <channelMap>
            <channel index="0" sourceIndex="0"/>
            <channel index="1" sourceIndex="1"/>
          </channelMap>
        </audioClip>
        <audioClip clipAutoCrossfade="true" crossFadeHeadClipID="32" crossFadeTailClipID="34" endPoint="1002329" fileID="32" hue="-1" id="33" lockedInTime="false" looped="false" name="58-1262.68-1325.19" offline="false" select="false" sourceInPoint="994455" sourceOutPoint="1004534" startPoint="992250" zOrder="32">
          <component componentGuid="5b2377ca-3bce-4d93-b8cc-060798e8ea5e" componentID="Audition.Fader" id="clipGain" name="volume" powered="true">
            <parameter index="0" name="volume" parameterValue="1"/>
            <parameter index="1" name="static gain" parameterValue="1.5667498111724853515625"/>
          </component>
          <component componentGuid="a891aab2-3c67-4fc0-afd7-a9cd59af6390" componentID="Audition.Mute" id="clipMute" name="Mute" powered="true">
            <parameter index="0" parameterValue="0"/>
            <parameter index="1" name="mute" parameterValue="0"/>
          </component>
          <component componentGuid="9e119a3e-9aa1-4187-a957-e19ee69e4764" componentID="Audition.StereoPanner" id="clipPan" name="StereoPanner" powered="true">
            <parameter index="0" name="Pan" parameterValue="0"/>
          </component>
          <fadeIn crossFadeLinkType="linkedAsymmetric" endPoint="3932" shape="18" startPoint="0" type="log"/>
          <fadeOut crossFadeLinkType="linkedAsymmetric" endPoint="10079" shape="19" startPoint="4493" type="log"/>
          <editParameter parameterIndex="0" slotIndex="4294967281"/>
          <editParameter parameterIndex="0" slotIndex="4294967280"/>
          <channelMap>
            <channel index="0" sourceIndex="0"/>
            <channel index="1" sourceIndex="1"/>
          </channelMap>
        </audioClip>
        <audioClip clipAutoCrossfade="true" crossFadeHeadClipID="33" crossFadeTailClipID="35" endPoint="1058400" fileID="13" hue="-1" id="34" lockedInTime="false" looped="false" name="29-1972.78-2015.83" offline="false" select="false" sourceInPoint="998948" sourceOutPoint="1060605" startPoint="996743" zOrder="33">
          <component componentGuid="6ee5218d-f256-4130-8bb0-2f5ca75f8177" componentID="Audition.Fader" id="clipGain" name="volume" powered="true">
            <parameter index="0" name="volume" parameterValue="1"/>
            <parameter index="1" name="static gain" parameterValue="1.798871517181396484375"/>
          </component>
          <component componentGuid="130b021c-7d93-476e-900e-53b0cf5205d1" componentID="Audition.Mute" id="clipMute" name="Mute" powered="true">
            <parameter index="0" parameterValue="0"/>
            <parameter index="1" name="mute" parameterValue="0"/>
          </component>
          <component componentGuid="5f00be98-f299-4b95-8fc9-89aa7d03ea77" componentID="Audition.StereoPanner" id="clipPan" name="StereoPanner" powered="true">
            <parameter index="0" name="Pan" parameterValue="0"/>
          </component>
          <fadeIn crossFadeLinkType="linkedAsymmetric" endPoint="5586" shape="18" startPoint="0" type="log"/>
          <fadeOut crossFadeLinkType="linkedAsymmetric" endPoint="61657" shape="19" startPoint="54125" type="log"/>
          <editParameter parameterIndex="0" slotIndex="4294967281"/>
          <editParameter parameterIndex="0" slotIndex="4294967280"/>
          <channelMap>
            <channel index="0" sourceIndex="0"/>
            <channel index="1" sourceIndex="1"/>
          </channelMap>
        </audioClip>
        <audioClip clipAutoCrossfade="true" crossFadeHeadClipID="34" crossFadeTailClipID="36" endPoint="1100186" fileID="33" hue="-1" id="35" lockedInTime="false" looped="false" name="87-1864.5-1905.09" offline="false" select="false" sourceInPoint="1053073" sourceOutPoint="1102391" startPoint="1050868" zOrder="34">
          <component componentGuid="9d7a56a7-9b16-44ce-be01-a33dbfff6eee" componentID="Audition.Fader" id="clipGain" name="volume" powered="true">
            <parameter index="0" name="volume" parameterValue="1"/>
            <parameter index="1" name="static gain" parameterValue="1.462177276611328125"/>
          </component>
          <component componentGuid="e506d2e4-4735-459d-baa6-dd9eb9bffa44" componentID="Audition.Mute" id="clipMute" name="Mute" powered="true">
            <parameter index="0" parameterValue="0"/>
            <parameter index="1" name="mute" parameterValue="0"/>
          </component>
          <component componentGuid="dae4597e-9f59-4ac1-9d38-28603da35b74" componentID="Audition.StereoPanner" id="clipPan" name="StereoPanner" powered="true">
            <parameter index="0" name="Pan" parameterValue="0"/>
          </component>
          <fadeIn crossFadeLinkType="linkedAsymmetric" endPoint="7532" shape="18" startPoint="0" type="log"/>
          <fadeOut crossFadeLinkType="linkedAsymmetric" endPoint="49318" shape="19" startPoint="44450" type="log"/>
          <editParameter parameterIndex="0" slotIndex="4294967281"/>
          <editParameter parameterIndex="0" slotIndex="4294967280"/>
          <channelMap>
            <channel index="0" sourceIndex="0"/>
            <channel index="1" sourceIndex="1"/>
          </channelMap>
        </audioClip>
        <audioClip clipAutoCrossfade="true" crossFadeHeadClipID="35" crossFadeTailClipID="37" endPoint="1146600" fileID="34" hue="-1" id="36" lockedInTime="false" looped="false" name="121-1076.68-1116.13" offline="false" select="false" sourceInPoint="1097316" sourceOutPoint="1148598" startPoint="1095318" zOrder="35">
          <component componentGuid="5ec76d8f-3fef-4b76-8b82-086894a42c76" componentID="Audition.Fader" id="clipGain" name="volume" powered="true">
            <parameter index="0" name="volume" parameterValue="1"/>
            <parameter index="1" name="static gain" parameterValue="1.31825649738311767578125"/>
          </component>
          <component componentGuid="569dbdf6-dfd7-4833-adaa-18975bc2b3fb" componentID="Audition.Mute" id="clipMute" name="Mute" powered="true">
            <parameter index="0" parameterValue="0"/>
            <parameter index="1" name="mute" parameterValue="0"/>
          </component>
          <component componentGuid="1c6fd8a9-69ca-45ae-8a9f-fbf5e2472566" componentID="Audition.StereoPanner" id="clipPan" name="StereoPanner" powered="true">
            <parameter index="0" name="Pan" parameterValue="0"/>
          </component>
          <fadeIn crossFadeLinkType="linkedAsymmetric" endPoint="4868" shape="18" startPoint="0" type="log"/>
          <fadeOut crossFadeLinkType="linkedAsymmetric" endPoint="51282" shape="19" startPoint="47888" type="log"/>
          <editParameter parameterIndex="0" slotIndex="4294967281"/>
          <editParameter parameterIndex="0" slotIndex="4294967280"/>
          <channelMap>
            <channel index="0" sourceIndex="0"/>
            <channel index="1" sourceIndex="1"/>
          </channelMap>
        </audioClip>
        <audioClip clipAutoCrossfade="true" crossFadeHeadClipID="36" crossFadeTailClipID="38" endPoint="1177800" fileID="27" hue="-1" id="37" lockedInTime="false" looped="false" name="42-1043.36-1080.38" offline="false" select="false" sourceInPoint="1146293" sourceOutPoint="1180887" startPoint="1143206" zOrder="36">
          <component componentGuid="f6f0a10e-812c-4ea9-bcba-42a82285162e" componentID="Audition.Fader" id="clipGain" name="volume" powered="true">
            <parameter index="0" name="volume" parameterValue="1"/>
            <parameter index="1" name="static gain" parameterValue="1.621809482574462890625"/>
          </component>
          <component componentGuid="8eaa320f-c845-4ac5-9755-727edd20d1e7" componentID="Audition.Mute" id="clipMute" name="Mute" powered="true">
            <parameter index="0" parameterValue="0"/>
            <parameter index="1" name="mute" parameterValue="0"/>
          </component>
          <component componentGuid="a9863ee3-097c-4a6d-b6fc-b756142e060e" componentID="Audition.StereoPanner" id="clipPan" name="StereoPanner" powered="true">
            <parameter index="0" name="Pan" parameterValue="0"/>
          </component>
          <fadeIn crossFadeLinkType="linkedAsymmetric" endPoint="3394" shape="18" startPoint="0" type="log"/>
          <fadeOut crossFadeLinkType="linkedAsymmetric" endPoint="34594" shape="19" startPoint="34037" type="log"/>
          <editParameter parameterIndex="0" slotIndex="4294967281"/>
          <editParameter parameterIndex="0" slotIndex="4294967280"/>
          <channelMap>
            <channel index="0" sourceIndex="0"/>
            <channel index="1" sourceIndex="1"/>
          </channelMap>
        </audioClip>
        <audioClip clipAutoCrossfade="true" crossFadeHeadClipID="37" crossFadeTailClipID="39" endPoint="1204904" fileID="35" hue="-1" id="38" lockedInTime="false" looped="false" name="78-1269.09-1301.87" offline="false" select="false" sourceInPoint="1178125" sourceOutPoint="1205786" startPoint="1177243" zOrder="37">
          <component componentGuid="96789e68-1c15-4ce2-bba3-a0bd87263d58" componentID="Audition.Fader" id="clipGain" name="volume" powered="true">
            <parameter index="0" name="volume" parameterValue="1"/>
            <parameter index="1" name="static gain" parameterValue="1"/>
          </component>
          <component componentGuid="a67ad6a9-a876-44f7-8787-e9f0ff1a71dc" componentID="Audition.Mute" id="clipMute" name="Mute" powered="true">
            <parameter index="0" parameterValue="0"/>
            <parameter index="1" name="mute" parameterValue="0"/>
          </component>
          <component componentGuid="341b2efe-12a2-4522-a547-3d828bbad3cf" componentID="Audition.StereoPanner" id="clipPan" name="StereoPanner" powered="true">
            <parameter index="0" name="Pan" parameterValue="0"/>
          </component>
          <fadeIn crossFadeLinkType="linkedAsymmetric" endPoint="557" shape="18" startPoint="0" type="log"/>
          <fadeOut crossFadeLinkType="linkedAsymmetric" endPoint="27661" shape="19" startPoint="15172" type="log"/>
          <editParameter parameterIndex="0" slotIndex="4294967281"/>
          <editParameter parameterIndex="0" slotIndex="4294967280"/>
          <channelMap>
            <channel index="0" sourceIndex="0"/>
            <channel index="1" sourceIndex="1"/>
          </channelMap>
        </audioClip>
        <audioClip clipAutoCrossfade="true" crossFadeHeadClipID="38" crossFadeTailClipID="40" endPoint="1228216" fileID="36" hue="-1" id="39" lockedInTime="false" looped="false" name="76-966.654-1002.66" offline="false" select="false" sourceInPoint="1195061" sourceOutPoint="1230862" startPoint="1192415" zOrder="38">
          <component componentGuid="ea3b6e82-02ca-4e01-8aad-476a5d46b79a" componentID="Audition.Fader" id="clipGain" name="volume" powered="true">
            <parameter index="0" name="volume" parameterValue="1"/>
            <parameter index="1" name="static gain" parameterValue="1.51356184482574462890625"/>
          </component>
          <component componentGuid="975a1e7a-6d57-4ebe-8128-c3a7846f1255" componentID="Audition.Mute" id="clipMute" name="Mute" powered="true">
            <parameter index="0" parameterValue="0"/>
            <parameter index="1" name="mute" parameterValue="0"/>
          </component>
          <component componentGuid="470e71ee-52d3-4c43-bdc9-04db375c6507" componentID="Audition.StereoPanner" id="clipPan" name="StereoPanner" powered="true">
            <parameter index="0" name="Pan" parameterValue="0"/>
          </component>
          <fadeIn crossFadeLinkType="linkedAsymmetric" endPoint="12489" shape="18" startPoint="0" type="log"/>
          <fadeOut crossFadeLinkType="linkedAsymmetric" endPoint="35801" shape="19" startPoint="14981" type="log"/>
          <editParameter parameterIndex="0" slotIndex="4294967281"/>
          <editParameter parameterIndex="0" slotIndex="4294967280"/>
          <channelMap>
            <channel index="0" sourceIndex="0"/>
            <channel index="1" sourceIndex="1"/>
          </channelMap>
        </audioClip>
        <audioClip clipAutoCrossfade="true" crossFadeHeadClipID="39" crossFadeTailClipID="41" endPoint="1236076" fileID="37" hue="-1" id="40" lockedInTime="false" looped="false" name="118-254.433-299.802" offline="false" select="false" sourceInPoint="1210042" sourceOutPoint="1238722" startPoint="1207396" zOrder="79">
          <component componentGuid="92bca6f1-bcea-4ec4-af8c-017ed6f4607e" componentID="Audition.Fader" id="clipGain" name="volume" powered="true">
            <parameter index="0" name="volume" parameterValue="1"/>
            <parameter index="1" name="static gain" parameterValue="1.2302677631378173828125"/>
          </component>
          <component componentGuid="2228ce7a-674e-4108-a7dd-8d2e5cdfafba" componentID="Audition.Mute" id="clipMute" name="Mute" powered="true">
            <parameter index="0" parameterValue="0"/>
            <parameter index="1" name="mute" parameterValue="0"/>
          </component>
          <component componentGuid="2073f4a1-0e23-4c45-948e-475c565cb8f5" componentID="Audition.StereoPanner" id="clipPan" name="StereoPanner" powered="true">
            <parameter index="0" name="Pan" parameterValue="0"/>
          </component>
          <fadeIn crossFadeLinkType="linkedAsymmetric" endPoint="20820" shape="18" startPoint="0" type="log"/>
          <fadeOut crossFadeLinkType="linkedAsymmetric" endPoint="28680" shape="18" startPoint="25698" type="log"/>
          <editParameter parameterIndex="0" slotIndex="4294967281"/>
          <editParameter parameterIndex="0" slotIndex="4294967280"/>
          <channelMap>
            <channel index="0" sourceIndex="0"/>
            <channel index="1" sourceIndex="1"/>
          </channelMap>
        </audioClip>
        <audioClip clipAutoCrossfade="true" crossFadeHeadClipID="40" crossFadeTailClipID="42" endPoint="1289246" fileID="1" hue="-1" id="41" lockedInTime="false" looped="false" name="29-1056.37-1085.66" offline="false" select="true" sourceInPoint="1235740" sourceOutPoint="1291892" startPoint="1233094" zOrder="1">
          <component componentGuid="37d84f97-e7db-4044-8081-b192b6bdd47b" componentID="Audition.Fader" id="clipGain" name="volume" powered="true">
            <parameter index="0" name="volume" parameterValue="1"/>
            <parameter index="1" name="static gain" parameterValue="0.812830507755279541015625"/>
          </component>
          <component componentGuid="8b4fe77e-25ee-495d-ac9c-a2d4169e27e1" componentID="Audition.Mute" id="clipMute" name="Mute" powered="true">
            <parameter index="0" parameterValue="0"/>
            <parameter index="1" name="mute" parameterValue="0"/>
          </component>
          <component componentGuid="98f14755-8109-46a5-a0ee-48923fd19b4a" componentID="Audition.StereoPanner" id="clipPan" name="StereoPanner" powered="true">
            <parameter index="0" name="Pan" parameterValue="0"/>
          </component>
          <fadeIn crossFadeLinkType="linkedAsymmetric" endPoint="2982" shape="19" startPoint="0" type="log"/>
          <fadeOut crossFadeLinkType="linkedAsymmetric" endPoint="56152" shape="19" startPoint="52136" type="log"/>
          <editParameter parameterIndex="0" slotIndex="4294967281"/>
          <editParameter parameterIndex="0" slotIndex="4294967280"/>
          <channelMap>
            <channel index="0" sourceIndex="0"/>
            <channel index="1" sourceIndex="1"/>
          </channelMap>
        </audioClip>
        <audioClip clipAutoCrossfade="true" crossFadeHeadClipID="41" crossFadeTailClipID="43" endPoint="1323000" fileID="38" hue="-1" id="42" lockedInTime="false" looped="false" name="111-354.123-384.21" offline="false" select="false" sourceInPoint="1288758" sourceOutPoint="1326528" startPoint="1285230" zOrder="39">
          <component componentGuid="76406ad0-1423-497a-953d-2a226f665b57" componentID="Audition.Fader" id="clipGain" name="volume" powered="true">
            <parameter index="0" name="volume" parameterValue="1"/>
            <parameter index="1" name="static gain" parameterValue="1.364582538604736328125"/>
          </component>
          <component componentGuid="4aab462b-1cb8-4bd2-9cad-068c99e916f7" componentID="Audition.Mute" id="clipMute" name="Mute" powered="true">
            <parameter index="0" parameterValue="0"/>
            <parameter index="1" name="mute" parameterValue="0"/>
          </component>
          <component componentGuid="27d7ad63-302a-4a00-9904-131b25ddb4ea" componentID="Audition.StereoPanner" id="clipPan" name="StereoPanner" powered="true">
            <parameter index="0" name="Pan" parameterValue="0"/>
          </component>
          <fadeIn crossFadeLinkType="linkedAsymmetric" endPoint="4016" shape="18" startPoint="0" type="log"/>
          <fadeOut crossFadeLinkType="linkedAsymmetric" endPoint="37770" shape="19" startPoint="11102" type="log"/>
          <editParameter parameterIndex="0" slotIndex="4294967281"/>
          <editParameter parameterIndex="0" slotIndex="4294967280"/>
          <channelMap>
            <channel index="0" sourceIndex="0"/>
            <channel index="1" sourceIndex="1"/>
          </channelMap>
        </audioClip>
        <audioClip clipAutoCrossfade="true" crossFadeHeadClipID="42" crossFadeTailClipID="44" endPoint="1345175" fileID="39" hue="-1" id="43" lockedInTime="false" looped="false" name="9-453.507-517.77" offline="false" select="false" sourceInPoint="1298978" sourceOutPoint="1347821" startPoint="1296332" zOrder="40">
          <component componentGuid="3107608d-75a6-4a42-ae07-ecec6bc636d3" componentID="Audition.Fader" id="clipGain" name="volume" powered="true">
            <parameter index="0" name="volume" parameterValue="1">
              <parameterKeyframes enableSplines="false" readOnly="false">
                <parameterKeyframe sampleOffset="1300022" select="true" type="linear" value="0.71225678920745849609375"/>
                <parameterKeyframe sampleOffset="1322639" select="false" type="linear" value="0.64999997615814208984375"/>
              </parameterKeyframes>
            </parameter>
            <parameter index="1" name="static gain" parameterValue="4.570880889892578125"/>
          </component>
          <component componentGuid="82fbda41-778c-4824-8bbd-04e7561c9e11" componentID="Audition.Mute" id="clipMute" name="Mute" powered="true">
            <parameter index="0" parameterValue="0"/>
            <parameter index="1" name="mute" parameterValue="0"/>
          </component>
          <component componentGuid="116cfc48-4e67-4fb9-90de-05e387557495" componentID="Audition.StereoPanner" id="clipPan" name="StereoPanner" powered="true">
            <parameter index="0" name="Pan" parameterValue="0"/>
          </component>
          <fadeIn crossFadeLinkType="linkedAsymmetric" endPoint="26668" shape="18" startPoint="0" type="log"/>
          <fadeOut crossFadeLinkType="linkedAsymmetric" endPoint="48843" shape="19" startPoint="43259" type="log"/>
          <editParameter parameterIndex="0" slotIndex="4294967281"/>
          <editParameter parameterIndex="0" slotIndex="4294967280"/>
          <channelMap>
            <channel index="0" sourceIndex="0"/>
            <channel index="1" sourceIndex="1"/>
          </channelMap>
        </audioClip>
        <audioClip clipAutoCrossfade="true" crossFadeHeadClipID="43" crossFadeTailClipID="45" endPoint="1371965" fileID="40" hue="-1" id="44" lockedInTime="false" looped="false" name="107-2216.19-2255.85" offline="false" select="false" sourceInPoint="1342678" sourceOutPoint="1375052" startPoint="1339591" zOrder="41">
          <component componentGuid="8c01197a-f388-4fff-8abf-b3768faf0083" componentID="Audition.Fader" id="clipGain" name="volume" powered="true">
            <parameter index="0" name="volume" parameterValue="1"/>
            <parameter index="1" name="static gain" parameterValue="1.927523136138916015625"/>
          </component>
          <component componentGuid="6129b578-7ae9-43c1-8389-28c7398ca852" componentID="Audition.Mute" id="clipMute" name="Mute" powered="true">
            <parameter index="0" parameterValue="0"/>
            <parameter index="1" name="mute" parameterValue="0"/>
          </component>
          <component componentGuid="7491686d-c006-4979-808a-b8ca27709cb5" componentID="Audition.StereoPanner" id="clipPan" name="StereoPanner" powered="true">
            <parameter index="0" name="Pan" parameterValue="0"/>
          </component>
          <fadeIn crossFadeLinkType="linkedAsymmetric" endPoint="5584" shape="18" startPoint="0" type="log"/>
          <fadeOut crossFadeLinkType="linkedAsymmetric" endPoint="32374" shape="19" startPoint="12287" type="log"/>
          <editParameter parameterIndex="0" slotIndex="4294967281"/>
          <editParameter parameterIndex="0" slotIndex="4294967280"/>
          <channelMap>
            <channel index="0" sourceIndex="0"/>
            <channel index="1" sourceIndex="1"/>
          </channelMap>
        </audioClip>
        <audioClip clipAutoCrossfade="true" crossFadeHeadClipID="44" crossFadeTailClipID="46" endPoint="1394745" fileID="21" hue="-1" id="45" lockedInTime="false" looped="false" name="41-1862.66-1915.59" offline="false" select="false" sourceInPoint="1354524" sourceOutPoint="1397391" startPoint="1351878" zOrder="42">
          <component componentGuid="760ec79a-d659-4c2c-bf02-64f521c2d46d" componentID="Audition.Fader" id="clipGain" name="volume" powered="true">
            <parameter index="0" name="volume" parameterValue="1"/>
            <parameter index="1" name="static gain" parameterValue="2.5409717559814453125"/>
          </component>
          <component componentGuid="f93e59d7-2cae-4782-a949-caad61a0f9ea" componentID="Audition.Mute" id="clipMute" name="Mute" powered="true">
            <parameter index="0" parameterValue="0"/>
            <parameter index="1" name="mute" parameterValue="0"/>
          </component>
          <component componentGuid="a8c4a25e-c9ae-4b23-99d8-34fc0392f8e1" componentID="Audition.StereoPanner" id="clipPan" name="StereoPanner" powered="true">
            <parameter index="0" name="Pan" parameterValue="0"/>
          </component>
          <fadeIn crossFadeLinkType="linkedAsymmetric" endPoint="20087" shape="18" startPoint="0" type="log"/>
          <fadeOut crossFadeLinkType="linkedAsymmetric" endPoint="42867" shape="19" startPoint="23976" type="log"/>
          <editParameter parameterIndex="0" slotIndex="4294967281"/>
          <editParameter parameterIndex="0" slotIndex="4294967280"/>
          <channelMap>
            <channel index="0" sourceIndex="0"/>
            <channel index="1" sourceIndex="1"/>
          </channelMap>
        </audioClip>
        <audioClip clipAutoCrossfade="true" crossFadeHeadClipID="45" crossFadeTailClipID="47" endPoint="1411200" fileID="0" hue="-1" id="46" lockedInTime="false" looped="false" name="61-974.017-1006.06" offline="false" select="false" sourceInPoint="1376736" sourceOutPoint="1412082" startPoint="1375854" zOrder="43">
          <component componentGuid="040234fd-6912-4663-8a63-e63d0236bb35" componentID="Audition.Fader" id="clipGain" name="volume" powered="true">
            <parameter index="0" name="volume" parameterValue="1"/>
            <parameter index="1" name="static gain" parameterValue="1.73780167102813720703125"/>
          </component>
          <component componentGuid="264ee0fa-b2a4-4edd-bddb-e05f57a0b920" componentID="Audition.Mute" id="clipMute" name="Mute" powered="true">
            <parameter index="0" parameterValue="0"/>
            <parameter index="1" name="mute" parameterValue="0"/>
          </component>
          <component componentGuid="ffd19eaf-cc4d-4496-b0ff-a23e6dd296f8" componentID="Audition.StereoPanner" id="clipPan" name="StereoPanner" powered="true">
            <parameter index="0" name="Pan" parameterValue="0"/>
          </component>
          <fadeIn crossFadeLinkType="linkedAsymmetric" endPoint="18891" shape="18" startPoint="0" type="log"/>
          <fadeOut crossFadeLinkType="linkedAsymmetric" endPoint="35346" shape="19" startPoint="21371" type="log"/>
          <editParameter parameterIndex="0" slotIndex="4294967281"/>
          <editParameter parameterIndex="0" slotIndex="4294967280"/>
          <channelMap>
            <channel index="0" sourceIndex="0"/>
            <channel index="1" sourceIndex="1"/>
          </channelMap>
        </audioClip>
        <audioClip clipAutoCrossfade="true" crossFadeHeadClipID="46" crossFadeTailClipID="48" endPoint="1443869" fileID="41" hue="-1" id="47" lockedInTime="false" looped="false" name="85-251.544-301.485" offline="false" select="false" sourceInPoint="1399430" sourceOutPoint="1446074" startPoint="1397225" zOrder="44">
          <component componentGuid="4f7d70f7-21cd-4b06-9f92-9ea8e4f43ba4" componentID="Audition.Fader" id="clipGain" name="volume" powered="true">
            <parameter index="0" name="volume" parameterValue="1"/>
            <parameter index="1" name="static gain" parameterValue="2.454708099365234375"/>
          </component>
          <component componentGuid="38725fe7-68e4-479c-acf5-11388a6b76d7" componentID="Audition.Mute" id="clipMute" name="Mute" powered="true">
            <parameter index="0" parameterValue="0"/>
            <parameter index="1" name="mute" parameterValue="0"/>
          </component>
          <component componentGuid="54adaba1-e6a5-430d-90a1-c2a179d6fa53" componentID="Audition.StereoPanner" id="clipPan" name="StereoPanner" powered="true">
            <parameter index="0" name="Pan" parameterValue="0"/>
          </component>
          <fadeIn crossFadeLinkType="linkedAsymmetric" endPoint="13975" shape="18" startPoint="0" type="log"/>
          <fadeOut crossFadeLinkType="linkedAsymmetric" endPoint="46644" shape="19" startPoint="40249" type="log"/>
          <editParameter parameterIndex="0" slotIndex="4294967281"/>
          <editParameter parameterIndex="0" slotIndex="4294967280"/>
          <channelMap>
            <channel index="0" sourceIndex="0"/>
            <channel index="1" sourceIndex="1"/>
          </channelMap>
        </audioClip>
        <audioClip clipAutoCrossfade="true" crossFadeHeadClipID="47" crossFadeTailClipID="49" endPoint="1453545" fileID="42" hue="-1" id="48" lockedInTime="false" looped="false" name="82-804.292-851.224" offline="false" select="false" sourceInPoint="1440561" sourceOutPoint="1456632" startPoint="1437474" zOrder="45">
          <component componentGuid="bca62fe4-fa05-4a76-8d21-cbcdbd2f0fef" componentID="Audition.Fader" id="clipGain" name="volume" powered="true">
            <parameter index="0" name="volume" parameterValue="1"/>
            <parameter index="1" name="static gain" parameterValue="1.5667498111724853515625"/>
          </component>
          <component componentGuid="afe9d02a-ef21-4445-9af2-7a36027a802d" componentID="Audition.Mute" id="clipMute" name="Mute" powered="true">
            <parameter index="0" parameterValue="0"/>
            <parameter index="1" name="mute" parameterValue="0"/>
          </component>
          <component componentGuid="86bc8a96-736e-4920-909f-7c18b8e4a9e4" componentID="Audition.StereoPanner" id="clipPan" name="StereoPanner" powered="true">
            <parameter index="0" name="Pan" parameterValue="0"/>
          </component>
          <fadeIn crossFadeLinkType="linkedAsymmetric" endPoint="6395" shape="18" startPoint="0" type="log"/>
          <fadeOut crossFadeLinkType="linkedAsymmetric" endPoint="16071" shape="19" startPoint="14247" type="log"/>
          <editParameter parameterIndex="0" slotIndex="4294967281"/>
          <editParameter parameterIndex="0" slotIndex="4294967280"/>
          <channelMap>
            <channel index="0" sourceIndex="0"/>
            <channel index="1" sourceIndex="1"/>
          </channelMap>
        </audioClip>
        <audioClip clipAutoCrossfade="true" crossFadeHeadClipID="48" crossFadeTailClipID="50" endPoint="1471032" fileID="43" hue="-1" id="49" lockedInTime="false" looped="false" name="87-181.576-220.363" offline="false" select="false" sourceInPoint="1454367" sourceOutPoint="1473678" startPoint="1451721" zOrder="46">
          <component componentGuid="5ea5ba34-68b0-4486-87f0-e4a192eaf1af" componentID="Audition.Fader" id="clipGain" name="volume" powered="true">
            <parameter index="0" name="volume" parameterValue="1"/>
            <parameter index="1" name="static gain" parameterValue="1.995262622833251953125"/>
          </component>
          <component componentGuid="43aab0ac-1406-4740-b9d0-ffb5a2e5f3e8" componentID="Audition.Mute" id="clipMute" name="Mute" powered="true">
            <parameter index="0" parameterValue="0"/>
            <parameter index="1" name="mute" parameterValue="0"/>
          </component>
          <component componentGuid="bdc24b77-4778-481e-80fa-7e62ef327442" componentID="Audition.StereoPanner" id="clipPan" name="StereoPanner" powered="true">
            <parameter index="0" name="Pan" parameterValue="0"/>
          </component>
          <fadeIn crossFadeLinkType="linkedAsymmetric" endPoint="1824" shape="18" startPoint="0" type="log"/>
          <fadeOut crossFadeLinkType="linkedAsymmetric" endPoint="19311" shape="19" startPoint="8102" type="log"/>
          <editParameter parameterIndex="0" slotIndex="4294967281"/>
          <editParameter parameterIndex="0" slotIndex="4294967280"/>
          <channelMap>
            <channel index="0" sourceIndex="0"/>
            <channel index="1" sourceIndex="1"/>
          </channelMap>
        </audioClip>
        <audioClip clipAutoCrossfade="true" crossFadeHeadClipID="49" crossFadeTailClipID="51" endPoint="1483026" fileID="44" hue="-1" id="50" lockedInTime="false" looped="false" name="73-1124.93-1162.67" offline="false" select="false" sourceInPoint="1462910" sourceOutPoint="1486113" startPoint="1459823" zOrder="47">
          <component componentGuid="ea5781b4-1af1-4149-90ff-96c0a4858525" componentID="Audition.Fader" id="clipGain" name="volume" powered="true">
            <parameter index="0" name="volume" parameterValue="1"/>
            <parameter index="1" name="static gain" parameterValue="1.364582538604736328125"/>
          </component>
          <component componentGuid="e0aabc84-4f33-47af-a6e9-aa76d9c40829" componentID="Audition.Mute" id="clipMute" name="Mute" powered="true">
            <parameter index="0" parameterValue="0"/>
            <parameter index="1" name="mute" parameterValue="0"/>
          </component>
          <component componentGuid="6a785643-2c3b-4776-9ba7-f959007b5a5c" componentID="Audition.StereoPanner" id="clipPan" name="StereoPanner" powered="true">
            <parameter index="0" name="Pan" parameterValue="0"/>
          </component>
          <fadeIn crossFadeLinkType="linkedAsymmetric" endPoint="11209" shape="18" startPoint="0" type="log"/>
          <fadeOut crossFadeLinkType="linkedAsymmetric" endPoint="23203" shape="19" startPoint="17527" type="log"/>
          <editParameter parameterIndex="0" slotIndex="4294967281"/>
          <editParameter parameterIndex="0" slotIndex="4294967280"/>
          <channelMap>
            <channel index="0" sourceIndex="0"/>
            <channel index="1" sourceIndex="1"/>
          </channelMap>
        </audioClip>
        <audioClip clipAutoCrossfade="true" crossFadeHeadClipID="50" crossFadeTailClipID="52" endPoint="1513947" fileID="33" hue="-1" id="51" lockedInTime="false" looped="false" name="87-1864.5-1905.09" offline="false" select="false" sourceInPoint="1480437" sourceOutPoint="1517034" startPoint="1477350" zOrder="48">
          <component componentGuid="1cfee053-34d8-4a3f-b7d7-8ca4dcfbe158" componentID="Audition.Fader" id="clipGain" name="volume" powered="true">
            <parameter index="0" name="volume" parameterValue="1"/>
            <parameter index="1" name="static gain" parameterValue="1.462177276611328125"/>
          </component>
          <component componentGuid="1e9595cb-3073-4f78-abc7-6ab29ce935e0" componentID="Audition.Mute" id="clipMute" name="Mute" powered="true">
            <parameter index="0" parameterValue="0"/>
            <parameter index="1" name="mute" parameterValue="0"/>
          </component>
          <component componentGuid="df3f5bc6-fbf8-4817-88de-e885dd941401" componentID="Audition.StereoPanner" id="clipPan" name="StereoPanner" powered="true">
            <parameter index="0" name="Pan" parameterValue="0"/>
          </component>
          <fadeIn crossFadeLinkType="linkedAsymmetric" endPoint="5676" shape="18" startPoint="0" type="log"/>
          <fadeOut crossFadeLinkType="linkedAsymmetric" endPoint="36597" shape="19" startPoint="35903" type="log"/>
          <editParameter parameterIndex="0" slotIndex="4294967281"/>
          <editParameter parameterIndex="0" slotIndex="4294967280"/>
          <channelMap>
            <channel index="0" sourceIndex="0"/>
            <channel index="1" sourceIndex="1"/>
          </channelMap>
        </audioClip>
        <audioClip clipAutoCrossfade="true" crossFadeHeadClipID="51" crossFadeTailClipID="53" endPoint="1543500" fileID="29" hue="-1" id="52" lockedInTime="false" looped="false" name="105-710.699-756.622" offline="false" select="false" sourceInPoint="1515899" sourceOutPoint="1546146" startPoint="1513253" zOrder="49">
          <component componentGuid="aa99c4f8-379f-4633-a5ce-bcf38b3e60da" componentID="Audition.Fader" id="clipGain" name="volume" powered="true">
            <parameter index="0" name="volume" parameterValue="1"/>
            <parameter index="1" name="static gain" parameterValue="2.065379619598388671875"/>
          </component>
          <component componentGuid="27371fba-a81c-4390-b080-59b69831412c" componentID="Audition.Mute" id="clipMute" name="Mute" powered="true">
            <parameter index="0" parameterValue="0"/>
            <parameter index="1" name="mute" parameterValue="0"/>
          </component>
          <component componentGuid="4c674c20-6da8-4e9a-a463-14679ec47b68" componentID="Audition.StereoPanner" id="clipPan" name="StereoPanner" powered="true">
            <parameter index="0" name="Pan" parameterValue="0"/>
          </component>
          <fadeIn crossFadeLinkType="linkedAsymmetric" endPoint="694" shape="18" startPoint="0" type="log"/>
          <fadeOut crossFadeLinkType="linkedAsymmetric" endPoint="30247" shape="19" startPoint="18197" type="log"/>
          <editParameter parameterIndex="0" slotIndex="4294967281"/>
          <editParameter parameterIndex="0" slotIndex="4294967280"/>
          <channelMap>
            <channel index="0" sourceIndex="0"/>
            <channel index="1" sourceIndex="1"/>
          </channelMap>
        </audioClip>
        <audioClip clipAutoCrossfade="true" crossFadeHeadClipID="52" crossFadeTailClipID="54" endPoint="1563316" fileID="45" hue="-1" id="53" lockedInTime="false" looped="false" name="51-1178.3-1228.98" offline="false" select="false" sourceInPoint="1534537" sourceOutPoint="1566403" startPoint="1531450" zOrder="50">
          <component componentGuid="e96cefc8-afe3-4207-8962-341f4ccef5d0" componentID="Audition.Fader" id="clipGain" name="volume" powered="true">
            <parameter index="0" name="volume" parameterValue="1"/>
            <parameter index="1" name="static gain" parameterValue="3.01994800567626953125"/>
          </component>
          <component componentGuid="50ce1248-2298-42ce-bc6e-cc7fa10af1a9" componentID="Audition.Mute" id="clipMute" name="Mute" powered="true">
            <parameter index="0" parameterValue="0"/>
            <parameter index="1" name="mute" parameterValue="0"/>
          </component>
          <component componentGuid="daaca905-85f8-47ad-8cd9-c722f7d129bf" componentID="Audition.StereoPanner" id="clipPan" name="StereoPanner" powered="true">
            <parameter index="0" name="Pan" parameterValue="0"/>
          </component>
          <fadeIn crossFadeLinkType="linkedAsymmetric" endPoint="12050" shape="18" startPoint="0" type="log"/>
          <fadeOut crossFadeLinkType="linkedAsymmetric" endPoint="31866" shape="19" startPoint="19989" type="log"/>
          <editParameter parameterIndex="0" slotIndex="4294967281"/>
          <editParameter parameterIndex="0" slotIndex="4294967280"/>
          <channelMap>
            <channel index="0" sourceIndex="0"/>
            <channel index="1" sourceIndex="1"/>
          </channelMap>
        </audioClip>
        <audioClip clipAutoCrossfade="true" crossFadeHeadClipID="53" crossFadeTailClipID="55" endPoint="1596217" fileID="46" hue="-1" id="54" lockedInTime="false" looped="false" name="108-796.463-832.735" offline="false" select="false" sourceInPoint="1553644" sourceOutPoint="1598422" startPoint="1551439" zOrder="51">
          <component componentGuid="d4b547ef-db1a-4c9e-886a-36e52dd392e3" componentID="Audition.Fader" id="clipGain" name="volume" powered="true">
            <parameter index="0" name="volume" parameterValue="1"/>
            <parameter index="1" name="static gain" parameterValue="1.927523136138916015625"/>
          </component>
          <component componentGuid="eb80e4f5-ccb7-4617-b006-afff25f5f52d" componentID="Audition.Mute" id="clipMute" name="Mute" powered="true">
            <parameter index="0" parameterValue="0"/>
            <parameter index="1" name="mute" parameterValue="0"/>
          </component>
          <component componentGuid="2723cd73-76f0-478c-9e2a-d76256cf6b7c" componentID="Audition.StereoPanner" id="clipPan" name="StereoPanner" powered="true">
            <parameter index="0" name="Pan" parameterValue="0"/>
          </component>
          <fadeIn crossFadeLinkType="linkedAsymmetric" endPoint="11877" shape="18" startPoint="0" type="log"/>
          <fadeOut crossFadeLinkType="linkedAsymmetric" endPoint="44778" shape="19" startPoint="40030" type="log"/>
          <editParameter parameterIndex="0" slotIndex="4294967281"/>
          <editParameter parameterIndex="0" slotIndex="4294967280"/>
          <channelMap>
            <channel index="0" sourceIndex="0"/>
            <channel index="1" sourceIndex="1"/>
          </channelMap>
        </audioClip>
        <audioClip clipAutoCrossfade="true" crossFadeHeadClipID="54" crossFadeTailClipID="56" endPoint="1628483" fileID="47" hue="-1" id="55" lockedInTime="false" looped="false" name="30-1947.79-1999.91" offline="false" select="false" sourceInPoint="1594115" sourceOutPoint="1631129" startPoint="1591469" zOrder="52">
          <component componentGuid="39beddc6-6bd4-43a0-9a2b-46e4ac5049d2" componentID="Audition.Fader" id="clipGain" name="volume" powered="true">
            <parameter index="0" name="volume" parameterValue="1"/>
            <parameter index="1" name="static gain" parameterValue="2.6302707195281982421875"/>
          </component>
          <component componentGuid="1ae755bf-4dd0-4186-89bb-03b0236ad763" componentID="Audition.Mute" id="clipMute" name="Mute" powered="true">
            <parameter index="0" parameterValue="0"/>
            <parameter index="1" name="mute" parameterValue="0"/>
          </component>
          <component componentGuid="f269e955-fc99-42aa-a91c-904d1df956b4" componentID="Audition.StereoPanner" id="clipPan" name="StereoPanner" powered="true">
            <parameter index="0" name="Pan" parameterValue="0"/>
          </component>
          <fadeIn crossFadeLinkType="linkedAsymmetric" endPoint="4748" shape="18" startPoint="0" type="log"/>
          <fadeOut crossFadeLinkType="linkedAsymmetric" endPoint="37014" shape="19" startPoint="32678" type="log"/>
          <editParameter parameterIndex="0" slotIndex="4294967281"/>
          <editParameter parameterIndex="0" slotIndex="4294967280"/>
          <channelMap>
            <channel index="0" sourceIndex="0"/>
            <channel index="1" sourceIndex="1"/>
          </channelMap>
        </audioClip>
        <audioClip clipAutoCrossfade="true" crossFadeHeadClipID="55" crossFadeTailClipID="57" endPoint="1648326" fileID="48" hue="-1" id="56" lockedInTime="false" looped="false" name="51-2199.17-2246.55" offline="false" select="false" sourceInPoint="1627234" sourceOutPoint="1651413" startPoint="1624147" zOrder="53">
          <component componentGuid="dabdf9c7-d907-4a83-a79e-c1ad6b2b4046" componentID="Audition.Fader" id="clipGain" name="volume" powered="true">
            <parameter index="0" name="volume" parameterValue="1"/>
            <parameter index="1" name="static gain" parameterValue="4.415699481964111328125"/>
          </component>
          <component componentGuid="34132470-8fe1-4d38-a6e7-6b0f4c5af412" componentID="Audition.Mute" id="clipMute" name="Mute" powered="true">
            <parameter index="0" parameterValue="0"/>
            <parameter index="1" name="mute" parameterValue="0"/>
          </component>
          <component componentGuid="56597a33-4b63-458d-8b1a-b1a940a76c7a" componentID="Audition.StereoPanner" id="clipPan" name="StereoPanner" powered="true">
            <parameter index="0" name="Pan" parameterValue="0"/>
          </component>
          <fadeIn crossFadeLinkType="linkedAsymmetric" endPoint="4336" shape="18" startPoint="0" type="log"/>
          <fadeOut crossFadeLinkType="linkedAsymmetric" endPoint="24179" shape="19" startPoint="17897" type="log"/>
          <editParameter parameterIndex="0" slotIndex="4294967281"/>
          <editParameter parameterIndex="0" slotIndex="4294967280"/>
          <channelMap>
            <channel index="0" sourceIndex="0"/>
            <channel index="1" sourceIndex="1"/>
          </channelMap>
        </audioClip>
        <audioClip clipAutoCrossfade="true" crossFadeHeadClipID="56" crossFadeTailClipID="58" endPoint="1782038" fileID="49" hue="-1" id="57" lockedInTime="false" looped="false" name="81-219.207-259.696" offline="false" select="false" sourceInPoint="1645572" sourceOutPoint="1785566" startPoint="1642044" zOrder="54">
          <component componentGuid="4eee4c42-5a31-4987-95d1-9864478616cd" componentID="Audition.Fader" id="clipGain" name="volume" powered="true">
            <parameter index="0" name="volume" parameterValue="0.7582347393035888671875">
              <parameterKeyframes enableSplines="false" readOnly="false">
                <parameterKeyframe sampleOffset="1657323" select="false" type="linear" value="0.64999997615814208984375"/>
                <parameterKeyframe sampleOffset="1760707" select="true" type="linear" value="0.574246942996978759765625"/>
              </parameterKeyframes>
            </parameter>
            <parameter index="1" name="static gain" parameterValue="1.364582538604736328125"/>
          </component>
          <component componentGuid="ca5e4dbe-57a8-4b51-bd20-4f05e4dc5a0d" componentID="Audition.Mute" id="clipMute" name="Mute" powered="true">
            <parameter index="0" parameterValue="0"/>
            <parameter index="1" name="mute" parameterValue="0"/>
          </component>
          <component componentGuid="1f9984b1-3090-45a5-84cf-30bf7ea3a49f" componentID="Audition.StereoPanner" id="clipPan" name="StereoPanner" powered="true">
            <parameter index="0" name="Pan" parameterValue="0"/>
          </component>
          <fadeIn crossFadeLinkType="linkedAsymmetric" endPoint="6282" shape="18" startPoint="0" type="log"/>
          <fadeOut crossFadeLinkType="linkedAsymmetric" endPoint="139994" shape="19" startPoint="116047" type="log"/>
          <editParameter parameterIndex="0" slotIndex="4294967281"/>
          <editParameter parameterIndex="0" slotIndex="4294967280"/>
          <channelMap>
            <channel index="0" sourceIndex="0"/>
            <channel index="1" sourceIndex="1"/>
          </channelMap>
        </audioClip>
        <audioClip clipAutoCrossfade="true" crossFadeHeadClipID="57" crossFadeTailClipID="59" endPoint="1792363" fileID="50" hue="-1" id="58" lockedInTime="false" looped="false" name="112-2285.04-2326.28" offline="false" select="false" sourceInPoint="1761178" sourceOutPoint="1795450" startPoint="1758091" zOrder="55">
          <component componentGuid="fbb9e96c-353f-4f7b-a50c-b398e8f851e9" componentID="Audition.Fader" id="clipGain" name="volume" powered="true">
            <parameter index="0" name="volume" parameterValue="2.6291053295135498046875">
              <parameterKeyframes enableSplines="false" readOnly="false">
                <parameterKeyframe sampleOffset="1783961" select="true" type="linear" value="0.64999997615814208984375"/>
                <parameterKeyframe sampleOffset="1791965" select="false" type="linear" value="0.815817058086395263671875"/>
                <parameterKeyframe sampleOffset="1795376" select="false" type="linear" value="0.87834644317626953125"/>
              </parameterKeyframes>
            </parameter>
            <parameter index="1" name="static gain" parameterValue="2.065379619598388671875"/>
          </component>
          <component componentGuid="42a440ef-79b7-4230-8976-6570ead9795b" componentID="Audition.Mute" id="clipMute" name="Mute" powered="true">
            <parameter index="0" parameterValue="0"/>
            <parameter index="1" name="mute" parameterValue="0"/>
          </component>
          <component componentGuid="d18816e5-fd89-49a0-82a4-a1c68114ff22" componentID="Audition.StereoPanner" id="clipPan" name="StereoPanner" powered="true">
            <parameter index="0" name="Pan" parameterValue="0"/>
          </component>
          <fadeIn crossFadeLinkType="linkedAsymmetric" endPoint="23947" shape="18" startPoint="0" type="log"/>
          <fadeOut crossFadeLinkType="linkedAsymmetric" endPoint="34272" shape="19" startPoint="30589" type="log"/>
          <editParameter parameterIndex="0" slotIndex="4294967281"/>
          <editParameter parameterIndex="0" slotIndex="4294967280"/>
          <channelMap>
            <channel index="0" sourceIndex="0"/>
            <channel index="1" sourceIndex="1"/>
          </channelMap>
        </audioClip>
        <audioClip clipAutoCrossfade="true" crossFadeHeadClipID="58" crossFadeTailClipID="60" endPoint="1826529" fileID="15" hue="-1" id="59" lockedInTime="false" looped="false" name="26-1438.41-1493.49" offline="false" select="false" sourceInPoint="1792208" sourceOutPoint="1830057" startPoint="1788680" zOrder="56">
          <component componentGuid="ce96da67-ab12-4bdc-ba30-cb8df8fc5fc9" componentID="Audition.Fader" id="clipGain" name="volume" powered="true">
            <parameter index="0" name="volume" parameterValue="0.756103217601776123046875">
              <parameterKeyframes enableSplines="false" readOnly="false">
                <parameterKeyframe sampleOffset="1798326" select="false" type="linear" value="0.64999997615814208984375"/>
                <parameterKeyframe sampleOffset="1815735" select="true" type="linear" value="0.57352364063262939453125"/>
              </parameterKeyframes>
            </parameter>
            <parameter index="1" name="static gain" parameterValue="3.9810769557952880859375"/>
          </component>
          <component componentGuid="8c6d3be1-1674-4352-8500-748c5d7a5c89" componentID="Audition.Mute" id="clipMute" name="Mute" powered="true">
            <parameter index="0" parameterValue="0"/>
            <parameter index="1" name="mute" parameterValue="0"/>
          </component>
          <component componentGuid="2cbe20f7-c706-466c-bb91-c58a403bfe21" componentID="Audition.StereoPanner" id="clipPan" name="StereoPanner" powered="true">
            <parameter index="0" name="Pan" parameterValue="0"/>
          </component>
          <fadeIn crossFadeLinkType="linkedAsymmetric" endPoint="3683" shape="18" startPoint="0" type="log"/>
          <fadeOut crossFadeLinkType="linkedAsymmetric" endPoint="37849" shape="19" startPoint="24593" type="log"/>
          <editParameter parameterIndex="0" slotIndex="4294967281"/>
          <editParameter parameterIndex="0" slotIndex="4294967280"/>
          <channelMap>
            <channel index="0" sourceIndex="0"/>
            <channel index="1" sourceIndex="1"/>
          </channelMap>
        </audioClip>
        <audioClip clipAutoCrossfade="true" crossFadeHeadClipID="59" crossFadeTailClipID="61" endPoint="1860312" fileID="51" hue="-1" id="60" lockedInTime="false" looped="false" name="80-270.388-312.946" offline="false" select="false" sourceInPoint="1814155" sourceOutPoint="1861194" startPoint="1813273" zOrder="57">
          <component componentGuid="054a4ec9-dead-495d-9f18-b5beafd158e7" componentID="Audition.Fader" id="clipGain" name="volume" powered="true">
            <parameter index="0" name="volume" parameterValue="0.826229870319366455078125">
              <parameterKeyframes enableSplines="false" readOnly="false">
                <parameterKeyframe sampleOffset="1822639" select="false" type="linear" value="0.64999997615814208984375"/>
                <parameterKeyframe sampleOffset="1844000" select="false" type="linear" value="0.596756994724273681640625"/>
              </parameterKeyframes>
            </parameter>
            <parameter index="1" name="static gain" parameterValue="1.273502349853515625"/>
          </component>
          <component componentGuid="b5e8d20c-f964-4774-a868-4582cb6982dc" componentID="Audition.Mute" id="clipMute" name="Mute" powered="true">
            <parameter index="0" parameterValue="0"/>
            <parameter index="1" name="mute" parameterValue="0"/>
          </component>
          <component componentGuid="fd3da42f-d19d-479c-96a0-f9e5fd1cca95" componentID="Audition.StereoPanner" id="clipPan" name="StereoPanner" powered="true">
            <parameter index="0" name="Pan" parameterValue="0"/>
          </component>
          <fadeIn crossFadeLinkType="linkedAsymmetric" endPoint="13256" shape="18" startPoint="0" type="log"/>
          <fadeOut crossFadeLinkType="linkedAsymmetric" endPoint="47039" shape="19" startPoint="41080" type="log"/>
          <editParameter parameterIndex="0" slotIndex="4294967281"/>
          <editParameter parameterIndex="0" slotIndex="4294967280"/>
          <channelMap>
            <channel index="0" sourceIndex="0"/>
            <channel index="1" sourceIndex="1"/>
          </channelMap>
        </audioClip>
        <audioClip clipAutoCrossfade="true" crossFadeHeadClipID="60" crossFadeTailClipID="62" endPoint="1868068" fileID="21" hue="-1" id="61" lockedInTime="false" looped="false" name="41-1862.66-1915.59" offline="false" select="false" sourceInPoint="1856999" sourceOutPoint="1870714" startPoint="1854353" zOrder="58">
          <component componentGuid="a9116ee6-58d1-4fb7-8022-29ef89876f82" componentID="Audition.Fader" id="clipGain" name="volume" powered="true">
            <parameter index="0" name="volume" parameterValue="1"/>
            <parameter index="1" name="static gain" parameterValue="3.9810769557952880859375"/>
          </component>
          <component componentGuid="08048dfe-124e-410f-b2d0-a3096fb03b66" componentID="Audition.Mute" id="clipMute" name="Mute" powered="true">
            <parameter index="0" parameterValue="0"/>
            <parameter index="1" name="mute" parameterValue="0"/>
          </component>
          <component componentGuid="4fc121cf-73c3-45c8-87af-b180cefc88b5" componentID="Audition.StereoPanner" id="clipPan" name="StereoPanner" powered="true">
            <parameter index="0" name="Pan" parameterValue="0"/>
          </component>
          <fadeIn crossFadeLinkType="linkedAsymmetric" endPoint="5959" shape="18" startPoint="0" type="log"/>
          <fadeOut crossFadeLinkType="linkedAsymmetric" endPoint="13715" shape="19" startPoint="12606" type="log"/>
          <editParameter parameterIndex="0" slotIndex="4294967281"/>
          <editParameter parameterIndex="0" slotIndex="4294967280"/>
          <channelMap>
            <channel index="0" sourceIndex="0"/>
            <channel index="1" sourceIndex="1"/>
          </channelMap>
        </audioClip>
        <audioClip clipAutoCrossfade="true" crossFadeHeadClipID="61" crossFadeTailClipID="63" endPoint="1902953" fileID="25" hue="-1" id="62" lockedInTime="false" looped="false" name="44-1688.57-1743.64" offline="false" select="false" sourceInPoint="1870487" sourceOutPoint="1906481" startPoint="1866959" zOrder="59">
          <component componentGuid="518049d6-4c5e-4dab-98f6-3a9b4b1ab366" componentID="Audition.Fader" id="clipGain" name="volume" powered="true">
            <parameter index="0" name="volume" parameterValue="1"/>
            <parameter index="1" name="static gain" parameterValue="3.12607860565185546875"/>
          </component>
          <component componentGuid="1fd2a98e-5ba8-4b14-9357-af250d18c793" componentID="Audition.Mute" id="clipMute" name="Mute" powered="true">
            <parameter index="0" parameterValue="0"/>
            <parameter index="1" name="mute" parameterValue="0"/>
          </component>
          <component componentGuid="f3ba2569-73ad-4b5e-b5b7-7d676941a69a" componentID="Audition.StereoPanner" id="clipPan" name="StereoPanner" powered="true">
            <parameter index="0" name="Pan" parameterValue="0"/>
          </component>
          <fadeIn crossFadeLinkType="linkedAsymmetric" endPoint="1109" shape="18" startPoint="0" type="log"/>
          <fadeOut crossFadeLinkType="linkedAsymmetric" endPoint="35994" shape="19" startPoint="27126" type="log"/>
          <editParameter parameterIndex="0" slotIndex="4294967281"/>
          <editParameter parameterIndex="0" slotIndex="4294967280"/>
          <channelMap>
            <channel index="0" sourceIndex="0"/>
            <channel index="1" sourceIndex="1"/>
          </channelMap>
        </audioClip>
        <audioClip clipAutoCrossfade="true" crossFadeHeadClipID="62" crossFadeTailClipID="64" endPoint="1917247" fileID="52" hue="-1" id="63" lockedInTime="false" looped="false" name="47-1271.78-1324." offline="false" select="false" sourceInPoint="1894967" sourceOutPoint="1918129" startPoint="1894085" zOrder="60">
          <component componentGuid="d25334e5-2ce5-41ab-bcc9-15a6a453a8ed" componentID="Audition.Fader" id="clipGain" name="volume" powered="true">
            <parameter index="0" name="volume" parameterValue="1"/>
            <parameter index="1" name="static gain" parameterValue="5.248076915740966796875"/>
          </component>
          <component componentGuid="465f6cc0-ad52-48ef-b6e6-b3dd7075c4b4" componentID="Audition.Mute" id="clipMute" name="Mute" powered="true">
            <parameter index="0" parameterValue="0"/>
            <parameter index="1" name="mute" parameterValue="0"/>
          </component>
          <component componentGuid="87b2b23f-9cee-4cf0-ae28-8dc033783ccd" componentID="Audition.StereoPanner" id="clipPan" name="StereoPanner" powered="true">
            <parameter index="0" name="Pan" parameterValue="0"/>
          </component>
          <fadeIn crossFadeLinkType="linkedAsymmetric" endPoint="8868" shape="18" startPoint="0" type="log"/>
          <fadeOut crossFadeLinkType="linkedAsymmetric" endPoint="23162" shape="19" startPoint="21200" type="log"/>
          <editParameter parameterIndex="0" slotIndex="4294967281"/>
          <editParameter parameterIndex="0" slotIndex="4294967280"/>
          <channelMap>
            <channel index="0" sourceIndex="0"/>
            <channel index="1" sourceIndex="1"/>
          </channelMap>
        </audioClip>
        <audioClip clipAutoCrossfade="true" crossFadeHeadClipID="63" crossFadeTailClipID="65" endPoint="1968865" fileID="53" hue="-1" id="64" lockedInTime="false" looped="false" name="19-1235.69-1280.41" offline="false" select="false" sourceInPoint="1918372" sourceOutPoint="1971952" startPoint="1915285" zOrder="61">
          <component componentGuid="adc094f4-190c-4439-b1ba-b570e9ff81bb" componentID="Audition.Fader" id="clipGain" name="volume" powered="true">
            <parameter index="0" name="volume" parameterValue="0.716777026653289794921875">
              <parameterKeyframes enableSplines="false" readOnly="false">
                <parameterKeyframe sampleOffset="1949086" select="false" type="linear" value="0.64999997615814208984375"/>
                <parameterKeyframe sampleOffset="1953501" select="true" type="linear" value="0.559970915317535400390625"/>
              </parameterKeyframes>
            </parameter>
            <parameter index="1" name="static gain" parameterValue="2.371373653411865234375"/>
          </component>
          <component componentGuid="3ad3dd15-b368-4cb1-af4c-1168cdd342a6" componentID="Audition.Mute" id="clipMute" name="Mute" powered="true">
            <parameter index="0" parameterValue="0"/>
            <parameter index="1" name="mute" parameterValue="0"/>
          </component>
          <component componentGuid="a54dd43e-8785-4212-b8e0-72bd3065b0d6" componentID="Audition.StereoPanner" id="clipPan" name="StereoPanner" powered="true">
            <parameter index="0" name="Pan" parameterValue="0"/>
          </component>
          <fadeIn crossFadeLinkType="linkedAsymmetric" endPoint="1962" shape="18" startPoint="0" type="log"/>
          <fadeOut crossFadeLinkType="linkedAsymmetric" endPoint="53580" shape="19" startPoint="36022" type="log"/>
          <editParameter parameterIndex="0" slotIndex="4294967281"/>
          <editParameter parameterIndex="0" slotIndex="4294967280"/>
          <channelMap>
            <channel index="0" sourceIndex="0"/>
            <channel index="1" sourceIndex="1"/>
          </channelMap>
        </audioClip>
        <audioClip clipAutoCrossfade="true" crossFadeHeadClipID="64" crossFadeTailClipID="66" endPoint="1983955" fileID="18" hue="-1" id="65" lockedInTime="false" looped="false" name="26-1580.19-1636.91" offline="false" select="false" sourceInPoint="1953071" sourceOutPoint="1985719" startPoint="1951307" zOrder="62">
          <component componentGuid="4330e724-949d-4a67-b73c-69b610278055" componentID="Audition.Fader" id="clipGain" name="volume" powered="true">
            <parameter index="0" name="volume" parameterValue="1"/>
            <parameter index="1" name="static gain" parameterValue="3.7153537273406982421875"/>
          </component>
          <component componentGuid="f11d02f1-2827-4d5b-9a89-56ecd4b4f902" componentID="Audition.Mute" id="clipMute" name="Mute" powered="true">
            <parameter index="0" parameterValue="0"/>
            <parameter index="1" name="mute" parameterValue="0"/>
          </component>
          <component componentGuid="8c15a6e1-ad43-4f63-bd66-20bdcfd06c56" componentID="Audition.StereoPanner" id="clipPan" name="StereoPanner" powered="true">
            <parameter index="0" name="Pan" parameterValue="0"/>
          </component>
          <fadeIn crossFadeLinkType="linkedAsymmetric" endPoint="17558" shape="18" startPoint="0" type="log"/>
          <fadeOut crossFadeLinkType="linkedAsymmetric" endPoint="32648" shape="19" startPoint="18162" type="log"/>
          <editParameter parameterIndex="0" slotIndex="4294967281"/>
          <editParameter parameterIndex="0" slotIndex="4294967280"/>
          <channelMap>
            <channel index="0" sourceIndex="0"/>
            <channel index="1" sourceIndex="1"/>
          </channelMap>
        </audioClip>
        <audioClip clipAutoCrossfade="true" crossFadeHeadClipID="65" crossFadeTailClipID="67" endPoint="2004051" fileID="54" hue="-1" id="66" lockedInTime="false" looped="false" name="26-750.26-811.93" offline="false" select="false" sourceInPoint="1972556" sourceOutPoint="2007138" startPoint="1969469" zOrder="63">
          <component componentGuid="abc7d316-bd38-4203-baad-5483340ca525" componentID="Audition.Fader" id="clipGain" name="volume" powered="true">
            <parameter index="0" name="volume" parameterValue="0.884191930294036865234375">
              <parameterKeyframes enableSplines="false" readOnly="false">
                <parameterKeyframe sampleOffset="1995064" select="false" type="linear" value="0.64999997615814208984375"/>
                <parameterKeyframe sampleOffset="2001458" select="true" type="linear" value="0.615149974822998046875"/>
              </parameterKeyframes>
            </parameter>
            <parameter index="1" name="static gain" parameterValue="3.7153537273406982421875"/>
          </component>
          <component componentGuid="a5b6fa23-a518-48c1-8641-fe949e361d59" componentID="Audition.Mute" id="clipMute" name="Mute" powered="true">
            <parameter index="0" parameterValue="0"/>
            <parameter index="1" name="mute" parameterValue="0"/>
          </component>
          <component componentGuid="486c7ebf-fc38-49c4-aedb-4ae03af68737" componentID="Audition.StereoPanner" id="clipPan" name="StereoPanner" powered="true">
            <parameter index="0" name="Pan" parameterValue="0"/>
          </component>
          <fadeIn crossFadeLinkType="linkedAsymmetric" endPoint="14486" shape="18" startPoint="0" type="log"/>
          <fadeOut crossFadeLinkType="linkedAsymmetric" endPoint="34582" shape="19" startPoint="31597" type="log"/>
          <editParameter parameterIndex="0" slotIndex="4294967281"/>
          <editParameter parameterIndex="0" slotIndex="4294967280"/>
          <channelMap>
            <channel index="0" sourceIndex="0"/>
            <channel index="1" sourceIndex="1"/>
          </channelMap>
        </audioClip>
        <audioClip clipAutoCrossfade="true" crossFadeHeadClipID="66" crossFadeTailClipID="68" endPoint="2044023" fileID="55" hue="-1" id="67" lockedInTime="false" looped="false" name="29-1237.6-1284.03" offline="false" select="false" sourceInPoint="2004494" sourceOutPoint="2047451" startPoint="2001066" zOrder="64">
          <component componentGuid="65fb7ad3-6446-4abc-9d6c-62cb9723ebe1" componentID="Audition.Fader" id="clipGain" name="volume" powered="true">
            <parameter index="0" name="volume" parameterValue="1"/>
            <parameter index="1" name="static gain" parameterValue="2.5409717559814453125"/>
          </component>
          <component componentGuid="38f72077-4996-4734-9e49-c68670bbd138" componentID="Audition.Mute" id="clipMute" name="Mute" powered="true">
            <parameter index="0" parameterValue="0"/>
            <parameter index="1" name="mute" parameterValue="0"/>
          </component>
          <component componentGuid="9a4142fb-3ae0-4831-9a9b-5fbef6b955b8" componentID="Audition.StereoPanner" id="clipPan" name="StereoPanner" powered="true">
            <parameter index="0" name="Pan" parameterValue="0"/>
          </component>
          <fadeIn crossFadeLinkType="linkedAsymmetric" endPoint="2985" shape="18" startPoint="0" type="log"/>
          <fadeOut crossFadeLinkType="linkedAsymmetric" endPoint="42957" shape="19" startPoint="42778" type="log"/>
          <editParameter parameterIndex="0" slotIndex="4294967281"/>
          <editParameter parameterIndex="0" slotIndex="4294967280"/>
          <channelMap>
            <channel index="0" sourceIndex="0"/>
            <channel index="1" sourceIndex="1"/>
          </channelMap>
        </audioClip>
        <audioClip clipAutoCrossfade="true" crossFadeHeadClipID="67" crossFadeTailClipID="69" endPoint="2079482" fileID="56" hue="-1" id="68" lockedInTime="false" looped="false" name="26-528.254-625.714" offline="false" select="false" sourceInPoint="4164007" sourceOutPoint="4199645" startPoint="2043844" zOrder="65">
          <component componentGuid="24a21adc-6eeb-4f7e-a803-cf038fde7bd5" componentID="Audition.Fader" id="clipGain" name="volume" powered="true">
            <parameter index="0" name="volume" parameterValue="1"/>
            <parameter index="1" name="static gain" parameterValue="4.570880889892578125"/>
          </component>
          <component componentGuid="a45ba8c5-cc07-48ed-a7df-6855fd3d1d66" componentID="Audition.Mute" id="clipMute" name="Mute" powered="true">
            <parameter index="0" parameterValue="0"/>
            <parameter index="1" name="mute" parameterValue="0"/>
          </component>
          <component componentGuid="81face57-74b3-44e0-a741-0544ca9b61e8" componentID="Audition.StereoPanner" id="clipPan" name="StereoPanner" powered="true">
            <parameter index="0" name="Pan" parameterValue="0"/>
          </component>
          <fadeIn crossFadeLinkType="linkedAsymmetric" endPoint="179" shape="18" startPoint="0" type="log"/>
          <fadeOut crossFadeLinkType="linkedAsymmetric" endPoint="35638" shape="19" startPoint="32181" type="log"/>
          <editParameter parameterIndex="0" slotIndex="4294967281"/>
          <editParameter parameterIndex="0" slotIndex="4294967280"/>
          <channelMap>
            <channel index="0" sourceIndex="0"/>
            <channel index="1" sourceIndex="1"/>
          </channelMap>
        </audioClip>
        <audioClip clipAutoCrossfade="true" crossFadeHeadClipID="68" crossFadeTailClipID="70" endPoint="2120734" fileID="57" hue="-1" id="69" lockedInTime="false" looped="false" name="61-1516.14-1576.73" offline="false" select="false" sourceInPoint="2076466" sourceOutPoint="2121175" startPoint="2076025" zOrder="66">
          <component componentGuid="6bbe58ab-45be-4a99-a584-8ef0438c4be1" componentID="Audition.Fader" id="clipGain" name="volume" powered="true">
            <parameter index="0" name="volume" parameterValue="1"/>
            <parameter index="1" name="static gain" parameterValue="2.6302707195281982421875"/>
          </component>
          <component componentGuid="452eeb65-4973-4956-9595-212761172319" componentID="Audition.Mute" id="clipMute" name="Mute" powered="true">
            <parameter index="0" parameterValue="0"/>
            <parameter index="1" name="mute" parameterValue="0"/>
          </component>
          <component componentGuid="0d6f3e87-0c6e-4f34-b868-535b15abbf28" componentID="Audition.StereoPanner" id="clipPan" name="StereoPanner" powered="true">
            <parameter index="0" name="Pan" parameterValue="0"/>
          </component>
          <fadeIn crossFadeLinkType="linkedAsymmetric" endPoint="3457" shape="18" startPoint="0" type="log"/>
          <fadeOut crossFadeLinkType="linkedAsymmetric" endPoint="44709" shape="19" startPoint="44142" type="log"/>
          <editParameter parameterIndex="0" slotIndex="4294967281"/>
          <editParameter parameterIndex="0" slotIndex="4294967280"/>
          <channelMap>
            <channel index="0" sourceIndex="0"/>
            <channel index="1" sourceIndex="1"/>
          </channelMap>
        </audioClip>
        <audioClip clipAutoCrossfade="true" crossFadeHeadClipID="69" crossFadeTailClipID="71" endPoint="2145629" fileID="58" hue="-1" id="70" lockedInTime="false" looped="false" name="112-1673.69-1722.38" offline="false" select="false" sourceInPoint="2121931" sourceOutPoint="2147393" startPoint="2120167" zOrder="67">
          <component componentGuid="0cbb436e-e07d-4991-bee1-bfe187158a2d" componentID="Audition.Fader" id="clipGain" name="volume" powered="true">
            <parameter index="0" name="volume" parameterValue="1"/>
            <parameter index="1" name="static gain" parameterValue="2.290870189666748046875"/>
          </component>
          <component componentGuid="92aea74d-5e90-4ef5-9b6a-2b30010c806e" componentID="Audition.Mute" id="clipMute" name="Mute" powered="true">
            <parameter index="0" parameterValue="0"/>
            <parameter index="1" name="mute" parameterValue="0"/>
          </component>
          <component componentGuid="805e6221-22c7-4ea5-94f9-c9af3a5f87b6" componentID="Audition.StereoPanner" id="clipPan" name="StereoPanner" powered="true">
            <parameter index="0" name="Pan" parameterValue="0"/>
          </component>
          <fadeIn crossFadeLinkType="linkedAsymmetric" endPoint="567" shape="18" startPoint="0" type="log"/>
          <fadeOut crossFadeLinkType="linkedAsymmetric" endPoint="25462" shape="19" startPoint="12073" type="log"/>
          <editParameter parameterIndex="0" slotIndex="4294967280"/>
          <editParameter parameterIndex="0" slotIndex="4294967281"/>
          <channelMap>
            <channel index="0" sourceIndex="0"/>
            <channel index="1" sourceIndex="1"/>
          </channelMap>
        </audioClip>
        <audioClip clipAutoCrossfade="true" crossFadeHeadClipID="70" crossFadeTailClipID="72" endPoint="2152080" fileID="59" hue="-1" id="71" lockedInTime="false" looped="false" name="111-650.729-712.834" offline="false" select="false" sourceInPoint="2134886" sourceOutPoint="2154726" startPoint="2132240" zOrder="68">
          <component componentGuid="7c1231e6-6e6d-458f-bd82-c1ca7964c1d6" componentID="Audition.Fader" id="clipGain" name="volume" powered="true">
            <parameter index="0" name="volume" parameterValue="0.947557985782623291015625">
              <parameterKeyframes enableSplines="false" readOnly="false">
                <parameterKeyframe sampleOffset="2136972" select="false" type="linear" value="0.64999997615814208984375"/>
                <parameterKeyframe sampleOffset="2151435" select="true" type="linear" value="0.63451111316680908203125"/>
              </parameterKeyframes>
            </parameter>
            <parameter index="1" name="static gain" parameterValue="2.2130968570709228515625"/>
          </component>
          <component componentGuid="e5990f28-5ff2-4546-b323-ba8ee9596f5a" componentID="Audition.Mute" id="clipMute" name="Mute" powered="true">
            <parameter index="0" parameterValue="0"/>
            <parameter index="1" name="mute" parameterValue="0"/>
          </component>
          <component componentGuid="d0545ddc-af3e-4814-a23d-c4f4b7a07e07" componentID="Audition.StereoPanner" id="clipPan" name="StereoPanner" powered="true">
            <parameter index="0" name="Pan" parameterValue="0"/>
          </component>
          <fadeIn crossFadeLinkType="linkedAsymmetric" endPoint="13389" shape="18" startPoint="0" type="log"/>
          <fadeOut crossFadeLinkType="linkedAsymmetric" endPoint="19840" shape="19" startPoint="19215" type="log"/>
          <editParameter parameterIndex="0" slotIndex="4294967281"/>
          <editParameter parameterIndex="0" slotIndex="4294967280"/>
          <channelMap>
            <channel index="0" sourceIndex="0"/>
            <channel index="1" sourceIndex="1"/>
          </channelMap>
        </audioClip>
        <audioClip clipAutoCrossfade="true" crossFadeHeadClipID="71" crossFadeTailClipID="73" endPoint="2166283" fileID="60" hue="-1" id="72" lockedInTime="false" looped="false" name="5-1728.16-1787.63" offline="false" select="false" sourceInPoint="2151014" sourceOutPoint="2165842" startPoint="2151455" zOrder="69">
          <component componentGuid="5bbce845-20d0-45bd-807f-5974882c3e34" componentID="Audition.Fader" id="clipGain" name="volume" powered="true">
            <parameter index="0" name="volume" parameterValue="1"/>
            <parameter index="1" name="static gain" parameterValue="6.237346172332763671875"/>
          </component>
          <component componentGuid="b43ec610-19b9-470c-9bae-700a0111d2ec" componentID="Audition.Mute" id="clipMute" name="Mute" powered="true">
            <parameter index="0" parameterValue="0"/>
            <parameter index="1" name="mute" parameterValue="0"/>
          </component>
          <component componentGuid="23b5bb9f-b4fd-4ad0-b16f-3fab49dd5c32" componentID="Audition.StereoPanner" id="clipPan" name="StereoPanner" powered="true">
            <parameter index="0" name="Pan" parameterValue="0"/>
          </component>
          <fadeIn crossFadeLinkType="linkedAsymmetric" endPoint="625" shape="18" startPoint="0" type="log"/>
          <fadeOut crossFadeLinkType="linkedAsymmetric" endPoint="14828" shape="19" startPoint="13236" type="log"/>
          <editParameter parameterIndex="0" slotIndex="4294967281"/>
          <editParameter parameterIndex="0" slotIndex="4294967280"/>
          <channelMap>
            <channel index="0" sourceIndex="0"/>
            <channel index="1" sourceIndex="1"/>
          </channelMap>
        </audioClip>
        <audioClip clipAutoCrossfade="true" crossFadeHeadClipID="72" crossFadeTailClipID="74" endPoint="2210028" fileID="61" hue="-1" id="73" lockedInTime="false" looped="false" name="123-594.193-644.401" offline="false" select="false" sourceInPoint="2166455" sourceOutPoint="2211792" startPoint="2164691" zOrder="70">
          <component componentGuid="f14a7967-9f1c-4404-97d6-9d41ec71fda5" componentID="Audition.Fader" id="clipGain" name="volume" powered="true">
            <parameter index="0" name="volume" parameterValue="1"/>
            <parameter index="1" name="static gain" parameterValue="2.1379611492156982421875"/>
          </component>
          <component componentGuid="11ef866d-29ec-4425-a3a9-fca94d353a88" componentID="Audition.Mute" id="clipMute" name="Mute" powered="true">
            <parameter index="0" parameterValue="0"/>
            <parameter index="1" name="mute" parameterValue="0"/>
          </component>
          <component componentGuid="270be69c-7770-46de-a169-133c28158211" componentID="Audition.StereoPanner" id="clipPan" name="StereoPanner" powered="true">
            <parameter index="0" name="Pan" parameterValue="0"/>
          </component>
          <fadeIn crossFadeLinkType="linkedAsymmetric" endPoint="1592" shape="18" startPoint="0" type="log"/>
          <fadeOut crossFadeLinkType="linkedAsymmetric" endPoint="45337" shape="19" startPoint="6311" type="log"/>
          <editParameter parameterIndex="0" slotIndex="4294967281"/>
          <editParameter parameterIndex="0" slotIndex="4294967280"/>
          <channelMap>
            <channel index="0" sourceIndex="0"/>
            <channel index="1" sourceIndex="1"/>
          </channelMap>
        </audioClip>
        <audioClip clipAutoCrossfade="true" crossFadeHeadClipID="73" crossFadeTailClipID="75" endPoint="2277010" fileID="62" hue="-1" id="74" lockedInTime="false" looped="false" name="96-2292.26-2344.49" offline="false" select="false" sourceInPoint="2172766" sourceOutPoint="2278774" startPoint="2171002" zOrder="71">
          <component componentGuid="a9b89e60-b83b-49a9-8b29-4581cdd4de6b" componentID="Audition.Fader" id="clipGain" name="volume" powered="true">
            <parameter index="0" name="volume" parameterValue="1"/>
            <parameter index="1" name="static gain" parameterValue="1.5667498111724853515625"/>
          </component>
          <component componentGuid="155d3b48-e364-4790-adf0-5235ef03ee34" componentID="Audition.Mute" id="clipMute" name="Mute" powered="true">
            <parameter index="0" parameterValue="0"/>
            <parameter index="1" name="mute" parameterValue="0"/>
          </component>
          <component componentGuid="2a2a5955-ea17-4008-8c6b-d821b620cf25" componentID="Audition.StereoPanner" id="clipPan" name="StereoPanner" powered="true">
            <parameter index="0" name="Pan" parameterValue="0"/>
          </component>
          <fadeIn crossFadeLinkType="linkedAsymmetric" endPoint="39026" shape="18" startPoint="0" type="log"/>
          <fadeOut crossFadeLinkType="linkedAsymmetric" endPoint="106008" shape="19" startPoint="91444" type="log"/>
          <editParameter parameterIndex="0" slotIndex="4294967281"/>
          <editParameter parameterIndex="0" slotIndex="4294967280"/>
          <channelMap>
            <channel index="0" sourceIndex="0"/>
            <channel index="1" sourceIndex="1"/>
          </channelMap>
        </audioClip>
        <audioClip clipAutoCrossfade="true" crossFadeHeadClipID="74" crossFadeTailClipID="76" endPoint="2303199" fileID="63" hue="-1" id="75" lockedInTime="false" looped="false" name="51-1736.41-1796.6" offline="false" select="false" sourceInPoint="2264210" sourceOutPoint="2304963" startPoint="2262446" zOrder="72">
          <component componentGuid="40dd4344-a287-4db0-9032-bdaf6e8a38d3" componentID="Audition.Fader" id="clipGain" name="volume" powered="true">
            <parameter index="0" name="volume" parameterValue="1"/>
            <parameter index="1" name="static gain" parameterValue="3.467370510101318359375"/>
          </component>
          <component componentGuid="43f47f7e-46b5-4c80-9171-d1b12374314d" componentID="Audition.Mute" id="clipMute" name="Mute" powered="true">
            <parameter index="0" parameterValue="0"/>
            <parameter index="1" name="mute" parameterValue="0"/>
          </component>
          <component componentGuid="7209cd54-e07d-466c-b727-f4080bad1970" componentID="Audition.StereoPanner" id="clipPan" name="StereoPanner" powered="true">
            <parameter index="0" name="Pan" parameterValue="0"/>
          </component>
          <fadeIn crossFadeLinkType="linkedAsymmetric" endPoint="14564" shape="18" startPoint="0" type="log"/>
          <fadeOut crossFadeLinkType="linkedAsymmetric" endPoint="40753" shape="19" startPoint="20867" type="log"/>
          <editParameter parameterIndex="0" slotIndex="4294967281"/>
          <editParameter parameterIndex="0" slotIndex="4294967280"/>
          <channelMap>
            <channel index="0" sourceIndex="0"/>
            <channel index="1" sourceIndex="1"/>
          </channelMap>
        </audioClip>
        <audioClip clipAutoCrossfade="true" crossFadeHeadClipID="75" crossFadeTailClipID="77" endPoint="2323024" fileID="64" hue="-1" id="76" lockedInTime="false" looped="false" name="132-1348.67-1401.68" offline="false" select="false" sourceInPoint="2275816" sourceOutPoint="2315527" startPoint="2283313" zOrder="73">
          <component componentGuid="a010326a-8e53-4e38-820d-967dd9e90f95" componentID="Audition.Fader" id="clipGain" name="volume" powered="true">
            <parameter index="0" name="volume" parameterValue="1"/>
            <parameter index="1" name="static gain" parameterValue="2.065379619598388671875"/>
          </component>
          <component componentGuid="f90f7d34-4a8c-4bdc-848d-1cc8313f664d" componentID="Audition.Mute" id="clipMute" name="Mute" powered="true">
            <parameter index="0" parameterValue="0"/>
            <parameter index="1" name="mute" parameterValue="0"/>
          </component>
          <component componentGuid="f3f5049c-5221-43fe-a310-aa3342ab8b94" componentID="Audition.StereoPanner" id="clipPan" name="StereoPanner" powered="true">
            <parameter index="0" name="Pan" parameterValue="0"/>
          </component>
          <fadeIn crossFadeLinkType="linkedAsymmetric" endPoint="19886" shape="18" startPoint="0" type="log"/>
          <fadeOut crossFadeLinkType="linkedAsymmetric" endPoint="39711" shape="19" startPoint="27632" type="log"/>
          <editParameter parameterIndex="0" slotIndex="4294967281"/>
          <editParameter parameterIndex="0" slotIndex="4294967280"/>
          <channelMap>
            <channel index="0" sourceIndex="0"/>
            <channel index="1" sourceIndex="1"/>
          </channelMap>
        </audioClip>
        <audioClip clipAutoCrossfade="true" crossFadeHeadClipID="76" crossFadeTailClipID="78" endPoint="2442011" fileID="65" hue="-1" id="77" lockedInTime="false" looped="false" name="9-2032.29-2087.71" offline="false" select="false" sourceInPoint="2312709" sourceOutPoint="2443775" startPoint="2310945" zOrder="74">
          <component componentGuid="d15c1c01-1269-4a8b-832b-1fdb1dfd9dca" componentID="Audition.Fader" id="clipGain" name="volume" powered="true">
            <parameter index="0" name="volume" parameterValue="1"/>
            <parameter index="1" name="static gain" parameterValue="4.26579570770263671875"/>
          </component>
          <component componentGuid="e127fee4-5d76-4324-b7cc-c761da5ad771" componentID="Audition.Mute" id="clipMute" name="Mute" powered="true">
            <parameter index="0" parameterValue="0"/>
            <parameter index="1" name="mute" parameterValue="0"/>
          </component>
          <component componentGuid="623aa56e-0785-4286-960b-7a87afa0d3aa" componentID="Audition.StereoPanner" id="clipPan" name="StereoPanner" powered="true">
            <parameter index="0" name="Pan" parameterValue="0"/>
          </component>
          <fadeIn crossFadeLinkType="linkedAsymmetric" endPoint="12079" shape="18" startPoint="0" type="log"/>
          <fadeOut crossFadeLinkType="linkedAsymmetric" endPoint="131066" shape="19" startPoint="101597" type="log"/>
          <editParameter parameterIndex="0" slotIndex="4294967281"/>
          <editParameter parameterIndex="0" slotIndex="4294967280"/>
          <channelMap>
            <channel index="0" sourceIndex="0"/>
            <channel index="1" sourceIndex="1"/>
          </channelMap>
        </audioClip>
        <audioClip clipAutoCrossfade="true" crossFadeHeadClipID="77" crossFadeTailClipID="79" endPoint="2454047" fileID="66" hue="-1" id="78" lockedInTime="false" looped="false" name="123-1666.27-1723.02" offline="false" select="false" sourceInPoint="2413865" sourceOutPoint="2455370" startPoint="2412542" zOrder="75">
          <component componentGuid="e941c509-0397-4f0d-a63a-68b2774675be" componentID="Audition.Fader" id="clipGain" name="volume" powered="true">
            <parameter index="0" name="volume" parameterValue="1"/>
            <parameter index="1" name="static gain" parameterValue="1.995262622833251953125"/>
          </component>
          <component componentGuid="00bf782c-91b7-466a-b967-b64b2b463d0f" componentID="Audition.Mute" id="clipMute" name="Mute" powered="true">
            <parameter index="0" parameterValue="0"/>
            <parameter index="1" name="mute" parameterValue="0"/>
          </component>
          <component componentGuid="5a20a4fc-94ba-4c4f-9137-53c36090dd87" componentID="Audition.StereoPanner" id="clipPan" name="StereoPanner" powered="true">
            <parameter index="0" name="Pan" parameterValue="0"/>
          </component>
          <fadeIn crossFadeLinkType="linkedAsymmetric" endPoint="29469" shape="18" startPoint="0" type="log"/>
          <fadeOut crossFadeLinkType="linkedAsymmetric" endPoint="41505" shape="19" startPoint="38187" type="log"/>
          <editParameter parameterIndex="0" slotIndex="4294967281"/>
          <editParameter parameterIndex="0" slotIndex="4294967280"/>
          <channelMap>
            <channel index="0" sourceIndex="0"/>
            <channel index="1" sourceIndex="1"/>
          </channelMap>
        </audioClip>
        <audioClip clipAutoCrossfade="true" crossFadeHeadClipID="78" crossFadeTailClipID="-1" endPoint="2500518" fileID="18" hue="-1" id="79" lockedInTime="false" looped="false" name="26-1580.19-1636.91" offline="false" select="false" sourceInPoint="2451170" sourceOutPoint="2500959" startPoint="2450729" zOrder="76">
          <component componentGuid="a78ec697-e46d-4906-9c89-fa1aef612298" componentID="Audition.Fader" id="clipGain" name="volume" powered="true">
            <parameter index="0" name="volume" parameterValue="1"/>
            <parameter index="1" name="static gain" parameterValue="1.621809482574462890625"/>
          </component>
          <component componentGuid="067462a9-c0e3-4fa4-b897-284be5d2a74b" componentID="Audition.Mute" id="clipMute" name="Mute" powered="true">
            <parameter index="0" parameterValue="0"/>
            <parameter index="1" name="mute" parameterValue="0"/>
          </component>
          <component componentGuid="48bd60a3-2119-4eb0-ab3b-8280d46482d6" componentID="Audition.StereoPanner" id="clipPan" name="StereoPanner" powered="true">
            <parameter index="0" name="Pan" parameterValue="0"/>
          </component>
          <fadeIn crossFadeLinkType="linkedAsymmetric" endPoint="3318" shape="18" startPoint="0" type="log"/>
          <fadeOut crossFadeLinkType="linkedAsymmetric" endPoint="49789" shape="19" startPoint="47650" type="log"/>
          <editParameter parameterIndex="0" slotIndex="4294967281"/>
          <editParameter parameterIndex="0" slotIndex="4294967280"/>
          <channelMap>
            <channel index="0" sourceIndex="0"/>
            <channel index="1" sourceIndex="1"/>
          </channelMap>
        </audioClip>
      </audioTrack>
      <masterTrack automationLaneOpenState="false" id="10000" index="2" select="false" visible="true">
        <trackParameters trackHeight="134" trackHue="-1" trackMinimized="false">
          <name>Mix</name>
        </trackParameters>
        <trackAudioParameters audioChannelType="stereo" automationMode="1" monitoring="false" recordArmed="false" solo="false" soloSafe="true">
          <trackOutput outputID="1" type="hardwareOutput"/>
          <trackInput inputID="-1"/>
          <component componentGuid="9460a6f8-3f39-46c2-8555-6c401fe8fd9e" componentID="Audition.Fader" id="trackFader" name="volume" powered="true">
            <parameter index="0" name="volume" parameterValue="1"/>
            <parameter index="1" name="static gain" parameterValue="1"/>
          </component>
          <component componentGuid="f6b52783-efa2-4f55-aa35-b66abf949792" componentID="Audition.Mute" id="trackMute" name="Mute" powered="true">
            <parameter index="0" parameterValue="0"/>
            <parameter index="1" name="mute" parameterValue="0"/>
          </component>
          <component componentGuid="cc188ea6-b5c2-42c2-a5ab-951e7e360330" componentID="Audition.StereoPanner" id="trackPan" name="StereoPanner" powered="true">
            <parameter index="0" name="Pan" parameterValue="0"/>
          </component>
          <component componentGuid="f47a6422-e3fb-4ec3-a350-0a484cbb6e19" componentID="Audition.EQ" id="trackEQ" name="EQ" powered="false">
            <parameter index="0" name="Low Shelf Frequency" parameterValue="0.0009078529546968638896942138671875"/>
            <parameter index="1" name="Low Shelf Gain" parameterValue="0.5"/>
            <parameter index="2" name="High Shelf Frequency" parameterValue="0.816159784793853759765625"/>
            <parameter index="3" name="High Shelf Gain" parameterValue="0.5"/>
            <parameter index="4" name="EQ Band 1 Center Frequency" parameterValue="0.0013617794029414653778076171875"/>
            <parameter index="5" name="EQ Band 1 Q" parameterValue="0.000199989997781813144683837890625"/>
            <parameter index="6" name="EQ Band 1 Gain" parameterValue="0.5"/>
            <parameter index="7" name="EQ Band 1 Enable" parameterValue="1"/>
            <parameter index="8" name="EQ Band 2 Center Frequency" parameterValue="0.008170676417648792266845703125"/>
            <parameter index="9" name="EQ Band 2 Q" parameterValue="0.000199989997781813144683837890625"/>
            <parameter index="10" name="EQ Band 2 Gain" parameterValue="0.5"/>
            <parameter index="11" name="EQ Band 2 Enable" parameterValue="1"/>
            <parameter index="12" name="EQ Band 3 Center Frequency" parameterValue="0.0354062654078006744384765625"/>
            <parameter index="13" name="EQ Band 3 Q" parameterValue="0.000199989997781813144683837890625"/>
            <parameter index="14" name="EQ Band 3 Gain" parameterValue="0.5"/>
            <parameter index="15" name="EQ Band 3 Enable" parameterValue="1"/>
            <parameter index="16" name="EQ Band 4 Center Frequency" parameterValue="0.144348621368408203125"/>
            <parameter index="17" name="EQ Band 4 Q" parameterValue="0.000199989997781813144683837890625"/>
            <parameter index="18" name="EQ Band 4 Gain" parameterValue="0.5"/>
            <parameter index="19" name="EQ Band 4 Enable" parameterValue="1"/>
            <parameter index="20" name="EQ Band 5 Center Frequency" parameterValue="0.580118000507354736328125"/>
            <parameter index="21" name="EQ Band 5 Q" parameterValue="0.000199989997781813144683837890625"/>
            <parameter index="22" name="EQ Band 5 Gain" parameterValue="0.5"/>
            <parameter index="23" name="EQ Band 5 Enable" parameterValue="1"/>
            <parameter index="24" name="Gain" parameterValue="0.666666686534881591796875"/>
            <parameter index="25" name="ConstantQ" parameterValue="1"/>
            <parameter index="26" name="Low Shelf Filter Order" parameterValue="0"/>
            <parameter index="27" name="High Shelf Filter Order" parameterValue="0"/>
            <parameter index="28" name="Ultra-Quiet Mode" parameterValue="0"/>
            <parameter index="29" name="Low Shelf Enable" parameterValue="1"/>
            <parameter index="30" name="High Shelf Enable" parameterValue="1"/>
            <parameter index="31" name="Original Sample Rate" parameterValue="0.22968749701976776123046875"/>
            <parameter index="32" name="EQ Band 1 Bandwidth" parameterValue="0.002499990165233612060546875"/>
            <parameter index="33" name="EQ Band 2 Bandwidth" parameterValue="0.0099999904632568359375"/>
            <parameter index="34" name="EQ Band 3 Bandwidth" parameterValue="0.0399999916553497314453125"/>
            <parameter index="35" name="EQ Band 4 Bandwidth" parameterValue="0.15999998152256011962890625"/>
            <parameter index="36" name="EQ Band 5 Bandwidth" parameterValue="0.63999998569488525390625"/>
            <parameter index="37" name="High-Pass Filter Enable" parameterValue="0"/>
            <parameter index="38" name="High-Pass Cutoff Frequency" parameterValue="0"/>
            <parameter index="39" name="High-Pass Slope" parameterValue="0.4000000059604644775390625"/>
            <parameter index="40" name="Low-Pass Filter Enable" parameterValue="0"/>
            <parameter index="41" name="Low-Pass Cutoff Frequency" parameterValue="0.906945049762725830078125"/>
            <parameter index="42" name="Low-Pass Slope" parameterValue="0.4000000059604644775390625"/>
            <parameter index="43" name="Bypass" parameterValue="0"/>
            <parameter index="44" name="LowGraphRange" parameterValue="1"/>
          </component>
        </trackAudioParameters>
        <editParameter parameterIndex="0" slotIndex="4294967280"/>
      </masterTrack>
    </tracks>
    <sessionState ctiPosition="1284038" smpteStart="0">
      <selectionState selectionDuration="0" selectionStart="1284038"/>
      <viewState horizontalViewDuration="1465587" horizontalViewStart="1233863" trackControlsWidth="224" verticalScrollOffset="0"/>
      <timeFormatState beatsPerBar="4" beatsPerMinute="120" customFrameRate="12" linkToDefaultTimeSettings="true" noteLength="4" subdivisions="16" timeCodeDropFrame="false" timeCodeFrameRate="12" timeCodeNTSC="false" timeFormat="timeFormatDecimal"/>
      <mixingOptionState defaultPanModeLogarithmic="false" panPower="-3" playOverlappingClips="false"/>
    </sessionState>
    <xmpMetadata><![CDATA[<?xpacket begin="﻿" id="W5M0MpCehiHzreSzNTczkc9d"?>
<x:xmpmeta xmlns:x="adobe:ns:meta/" x:xmptk="Adobe XMP Core 7.1-c000 79.b0f8be9, 2021/12/08-19:11:22        ">
   <rdf:RDF xmlns:rdf="http://www.w3.org/1999/02/22-rdf-syntax-ns#">
      <rdf:Description rdf:about=""
            xmlns:xmp="http://ns.adobe.com/xap/1.0/"
            xmlns:xmpMM="http://ns.adobe.com/xap/1.0/mm/"
            xmlns:stEvt="http://ns.adobe.com/xap/1.0/sType/ResourceEvent#"
            xmlns:stRef="http://ns.adobe.com/xap/1.0/sType/ResourceRef#"
            xmlns:dc="http://purl.org/dc/elements/1.1/"
            xmlns:xmpDM="http://ns.adobe.com/xmp/1.0/DynamicMedia/">
         <xmp:CreatorTool>Adobe Audition 22.6 (Windows)</xmp:CreatorTool>
         <xmp:CreateDate>2024-12-05T20:34:17-06:00</xmp:CreateDate>
         <xmp:MetadataDate>2024-12-08T14:32:46-06:00</xmp:MetadataDate>
         <xmp:ModifyDate>2024-12-08T14:32:46-06:00</xmp:ModifyDate>
         <xmpMM:InstanceID>xmp.iid:803b1de0-1b07-a74d-82d2-767ba8c68107</xmpMM:InstanceID>
         <xmpMM:DocumentID>xmp.did:a204dcde-0f8e-5e4c-bc79-7c31c3f1a724</xmpMM:DocumentID>
         <xmpMM:OriginalDocumentID>xmp.did:6fd55a9d-5a87-e840-89d5-392a7d91e45c</xmpMM:OriginalDocumentID>
         <xmpMM:History>
            <rdf:Seq>
               <rdf:li rdf:parseType="Resource">
                  <stEvt:action>saved</stEvt:action>
                  <stEvt:instanceID>xmp.iid:6fd55a9d-5a87-e840-89d5-392a7d91e45c</stEvt:instanceID>
                  <stEvt:when>2024-12-05T20:34:17-06:00</stEvt:when>
                  <stEvt:softwareAgent>Adobe Audition 22.6 (Windows)</stEvt:softwareAgent>
                  <stEvt:changed>/metadata</stEvt:changed>
               </rdf:li>
               <rdf:li rdf:parseType="Resource">
                  <stEvt:action>saved</stEvt:action>
                  <stEvt:instanceID>xmp.iid:f1d069a4-f9d4-c94c-b289-66b29020c1f1</stEvt:instanceID>
                  <stEvt:when>2024-12-05T20:34:46-06:00</stEvt:when>
                  <stEvt:softwareAgent>Adobe Audition 22.6 (Windows)</stEvt:softwareAgent>
                  <stEvt:changed>/metadata</stEvt:changed>
               </rdf:li>
               <rdf:li rdf:parseType="Resource">
                  <stEvt:action>saved</stEvt:action>
                  <stEvt:instanceID>xmp.iid:db83d1ff-9e43-9c45-a38c-c25bacf3119b</stEvt:instanceID>
                  <stEvt:when>2024-12-05T20:34:46-06:00</stEvt:when>
                  <stEvt:softwareAgent>Adobe Audition 22.6 (Windows)</stEvt:softwareAgent>
                  <stEvt:changed>/</stEvt:changed>
               </rdf:li>
               <rdf:li rdf:parseType="Resource">
                  <stEvt:action>saved</stEvt:action>
                  <stEvt:instanceID>xmp.iid:f45c7f43-130f-3847-9932-2b70890b7c2a</stEvt:instanceID>
                  <stEvt:when>2024-12-05T20:35:07-06:00</stEvt:when>
                  <stEvt:softwareAgent>Adobe Audition 22.6 (Windows)</stEvt:softwareAgent>
                  <stEvt:changed>/metadata</stEvt:changed>
               </rdf:li>
               <rdf:li rdf:parseType="Resource">
                  <stEvt:action>saved</stEvt:action>
                  <stEvt:instanceID>xmp.iid:5bcd10b5-631f-8242-8fb4-6a4fc733cd2e</stEvt:instanceID>
                  <stEvt:when>2024-12-05T20:35:07-06:00</stEvt:when>
                  <stEvt:softwareAgent>Adobe Audition 22.6 (Windows)</stEvt:softwareAgent>
                  <stEvt:changed>/</stEvt:changed>
               </rdf:li>
               <rdf:li rdf:parseType="Resource">
                  <stEvt:action>saved</stEvt:action>
                  <stEvt:instanceID>xmp.iid:e7879b3e-fff9-9548-99b5-a3a263e70dec</stEvt:instanceID>
                  <stEvt:when>2024-12-05T20:41:47-06:00</stEvt:when>
                  <stEvt:softwareAgent>Adobe Audition 22.6 (Windows)</stEvt:softwareAgent>
                  <stEvt:changed>/metadata</stEvt:changed>
               </rdf:li>
               <rdf:li rdf:parseType="Resource">
                  <stEvt:action>saved</stEvt:action>
                  <stEvt:instanceID>xmp.iid:b04827f4-6805-d847-b9f1-e291b25bc2e6</stEvt:instanceID>
                  <stEvt:when>2024-12-05T20:41:47-06:00</stEvt:when>
                  <stEvt:softwareAgent>Adobe Audition 22.6 (Windows)</stEvt:softwareAgent>
                  <stEvt:changed>/</stEvt:changed>
               </rdf:li>
               <rdf:li rdf:parseType="Resource">
                  <stEvt:action>saved</stEvt:action>
                  <stEvt:instanceID>xmp.iid:66d3c1c7-f9cf-ab43-8af5-3c3f0b6fd100</stEvt:instanceID>
                  <stEvt:when>2024-12-05T20:42:10-06:00</stEvt:when>
                  <stEvt:softwareAgent>Adobe Audition 22.6 (Windows)</stEvt:softwareAgent>
                  <stEvt:changed>/metadata</stEvt:changed>
               </rdf:li>
               <rdf:li rdf:parseType="Resource">
                  <stEvt:action>saved</stEvt:action>
                  <stEvt:instanceID>xmp.iid:c4bb3700-3127-994e-aa13-94a5d7ababe1</stEvt:instanceID>
                  <stEvt:when>2024-12-05T20:42:10-06:00</stEvt:when>
                  <stEvt:softwareAgent>Adobe Audition 22.6 (Windows)</stEvt:softwareAgent>
                  <stEvt:changed>/</stEvt:changed>
               </rdf:li>
               <rdf:li rdf:parseType="Resource">
                  <stEvt:action>saved</stEvt:action>
                  <stEvt:instanceID>xmp.iid:71115977-8b1d-c24b-a092-4df6f65172c5</stEvt:instanceID>
                  <stEvt:when>2024-12-05T20:43:32-06:00</stEvt:when>
                  <stEvt:softwareAgent>Adobe Audition 22.6 (Windows)</stEvt:softwareAgent>
                  <stEvt:changed>/metadata</stEvt:changed>
               </rdf:li>
               <rdf:li rdf:parseType="Resource">
                  <stEvt:action>saved</stEvt:action>
                  <stEvt:instanceID>xmp.iid:fb4b7a46-79d0-174b-9ecf-3f12681e05d2</stEvt:instanceID>
                  <stEvt:when>2024-12-05T20:43:32-06:00</stEvt:when>
                  <stEvt:softwareAgent>Adobe Audition 22.6 (Windows)</stEvt:softwareAgent>
                  <stEvt:changed>/</stEvt:changed>
               </rdf:li>
               <rdf:li rdf:parseType="Resource">
                  <stEvt:action>saved</stEvt:action>
                  <stEvt:instanceID>xmp.iid:f836395b-d424-514b-bdd0-b4658b4cb172</stEvt:instanceID>
                  <stEvt:when>2024-12-05T20:51:21-06:00</stEvt:when>
                  <stEvt:softwareAgent>Adobe Audition 22.6 (Windows)</stEvt:softwareAgent>
                  <stEvt:changed>/metadata</stEvt:changed>
               </rdf:li>
               <rdf:li rdf:parseType="Resource">
                  <stEvt:action>saved</stEvt:action>
                  <stEvt:instanceID>xmp.iid:a204dcde-0f8e-5e4c-bc79-7c31c3f1a724</stEvt:instanceID>
                  <stEvt:when>2024-12-05T20:51:21-06:00</stEvt:when>
                  <stEvt:softwareAgent>Adobe Audition 22.6 (Windows)</stEvt:softwareAgent>
                  <stEvt:changed>/</stEvt:changed>
               </rdf:li>
               <rdf:li rdf:parseType="Resource">
                  <stEvt:action>saved</stEvt:action>
                  <stEvt:instanceID>xmp.iid:3403aa5d-e793-8346-a385-c26e99ea6586</stEvt:instanceID>
                  <stEvt:when>2024-12-05T21:04:03-06:00</stEvt:when>
                  <stEvt:softwareAgent>Adobe Audition 22.6 (Windows)</stEvt:softwareAgent>
                  <stEvt:changed>/metadata</stEvt:changed>
               </rdf:li>
               <rdf:li rdf:parseType="Resource">
                  <stEvt:action>saved</stEvt:action>
                  <stEvt:instanceID>xmp.iid:dbaa6cd5-0e55-9b45-975d-59a7c1eb6de5</stEvt:instanceID>
                  <stEvt:when>2024-12-05T21:04:03-06:00</stEvt:when>
                  <stEvt:softwareAgent>Adobe Audition 22.6 (Windows)</stEvt:softwareAgent>
                  <stEvt:changed>/</stEvt:changed>
               </rdf:li>
               <rdf:li rdf:parseType="Resource">
                  <stEvt:action>saved</stEvt:action>
                  <stEvt:instanceID>xmp.iid:0ef570e9-6215-d44a-90f6-ece8b386a6bd</stEvt:instanceID>
                  <stEvt:when>2024-12-08T14:32:46-06:00</stEvt:when>
                  <stEvt:softwareAgent>Adobe Audition 22.6 (Windows)</stEvt:softwareAgent>
                  <stEvt:changed>/metadata</stEvt:changed>
               </rdf:li>
               <rdf:li rdf:parseType="Resource">
                  <stEvt:action>saved</stEvt:action>
                  <stEvt:instanceID>xmp.iid:803b1de0-1b07-a74d-82d2-767ba8c68107</stEvt:instanceID>
                  <stEvt:when>2024-12-08T14:32:46-06:00</stEvt:when>
                  <stEvt:softwareAgent>Adobe Audition 22.6 (Windows)</stEvt:softwareAgent>
                  <stEvt:changed>/</stEvt:changed>
               </rdf:li>
            </rdf:Seq>
         </xmpMM:History>
         <xmpMM:DerivedFrom rdf:parseType="Resource">
            <stRef:instanceID>xmp.iid:f836395b-d424-514b-bdd0-b4658b4cb172</stRef:instanceID>
            <stRef:documentID>xmp.did:fb4b7a46-79d0-174b-9ecf-3f12681e05d2</stRef:documentID>
            <stRef:originalDocumentID>xmp.did:6fd55a9d-5a87-e840-89d5-392a7d91e45c</stRef:originalDocumentID>
         </xmpMM:DerivedFrom>
         <dc:format>application/xml</dc:format>
         <xmpDM:Tracks>
            <rdf:Bag>
               <rdf:li rdf:parseType="Resource">
                  <xmpDM:trackName>CuePoint Markers</xmpDM:trackName>
                  <xmpDM:trackType>Cue</xmpDM:trackType>
                  <xmpDM:frameRate>f44100</xmpDM:frameRate>
               </rdf:li>
               <rdf:li rdf:parseType="Resource">
                  <xmpDM:trackName>CD Track Markers</xmpDM:trackName>
                  <xmpDM:trackType>Track</xmpDM:trackType>
                  <xmpDM:frameRate>f44100</xmpDM:frameRate>
               </rdf:li>
               <rdf:li rdf:parseType="Resource">
                  <xmpDM:trackName>Subclip Markers</xmpDM:trackName>
                  <xmpDM:trackType>InOut</xmpDM:trackType>
                  <xmpDM:frameRate>f44100</xmpDM:frameRate>
               </rdf:li>
            </rdf:Bag>
         </xmpDM:Tracks>
      </rdf:Description>
   </rdf:RDF>
</x:xmpmeta>
                                                                                                    
                                                                                                    
                                                                                                    
                                                                                                    
                                                                                                    
                                                                                                    
                                                                                                    
                                                                                                    
                                                                                                    
                                                                                                    
                                                                                                    
                                                                                                    
                                                                                                    
                                                                                                    
                                                                                                    
                                                                                                    
                                                                                                    
                                                                                                    
                                                                                                    
                                                                                                    
                           
<?xpacket end="w"?>]]></xmpMetadata>
    <clipGroups/>
    <metronome enabled="false" pattern="downBeat subdivision subdivision subdivision " soundSet="sticks">
      <metronomeTrack automationLaneOpenState="false" id="40000" index="0" select="false" visible="false">
        <trackParameters trackHeight="77" trackHue="-1" trackMinimized="false">
          <name>Metronome</name>
        </trackParameters>
        <trackAudioParameters audioChannelType="mono" automationMode="1" monitoring="false" recordArmed="false" solo="false" soloSafe="true">
          <trackOutput outputID="10000" type="trackID"/>
          <trackInput inputID="-1"/>
          <component componentGuid="faa75d0b-8979-497f-a1fd-91ac6b96967f" componentID="Audition.Fader" id="trackFader" name="volume" powered="true">
            <parameter index="0" name="volume" parameterValue="0.50118720531463623046875"/>
            <parameter index="1" name="static gain" parameterValue="1"/>
          </component>
          <component componentGuid="85910be7-97f6-41a9-bbd1-2fff38109ead" componentID="Audition.Mute" id="trackMute" name="Mute" powered="true">
            <parameter index="0" parameterValue="0"/>
            <parameter index="1" name="mute" parameterValue="0"/>
          </component>
          <component componentGuid="870d94a5-77ab-43cb-8b63-a22f1d08d443" componentID="Audition.StereoPanner" id="trackPan" name="StereoPanner" powered="true">
            <parameter index="0" name="Pan" parameterValue="0"/>
          </component>
          <component componentGuid="10bfb417-e0b8-40bf-9e4e-ff2a5aa85dc9" componentID="Audition.EQ" id="trackEQ" name="EQ" powered="false">
            <parameter index="0" name="Low Shelf Frequency" parameterValue="0.0009078529546968638896942138671875"/>
            <parameter index="1" name="Low Shelf Gain" parameterValue="0.5"/>
            <parameter index="2" name="High Shelf Frequency" parameterValue="0.816159784793853759765625"/>
            <parameter index="3" name="High Shelf Gain" parameterValue="0.5"/>
            <parameter index="4" name="EQ Band 1 Center Frequency" parameterValue="0.0013617794029414653778076171875"/>
            <parameter index="5" name="EQ Band 1 Q" parameterValue="0.000199989997781813144683837890625"/>
            <parameter index="6" name="EQ Band 1 Gain" parameterValue="0.5"/>
            <parameter index="7" name="EQ Band 1 Enable" parameterValue="1"/>
            <parameter index="8" name="EQ Band 2 Center Frequency" parameterValue="0.008170676417648792266845703125"/>
            <parameter index="9" name="EQ Band 2 Q" parameterValue="0.000199989997781813144683837890625"/>
            <parameter index="10" name="EQ Band 2 Gain" parameterValue="0.5"/>
            <parameter index="11" name="EQ Band 2 Enable" parameterValue="1"/>
            <parameter index="12" name="EQ Band 3 Center Frequency" parameterValue="0.0354062654078006744384765625"/>
            <parameter index="13" name="EQ Band 3 Q" parameterValue="0.000199989997781813144683837890625"/>
            <parameter index="14" name="EQ Band 3 Gain" parameterValue="0.5"/>
            <parameter index="15" name="EQ Band 3 Enable" parameterValue="1"/>
            <parameter index="16" name="EQ Band 4 Center Frequency" parameterValue="0.144348621368408203125"/>
            <parameter index="17" name="EQ Band 4 Q" parameterValue="0.000199989997781813144683837890625"/>
            <parameter index="18" name="EQ Band 4 Gain" parameterValue="0.5"/>
            <parameter index="19" name="EQ Band 4 Enable" parameterValue="1"/>
            <parameter index="20" name="EQ Band 5 Center Frequency" parameterValue="0.580118000507354736328125"/>
            <parameter index="21" name="EQ Band 5 Q" parameterValue="0.000199989997781813144683837890625"/>
            <parameter index="22" name="EQ Band 5 Gain" parameterValue="0.5"/>
            <parameter index="23" name="EQ Band 5 Enable" parameterValue="1"/>
            <parameter index="24" name="Gain" parameterValue="0.666666686534881591796875"/>
            <parameter index="25" name="ConstantQ" parameterValue="1"/>
            <parameter index="26" name="Low Shelf Filter Order" parameterValue="0"/>
            <parameter index="27" name="High Shelf Filter Order" parameterValue="0"/>
            <parameter index="28" name="Ultra-Quiet Mode" parameterValue="0"/>
            <parameter index="29" name="Low Shelf Enable" parameterValue="1"/>
            <parameter index="30" name="High Shelf Enable" parameterValue="1"/>
            <parameter index="31" name="Original Sample Rate" parameterValue="0.22968749701976776123046875"/>
            <parameter index="32" name="EQ Band 1 Bandwidth" parameterValue="0.002499990165233612060546875"/>
            <parameter index="33" name="EQ Band 2 Bandwidth" parameterValue="0.0099999904632568359375"/>
            <parameter index="34" name="EQ Band 3 Bandwidth" parameterValue="0.0399999916553497314453125"/>
            <parameter index="35" name="EQ Band 4 Bandwidth" parameterValue="0.15999998152256011962890625"/>
            <parameter index="36" name="EQ Band 5 Bandwidth" parameterValue="0.63999998569488525390625"/>
            <parameter index="37" name="High-Pass Filter Enable" parameterValue="0"/>
            <parameter index="38" name="High-Pass Cutoff Frequency" parameterValue="0"/>
            <parameter index="39" name="High-Pass Slope" parameterValue="0.4000000059604644775390625"/>
            <parameter index="40" name="Low-Pass Filter Enable" parameterValue="0"/>
            <parameter index="41" name="Low-Pass Cutoff Frequency" parameterValue="0.906945049762725830078125"/>
            <parameter index="42" name="Low-Pass Slope" parameterValue="0.4000000059604644775390625"/>
            <parameter index="43" name="Bypass" parameterValue="0"/>
            <parameter index="44" name="LowGraphRange" parameterValue="1"/>
          </component>
        </trackAudioParameters>
        <editParameter parameterIndex="0" slotIndex="4294967280"/>
      </metronomeTrack>
    </metronome>
    <properties>
      <property key="EssentialSoundConfigurations">[{"Guid":"a8b40e3e-13e7-4c1f-b382-96058f1f691d","Name":"$$$/app/Presets/DefaultPresetName=(Default)","PresetData":{"ModeID":"ambience","Models":{"model_ducking":{},"model_loudness":{"DefaultLoudness":{"type":"float","value":-30},"LoudnessStandard":{"type":"std::uint32_t","value":0},"MaxLoudness":{"type":"float","value":-12},"MinLoudness":{"type":"float","value":-42}},"model_soundeffects":{"ReverbPresets":{"type":"tree::any","value":{"$$$/app/Presets/EssentialSound/ReverbPreset/LargeRoomAmbience=Large Room Ambience":{"type":"array::float","value":[0.051507499068975449,0.32432401180267334,0.29292899370193481,0.30000001192092896,0.20000000298023224,0,0.14285700023174286,0.40000000596046448,0.5,0.69999998807907104,0.30000001192092896,0.25125628709793091,0.03125]},"$$$/app/Presets/EssentialSound/ReverbPreset/OutsideAmbience=Outside Ambience":{"type":"array::float","value":[0.091708503663539886,0.043893899768590927,1,0.5,0.20000000298023224,0.80000001192092896,0.18367299437522888,1,0.5,0,0.80000001192092896,0.25125628709793091,0.03125]},"$$$/app/Presets/EssentialSound/ReverbPreset/RoomAmbience=Room Ambience":{"type":"array::float","value":[0.057788901031017303,0.44944900274276733,0.49494898319244385,0.89999997615814209,0.10000000149011612,0.15000000596046448,0.081632703542709351,0.40000000596046448,0.5,0.80000001192092896,0.20000000298023224,0.25125628709793091,0.03125]},"$$$/app/Presets/EssentialSound/ReverbPreset/WindEffect=Wind Effect":{"type":"array::float","value":[0.19597999751567841,0.6896899938583374,0.69696998596191406,0.25,0.5,0.5,0.23469400405883789,0.51999998092651367,0.5,0.75,0.25,0.25125628709793091,0.03125]}}}},"model_stereowidth":{},"model_volume":{"MaxGain":{"type":"float","value":15},"MinGain":{"type":"float","value":-60}}},"Version":1},"Type":"1c19ca71-c24c-49cd-8dd5-2cc46018507a","Version":1},{"Guid":"58dc27a8-6a2a-480c-bd0c-4b45fff346a6","Name":"$$$/app/Presets/DefaultPresetName=(Default)","PresetData":{"ModeID":"dialog","Models":{"model_clarity":{"EQPresets":{"type":"tree::any","value":{"$$$/app/Presets/EssentialSound/EQPreset/BackgroundVoice=Background Voice":{"type":"array::float","value":[0.12099699676036835,0.5,0.39240506291389465,0,0.5,0.5,0.5,0.5,0.5,0.47827938199043274,0.45772689580917358,0.45778733491897583,0.47946760058403015,0.5,0]},"$$$/app/Presets/EssentialSound/EQPreset/Intercom=Intercom":{"type":"array::float","value":[0.19432899355888367,0.5,1,0,0.071499988436698914,0.071499988436698914,0.071499988436698914,0.40238627791404724,0.48571401834487915,0.5,0.55155748128890991,0.59602576494216919,0.22246670722961426,0.071499988436698914,0]},"$$$/app/Presets/EssentialSound/EQPreset/LockedInTheTrunk=Locked in the Trunk":{"type":"array::float","value":[0.12099699676036835,0.5,0.79746836423873901,0,0.5,0.5,0.5,0.5,0.5,0.32846158742904663,0.15721426904201508,0.15721426904201508,0.15721426904201508,0.15721426904201508,0]},"$$$/app/Presets/EssentialSound/EQPreset/OldRadio=Old Radio":{"type":"array::float","value":[0.12099699676036835,0.5,0.79746836423873901,0,0.15721426904201508,0.15721426904201508,0.15721426904201508,0.28442040085792542,0.48315632343292236,0.36498492956161499,0.52853888273239136,0.43511500954627991,0.27154684066772461,0.15721426904201508,0]},"$$$/app/Presets/EssentialSound/EQPreset/OnTheTelephone=On the Telephone":{"type":"array::float","value":[0.12099699676036835,0.5,0.39240506291389465,0,0.32864287495613098,0.32864287495613098,0.32864287495613098,0.32864287495613098,0.48571401834487915,0.53071397542953491,0.53071397542953491,0.48357096314430237,0.32864287495613098,0.32864287495613098,0]},"$$$/app/Presets/EssentialSound/EQPreset/OutsideOfTheRoom=Outside of the Room":{"type":"array::float","value":[0.12099699676036835,0.5,0.79746836423873901,0,0.42539370059967041,0.47865453362464905,0.5,0.5,0.48571401834487915,0.40073278546333313,0.25656309723854065,0.15721426904201508,0.15721426904201508,0.15721426904201508,0]},"$$$/app/Presets/EssentialSound/EQPreset/PodcastVoice=Podcast Voice":{"type":"array::float","value":[0.12099699676036835,0.5,0.39240506291389465,0,0.5,0.5,0.5,0.51789408922195435,0.50770342350006104,0.5,0.51789408922195435,0.528114914894104,0.5102812647819519,0.5,0]},"$$$/app/Presets/EssentialSound/EQPreset/SubtleBoostFemale=Subtle Boost (Female)":{"type":"array::float","value":[0.096553400158882141,0.5,0.29113924503326416,0,0.5,0.5,0.5,0.5,0.5,0.51933407783508301,0.54642897844314575,0.52706766128540039,0.5,0.5,0]},"$$$/app/Presets/EssentialSound/EQPreset/SubtleBoostMale=Subtle Boost (Male)":{"type":"array::float","value":[0.096553400158882141,0.5,0.29113924503326416,0,0.5,0.5,0.5,0.5,0.5,0.5135338306427002,0.54642897844314575,0.51933407783508301,0.5,0.5,0]},"$$$/app/Presets/EssentialSound/EQPreset/ThatPublicRadioSound=That Public Radio Sound":{"type":"array::float","value":[0.12099699676036835,0.5,0.79746836423873901,0,0.15721426904201508,0.15721426904201508,0.15721426904201508,0.36334344744682312,0.49468311667442322,0.5,0.5,0.5,0.5,0.5,0]},"$$$/app/Presets/EssentialSound/EQPreset/VocalPresence=Vocal Presence":{"type":"array::float","value":[0.096553400158882141,0.5,0.32489451766014099,0,0.3572143018245697,0.3572143018245697,0.46428570151329041,0.47857141494750977,0.4763694703578949,0.49570354819297791,0.55924957990646362,0.56523394584655762,0.50859290361404419,0.46992480754852295,0]}}}},"model_loudness":{"DefaultLoudness":{"type":"float","value":-23},"LoudnessStandard":{"type":"std::uint32_t","value":0},"MaxLoudness":{"type":"float","value":-12},"MinLoudness":{"type":"float","value":-42}},"model_restoration":{"ReduceNoiseMaxSetting":{"type":"array::float","value":[1,0,0,0,0]},"ReduceNoiseMinSetting":{"type":"array::float","value":[0,0,0,0,0]},"ReduceReverbMaxSetting":{"type":"array::float","value":[1,0,1,0,0]},"ReduceReverbMinSetting":{"type":"array::float","value":[0,0,1,0,0]},"ReduceRumbleMaxSetting":{"type":"array::float","value":[1,0.061583578586578369,0.375,0,0,0.00083333335351198912,1,0,1,0.0390625,0.00083408987848088145,0,0.0041666668839752674,0.00022554649331141263,0.0046875001862645149,0.75,0.0052083334885537624,0.75,1,0.75,0.0040520834736526012,0.75,0.0042629167437553406,0.00022554649331141263,0.0064883334562182426,0.00022554649331141263,0.006866666954010725,0.75,0.0071704164147377014,0.00022554649331141263,0.01041458360850811,0.00022554649331141263,0.010900000110268593,0.75,0.011407917365431786,0.00022554649331141263,0.015606249682605267,0.00022554649331141263,0.016333334147930145,0.75,0.017094582319259644,0.00022554649331141263,0.026243748143315315,0.00022554649331141263,0.0274666678160429,0.75,0.028746666386723518,0.00022554649331141263,0.041658751666545868,0.00022554649331141263,0.043600000441074371,0.75,0.045631669461727142,0.00022554649331141263,0.062424581497907639,0.00022554649331141263,0.065333336591720581,0.75,0.068377502262592316,0.00022554649331141263,0.10497540980577469,0.00022554649331141263,0.1098666712641716,0.75,0.11498583108186722,0.00022554649331141263,0.16663584113121033,0.00022554649331141263,0.17440000176429749,0.75,0.18252624571323395,0.00022554649331141263,0.91874998807907104,0.00022554649331141263,1,0.00022554649331141263,0,0,0,0,0,0,0,0,0,0,0,0,0,0,0,0,0,0,0,0,0,0,0,0,0,0,0,0,0,0,0,0,0,0,0,0,0,0,0,0,0,0,0,0,0,0,0,0,0,0,0,0,0,0,0,0,0,0,0,0,0,0,0,0,0,0,0,0,0,0,0,0,0,0,0,0,0,0,0,0,0,0,0,0,0,0,0,0,0,0,0,0,0,0,0,0,0,0,0,0,0,0,0,0,0,0,0,0,0,0,0,0,0,0,0,0,0,0,0,0,0,0,0,0,0,0,0,0,0,0,0,0,0,0,0,0,0,0,0,0,0,0,0,0,0,0,0,0,0,0,0,0,0,0,0,0,0,0,0,0,0,0,0,0,0,0,0,0,0,0,0,0,0,0,0,0,0,0,0,0,0,0,0,0,0,0,0,0,0,0]},"ReduceRumbleMinSetting":{"type":"array::float","value":[1,0.061583578586578369,0.375,0,0,0.00083333335351198912,1,0,1,0.0390625,0.00083408987848088145,0.75,0.0041666668839752674,0.75,0.0046875001862645149,0.75,0.0052083334885537624,0.75,1,0.75,0.91874998807907104,0.61237245798110962,1,0.61237245798110962,0,0,0,0,0,0,0,0,0,0,0,0,0,0,0,0,0,0,0,0,0,0,0,0,0,0,0,0,0,0,0,0,0,0,0,0,0,0,0,0,0,0,0,0,0,0,0,0,0,0,0,0,0,0,0,0,0,0,0,0,0,0,0,0,0,0,0,0,0,0,0,0,0,0,0,0,0,0,0,0,0,0,0,0,0,0,0,0,0,0,0,0,0,0,0,0,0,0,0,0,0,0,0,0,0,0,0,0,0,0,0,0,0,0,0,0,0,0,0,0,0,0,0,0,0,0,0,0,0,0,0,0,0,0,0,0,0,0,0,0,0,0,0,0,0,0,0,0,0,0,0,0,0,0,0,0,0,0,0,0,0,0,0,0,0,0,0,0,0,0,0,0,0,0,0,0,0,0,0,0,0,0,0,0,0,0,0,0,0,0,0,0,0,0,0,0,0,0,0,0,0,0,0,0,0,0,0,0,0,0,0,0,0,0,0,0,0,0,0,0,0,0,0,0,0,0,0,0,0,0,0,0,0,0,0,0,0,0,0,0,0,0]},"ReduceSibilanceMaxSetting":{"type":"array::float","value":[0.5,0.19983997941017151,0.18367347121238708,0.26086956262588501,0.52702701091766357,0,1,0,0,0,0,0.75,1,1,0.40000000596046448]},"ReduceSibilanceMinSetting":{"type":"array::float","value":[0.875,0.19983997941017151,0.18367347121238708,0.19130434095859528,0.25675675272941589,0,1,0,0,0,0,0.75,1,1,0.40000000596046448]}},"model_soundeffects":{"ReverbPresets":{"type":"tree::any","value":{"$$$/app/Presets/EssentialSound/ReverbPreset/Auditorium=Auditorium":{"type":"array::float","value":[0.013047545216977596,0.15895412862300873,1,0.89999997615814209,0,0.52007436752319336,0.41663265228271484,0.46000000834465027,0.5,0.73000001907348633,0.15999999642372131,0.75376886129379272,0.03125]},"$$$/app/Presets/EssentialSound/ReverbPreset/Church=Church":{"type":"array::float","value":[0.032663315534591675,0.39939939975738525,0.79797977209091187,0.25,0.5,0.5,0.2297959178686142,0.72000002861022949,0.5,0.62999999523162842,0.87999999523162842,0.25125628709793091,0.03125]},"$$$/app/Presets/EssentialSound/ReverbPreset/LargeReflectiveRoom=Large Reflective Room":{"type":"array::float","value":[0.0074449013918638229,0.098988421261310577,0.79890537261962891,0.89999997615814209,0.10000000149011612,0.40110713243484497,0.060284845530986786,0.27522978186607361,0.5,0.73000001907348633,0.31999999284744263,0.25125628709793091,0.03125]},"$$$/app/Presets/EssentialSound/ReverbPreset/OutsideTheClub=Outside the Club":{"type":"array::float","value":[0.020615793764591217,0.050136558711528778,0.69696998596191406,0.25,0.094355784356594086,0.22242647409439087,0.1071428582072258,0.2800000011920929,0.5,0.73000001907348633,0.46000000834465027,0.25125628709793091,0.03125]},"$$$/app/Presets/EssentialSound/ReverbPreset/SmallDryRoom=Small Dry Room":{"type":"array::float","value":[0.24623115360736847,0.69975000619888306,0.29292899370193481,0.40000000596046448,0.20000000298023224,0.40000000596046448,0.039285715669393539,0.10000000149011612,0.5,1,0.5,0.75376886129379272,0.03125]},"$$$/app/Presets/EssentialSound/ReverbPreset/ThickenVoice=Thicken Voice":{"type":"array::float","value":[0.19597999751567841,0.23931467533111572,0.69696998596191406,0.25,0.5,0.53999996185302734,0.020408162847161293,0.20945435762405396,0.5,1,0.34999999403953552,0.25125628709793091,0.03125]},"$$$/app/Presets/EssentialSound/ReverbPreset/WarmRoom=Warm Room":{"type":"array::float","value":[0.020100502297282219,0.074074074625968933,0.49494948983192444,0.40000000596046448,0.74960309267044067,0.40000000596046448,0.1239795908331871,0.67000001668930054,0.5,0.85000002384185791,0.56000000238418579,0.25125628709793091,0.03125]},"$$$/app/Presets/EssentialSound/ReverbPreset/WarmVoice=Warm Voice":{"type":"array::float","value":[0.19597989320755005,0.89989989995956421,0,0.40000000596046448,0.20000000298023224,0.40000000596046448,0.10204081982374191,0.090000003576278687,0.5,1,0.30000001192092896,0.25125628709793091,0.03125]}}}},"model_volume":{"MaxGain":{"type":"float","value":15},"MinGain":{"type":"float","value":-60}}},"Version":2},"Type":"1c19ca71-c24c-49cd-8dd5-2cc46018507a","Version":1},{"Guid":"353811fa-4179-435e-8e5e-23028ba15a7a","Name":"$$$/app/Presets/DefaultPresetName=(Default)","PresetData":{"ModeID":"generic","Models":{"model_loudness":{"DefaultLoudness":{"type":"float","value":-24},"LoudnessStandard":{"type":"std::uint32_t","value":0},"MaxLoudness":{"type":"float","value":-12},"MinLoudness":{"type":"float","value":-42}},"model_volume":{"MaxGain":{"type":"float","value":15},"MinGain":{"type":"float","value":-60}}},"Version":1},"Type":"1c19ca71-c24c-49cd-8dd5-2cc46018507a","Version":1},{"Guid":"31ba96a6-5d3e-4d89-b1e1-1dbe3c055d0c","Name":"$$$/app/Presets/DefaultPresetName=(Default)","PresetData":{"ModeID":"music","Models":{"model_ducking":{},"model_duration":{},"model_loudness":{"DefaultLoudness":{"type":"float","value":-25},"LoudnessStandard":{"type":"std::uint32_t","value":0},"MaxLoudness":{"type":"float","value":-12},"MinLoudness":{"type":"float","value":-42}},"model_volume":{"MaxGain":{"type":"float","value":15},"MinGain":{"type":"float","value":-60}}},"Version":1},"Type":"1c19ca71-c24c-49cd-8dd5-2cc46018507a","Version":1},{"Guid":"cea63332-1adc-44a9-a6eb-5490f965859b","Name":"$$$/app/Presets/DefaultPresetName=(Default)","PresetData":{"ModeID":"sfx","Models":{"model_loudness":{"DefaultLoudness":{"type":"float","value":-21},"LoudnessStandard":{"type":"std::uint32_t","value":0},"MaxLoudness":{"type":"float","value":-12},"MinLoudness":{"type":"float","value":-42}},"model_pan":{},"model_soundeffects":{"ReverbPresets":{"type":"tree::any","value":{"$$$/app/Presets/EssentialSound/ReverbPreset/HeavyReverb=Heavy Reverb":{"type":"array::float","value":[0.13316600024700165,0.29929900169372559,1,0.95999997854232788,0.85000002384185791,0.5,0.51530599594116211,0.30000001192092896,0.5,0.5,0.5,0.25125628709793091,0.0625]},"$$$/app/Presets/EssentialSound/ReverbPreset/LightReverb=Light Reverb":{"type":"array::float","value":[0.095477402210235596,0.29929900169372559,0.090909101068973541,1,1,0.80000001192092896,0.22449000179767609,0.60000002384185791,0.5,0.69999998807907104,0.30000001192092896,0.25125628709793091,0.0625]},"$$$/app/Presets/EssentialSound/ReverbPreset/OutsideReverb=Outside Reverb":{"type":"array::float","value":[0.091708503663539886,0.043893899768590927,1,0.5,0.20000000298023224,0.80000001192092896,0.18367299437522888,1,0.5,0,0.80000001192092896,0.25125628709793091,0.0625]},"$$$/app/Presets/EssentialSound/ReverbPreset/RoomReverb=Room Reverb":{"type":"array::float","value":[0.057788901031017303,0.44944900274276733,0.49494898319244385,0.89999997615814209,0.10000000149011612,0.15000000596046448,0.081632703542709351,0.40000000596046448,0.5,0.80000001192092896,0.20000000298023224,0.25125628709793091,0.0625]}}}},"model_volume":{"MaxGain":{"type":"float","value":15},"MinGain":{"type":"float","value":-60}}},"Version":1},"Type":"1c19ca71-c24c-49cd-8dd5-2cc46018507a","Version":1}]</property>
    </properties>
  </session>

  <files>
    <file absolutePath="C:\Users\mitin\OneDrive\Desktop\spravka\spravka_CopiedFiles\61-974.017-1006.06.mp3" id="0" importerPrivateSettings="BitsPerSecond:0:192000;CompressionQuality:0:4;CompressionType:0:0;Encoder:0:1181239072;" mediaHandler="AmioMP3" relativePath="spravka_CopiedFiles/61-974.017-1006.06.mp3"/>
    <file absolutePath="C:\Users\mitin\OneDrive\Desktop\spravka\spravka_CopiedFiles\29-1056.37-1085.66.mp3" id="1" importerPrivateSettings="BitsPerSecond:0:192000;CompressionQuality:0:4;CompressionType:0:0;Encoder:0:1181239072;" mediaHandler="AmioMP3" relativePath="spravka_CopiedFiles/29-1056.37-1085.66.mp3"/>
    <file absolutePath="C:\Users\mitin\OneDrive\Desktop\spravka\spravka_CopiedFiles\42-1432.53-1457.36.mp3" id="2" importerPrivateSettings="BitsPerSecond:0:192000;CompressionQuality:0:4;CompressionType:0:0;Encoder:0:1181239072;" mediaHandler="AmioMP3" relativePath="spravka_CopiedFiles/42-1432.53-1457.36.mp3"/>
    <file absolutePath="C:\Users\mitin\OneDrive\Desktop\spravka\spravka_CopiedFiles\111-1307.18-1321.43.mp3" id="3" importerPrivateSettings="BitsPerSecond:0:192000;CompressionQuality:0:4;CompressionType:0:0;Encoder:0:1181239072;" mediaHandler="AmioMP3" relativePath="spravka_CopiedFiles/111-1307.18-1321.43.mp3"/>
    <file absolutePath="C:\Users\mitin\OneDrive\Desktop\spravka\spravka_CopiedFiles\75-956.034-973.303.mp3" id="4" importerPrivateSettings="BitsPerSecond:0:192000;CompressionQuality:0:4;CompressionType:0:0;Encoder:0:1181239072;" mediaHandler="AmioMP3" relativePath="spravka_CopiedFiles/75-956.034-973.303.mp3"/>
    <file absolutePath="C:\Users\mitin\OneDrive\Desktop\spravka\spravka_CopiedFiles\65-206.796-233.151.mp3" id="5" importerPrivateSettings="BitsPerSecond:0:192000;CompressionQuality:0:4;CompressionType:0:0;Encoder:0:1181239072;" mediaHandler="AmioMP3" relativePath="spravka_CopiedFiles/65-206.796-233.151.mp3"/>
    <file absolutePath="C:\Users\mitin\OneDrive\Desktop\spravka\spravka_CopiedFiles\107-1630.04-1670.58.mp3" id="6" importerPrivateSettings="BitsPerSecond:0:192000;CompressionQuality:0:4;CompressionType:0:0;Encoder:0:1181239072;" mediaHandler="AmioMP3" relativePath="spravka_CopiedFiles/107-1630.04-1670.58.mp3"/>
    <file absolutePath="C:\Users\mitin\OneDrive\Desktop\spravka\spravka_CopiedFiles\87-304.091-320.073.mp3" id="7" importerPrivateSettings="BitsPerSecond:0:192000;CompressionQuality:0:4;CompressionType:0:0;Encoder:0:1181239072;" mediaHandler="AmioMP3" relativePath="spravka_CopiedFiles/87-304.091-320.073.mp3"/>
    <file absolutePath="C:\Users\mitin\OneDrive\Desktop\spravka\spravka_CopiedFiles\41-2247.06-2290.1.mp3" id="8" importerPrivateSettings="BitsPerSecond:0:192000;CompressionQuality:0:4;CompressionType:0:0;Encoder:0:1181239072;" mediaHandler="AmioMP3" relativePath="spravka_CopiedFiles/41-2247.06-2290.1.mp3"/>
    <file absolutePath="C:\Users\mitin\OneDrive\Desktop\spravka\spravka_CopiedFiles\50-1098.76-1145.11.mp3" id="9" importerPrivateSettings="BitsPerSecond:0:192000;CompressionQuality:0:4;CompressionType:0:0;Encoder:0:1181239072;" mediaHandler="AmioMP3" relativePath="spravka_CopiedFiles/50-1098.76-1145.11.mp3"/>
    <file absolutePath="C:\Users\mitin\OneDrive\Desktop\spravka\spravka_CopiedFiles\53-1674.46-1719.23.mp3" id="10" importerPrivateSettings="BitsPerSecond:0:192000;CompressionQuality:0:4;CompressionType:0:0;Encoder:0:1181239072;" mediaHandler="AmioMP3" relativePath="spravka_CopiedFiles/53-1674.46-1719.23.mp3"/>
    <file absolutePath="C:\Users\mitin\OneDrive\Desktop\spravka\spravka_CopiedFiles\105-605.378-622.765.mp3" id="11" importerPrivateSettings="BitsPerSecond:0:192000;CompressionQuality:0:4;CompressionType:0:0;Encoder:0:1181239072;" mediaHandler="AmioMP3" relativePath="spravka_CopiedFiles/105-605.378-622.765.mp3"/>
    <file absolutePath="C:\Users\mitin\OneDrive\Desktop\spravka\spravka_CopiedFiles\87-2153.94-2199.65.mp3" id="12" importerPrivateSettings="BitsPerSecond:0:192000;CompressionQuality:0:4;CompressionType:0:0;Encoder:0:1181239072;" mediaHandler="AmioMP3" relativePath="spravka_CopiedFiles/87-2153.94-2199.65.mp3"/>
    <file absolutePath="C:\Users\mitin\OneDrive\Desktop\spravka\spravka_CopiedFiles\29-1972.78-2015.83.mp3" id="13" importerPrivateSettings="BitsPerSecond:0:192000;CompressionQuality:0:4;CompressionType:0:0;Encoder:0:1181239072;" mediaHandler="AmioMP3" relativePath="spravka_CopiedFiles/29-1972.78-2015.83.mp3"/>
    <file absolutePath="C:\Users\mitin\OneDrive\Desktop\spravka\spravka_CopiedFiles\86-2010.17-2043.62.mp3" id="14" importerPrivateSettings="BitsPerSecond:0:192000;CompressionQuality:0:4;CompressionType:0:0;Encoder:0:1181239072;" mediaHandler="AmioMP3" relativePath="spravka_CopiedFiles/86-2010.17-2043.62.mp3"/>
    <file absolutePath="C:\Users\mitin\OneDrive\Desktop\spravka\spravka_CopiedFiles\26-1438.41-1493.49.mp3" id="15" importerPrivateSettings="BitsPerSecond:0:192000;CompressionQuality:0:4;CompressionType:0:0;Encoder:0:1181239072;" mediaHandler="AmioMP3" relativePath="spravka_CopiedFiles/26-1438.41-1493.49.mp3"/>
    <file absolutePath="C:\Users\mitin\OneDrive\Desktop\spravka\spravka_CopiedFiles\48-2278.79-2310.96.mp3" id="16" importerPrivateSettings="BitsPerSecond:0:192000;CompressionQuality:0:4;CompressionType:0:0;Encoder:0:1181239072;" mediaHandler="AmioMP3" relativePath="spravka_CopiedFiles/48-2278.79-2310.96.mp3"/>
    <file absolutePath="C:\Users\mitin\OneDrive\Desktop\spravka\spravka_CopiedFiles\76-257.63-300.435.mp3" id="17" importerPrivateSettings="BitsPerSecond:0:192000;CompressionQuality:0:4;CompressionType:0:0;Encoder:0:1181239072;" mediaHandler="AmioMP3" relativePath="spravka_CopiedFiles/76-257.63-300.435.mp3"/>
    <file absolutePath="C:\Users\mitin\OneDrive\Desktop\spravka\spravka_CopiedFiles\26-1580.19-1636.91.mp3" id="18" importerPrivateSettings="BitsPerSecond:0:192000;CompressionQuality:0:4;CompressionType:0:0;Encoder:0:1181239072;" mediaHandler="AmioMP3" relativePath="spravka_CopiedFiles/26-1580.19-1636.91.mp3"/>
    <file absolutePath="C:\Users\mitin\OneDrive\Desktop\spravka\spravka_CopiedFiles\86-2582.54-2618.28.mp3" id="19" importerPrivateSettings="BitsPerSecond:0:192000;CompressionQuality:0:4;CompressionType:0:0;Encoder:0:1181239072;" mediaHandler="AmioMP3" relativePath="spravka_CopiedFiles/86-2582.54-2618.28.mp3"/>
    <file absolutePath="C:\Users\mitin\OneDrive\Desktop\spravka\spravka_CopiedFiles\84-2120.65-2139.43.mp3" id="20" importerPrivateSettings="BitsPerSecond:0:192000;CompressionQuality:0:4;CompressionType:0:0;Encoder:0:1181239072;" mediaHandler="AmioMP3" relativePath="spravka_CopiedFiles/84-2120.65-2139.43.mp3"/>
    <file absolutePath="C:\Users\mitin\OneDrive\Desktop\spravka\spravka_CopiedFiles\41-1862.66-1915.59.mp3" id="21" importerPrivateSettings="BitsPerSecond:0:192000;CompressionQuality:0:4;CompressionType:0:0;Encoder:0:1181239072;" mediaHandler="AmioMP3" relativePath="spravka_CopiedFiles/41-1862.66-1915.59.mp3"/>
    <file absolutePath="C:\Users\mitin\OneDrive\Desktop\spravka\spravka_CopiedFiles\94-1444.22-1504.41.mp3" id="22" importerPrivateSettings="BitsPerSecond:0:192000;CompressionQuality:0:4;CompressionType:0:0;Encoder:0:1181239072;" mediaHandler="AmioMP3" relativePath="spravka_CopiedFiles/94-1444.22-1504.41.mp3"/>
    <file absolutePath="C:\Users\mitin\OneDrive\Desktop\spravka\spravka_CopiedFiles\131-188.574-234.16.mp3" id="23" importerPrivateSettings="BitsPerSecond:0:192000;CompressionQuality:0:4;CompressionType:0:0;Encoder:0:1181239072;" mediaHandler="AmioMP3" relativePath="spravka_CopiedFiles/131-188.574-234.16.mp3"/>
    <file absolutePath="C:\Users\mitin\OneDrive\Desktop\spravka\spravka_CopiedFiles\77-960.775-995.553.mp3" id="24" importerPrivateSettings="BitsPerSecond:0:192000;CompressionQuality:0:4;CompressionType:0:0;Encoder:0:1181239072;" mediaHandler="AmioMP3" relativePath="spravka_CopiedFiles/77-960.775-995.553.mp3"/>
    <file absolutePath="C:\Users\mitin\OneDrive\Desktop\spravka\spravka_CopiedFiles\44-1688.57-1743.64.mp3" id="25" importerPrivateSettings="BitsPerSecond:0:192000;CompressionQuality:0:4;CompressionType:0:0;Encoder:0:1181239072;" mediaHandler="AmioMP3" relativePath="spravka_CopiedFiles/44-1688.57-1743.64.mp3"/>
    <file absolutePath="C:\Users\mitin\OneDrive\Desktop\spravka\spravka_CopiedFiles\131-930.567-965.503.mp3" id="26" importerPrivateSettings="BitsPerSecond:0:192000;CompressionQuality:0:4;CompressionType:0:0;Encoder:0:1181239072;" mediaHandler="AmioMP3" relativePath="spravka_CopiedFiles/131-930.567-965.503.mp3"/>
    <file absolutePath="C:\Users\mitin\OneDrive\Desktop\spravka\spravka_CopiedFiles\42-1043.36-1080.38.mp3" id="27" importerPrivateSettings="BitsPerSecond:0:192000;CompressionQuality:0:4;CompressionType:0:0;Encoder:0:1181239072;" mediaHandler="AmioMP3" relativePath="spravka_CopiedFiles/42-1043.36-1080.38.mp3"/>
    <file absolutePath="C:\Users\mitin\OneDrive\Desktop\spravka\spravka_CopiedFiles\60-1838.3-1856.81.mp3" id="28" importerPrivateSettings="BitsPerSecond:0:192000;CompressionQuality:0:4;CompressionType:0:0;Encoder:0:1181239072;" mediaHandler="AmioMP3" relativePath="spravka_CopiedFiles/60-1838.3-1856.81.mp3"/>
    <file absolutePath="C:\Users\mitin\OneDrive\Desktop\spravka\spravka_CopiedFiles\105-710.699-756.622.mp3" id="29" importerPrivateSettings="BitsPerSecond:0:192000;CompressionQuality:0:4;CompressionType:0:0;Encoder:0:1181239072;" mediaHandler="AmioMP3" relativePath="spravka_CopiedFiles/105-710.699-756.622.mp3"/>
    <file absolutePath="C:\Users\mitin\OneDrive\Desktop\spravka\spravka_CopiedFiles\107-995.803-1029.11.mp3" id="30" importerPrivateSettings="BitsPerSecond:0:192000;CompressionQuality:0:4;CompressionType:0:0;Encoder:0:1181239072;" mediaHandler="AmioMP3" relativePath="spravka_CopiedFiles/107-995.803-1029.11.mp3"/>
    <file absolutePath="C:\Users\mitin\OneDrive\Desktop\spravka\spravka_CopiedFiles\112-307.209-330.287.mp3" id="31" importerPrivateSettings="BitsPerSecond:0:192000;CompressionQuality:0:4;CompressionType:0:0;Encoder:0:1181239072;" mediaHandler="AmioMP3" relativePath="spravka_CopiedFiles/112-307.209-330.287.mp3"/>
    <file absolutePath="C:\Users\mitin\OneDrive\Desktop\spravka\spravka_CopiedFiles\58-1262.68-1325.19.mp3" id="32" importerPrivateSettings="BitsPerSecond:0:192000;CompressionQuality:0:4;CompressionType:0:0;Encoder:0:1181239072;" mediaHandler="AmioMP3" relativePath="spravka_CopiedFiles/58-1262.68-1325.19.mp3"/>
    <file absolutePath="C:\Users\mitin\OneDrive\Desktop\spravka\spravka_CopiedFiles\87-1864.5-1905.09.mp3" id="33" importerPrivateSettings="BitsPerSecond:0:192000;CompressionQuality:0:4;CompressionType:0:0;Encoder:0:1181239072;" mediaHandler="AmioMP3" relativePath="spravka_CopiedFiles/87-1864.5-1905.09.mp3"/>
    <file absolutePath="C:\Users\mitin\OneDrive\Desktop\spravka\spravka_CopiedFiles\121-1076.68-1116.13.mp3" id="34" importerPrivateSettings="BitsPerSecond:0:192000;CompressionQuality:0:4;CompressionType:0:0;Encoder:0:1181239072;" mediaHandler="AmioMP3" relativePath="spravka_CopiedFiles/121-1076.68-1116.13.mp3"/>
    <file absolutePath="C:\Users\mitin\OneDrive\Desktop\spravka\spravka_CopiedFiles\78-1269.09-1301.87.mp3" id="35" importerPrivateSettings="BitsPerSecond:0:192000;CompressionQuality:0:4;CompressionType:0:0;Encoder:0:1181239072;" mediaHandler="AmioMP3" relativePath="spravka_CopiedFiles/78-1269.09-1301.87.mp3"/>
    <file absolutePath="C:\Users\mitin\OneDrive\Desktop\spravka\spravka_CopiedFiles\76-966.654-1002.66.mp3" id="36" importerPrivateSettings="BitsPerSecond:0:192000;CompressionQuality:0:4;CompressionType:0:0;Encoder:0:1181239072;" mediaHandler="AmioMP3" relativePath="spravka_CopiedFiles/76-966.654-1002.66.mp3"/>
    <file absolutePath="C:\Users\mitin\OneDrive\Desktop\spravka\spravka_CopiedFiles\118-254.433-299.802.mp3" id="37" importerPrivateSettings="BitsPerSecond:0:192000;CompressionQuality:0:4;CompressionType:0:0;Encoder:0:1181239072;" mediaHandler="AmioMP3" relativePath="spravka_CopiedFiles/118-254.433-299.802.mp3"/>
    <file absolutePath="C:\Users\mitin\OneDrive\Desktop\spravka\spravka_CopiedFiles\111-354.123-384.21.mp3" id="38" importerPrivateSettings="BitsPerSecond:0:192000;CompressionQuality:0:4;CompressionType:0:0;Encoder:0:1181239072;" mediaHandler="AmioMP3" relativePath="spravka_CopiedFiles/111-354.123-384.21.mp3"/>
    <file absolutePath="C:\Users\mitin\OneDrive\Desktop\spravka\spravka_CopiedFiles\9-453.507-517.77.mp3" id="39" importerPrivateSettings="BitsPerSecond:0:192000;CompressionQuality:0:4;CompressionType:0:0;Encoder:0:1181239072;" mediaHandler="AmioMP3" relativePath="spravka_CopiedFiles/9-453.507-517.77.mp3"/>
    <file absolutePath="C:\Users\mitin\OneDrive\Desktop\spravka\spravka_CopiedFiles\107-2216.19-2255.85.mp3" id="40" importerPrivateSettings="BitsPerSecond:0:192000;CompressionQuality:0:4;CompressionType:0:0;Encoder:0:1181239072;" mediaHandler="AmioMP3" relativePath="spravka_CopiedFiles/107-2216.19-2255.85.mp3"/>
    <file absolutePath="C:\Users\mitin\OneDrive\Desktop\spravka\spravka_CopiedFiles\85-251.544-301.485.mp3" id="41" importerPrivateSettings="BitsPerSecond:0:192000;CompressionQuality:0:4;CompressionType:0:0;Encoder:0:1181239072;" mediaHandler="AmioMP3" relativePath="spravka_CopiedFiles/85-251.544-301.485.mp3"/>
    <file absolutePath="C:\Users\mitin\OneDrive\Desktop\spravka\spravka_CopiedFiles\82-804.292-851.224.mp3" id="42" importerPrivateSettings="BitsPerSecond:0:192000;CompressionQuality:0:4;CompressionType:0:0;Encoder:0:1181239072;" mediaHandler="AmioMP3" relativePath="spravka_CopiedFiles/82-804.292-851.224.mp3"/>
    <file absolutePath="C:\Users\mitin\OneDrive\Desktop\spravka\spravka_CopiedFiles\87-181.576-220.363.mp3" id="43" importerPrivateSettings="BitsPerSecond:0:192000;CompressionQuality:0:4;CompressionType:0:0;Encoder:0:1181239072;" mediaHandler="AmioMP3" relativePath="spravka_CopiedFiles/87-181.576-220.363.mp3"/>
    <file absolutePath="C:\Users\mitin\OneDrive\Desktop\spravka\spravka_CopiedFiles\73-1124.93-1162.67.mp3" id="44" importerPrivateSettings="BitsPerSecond:0:192000;CompressionQuality:0:4;CompressionType:0:0;Encoder:0:1181239072;" mediaHandler="AmioMP3" relativePath="spravka_CopiedFiles/73-1124.93-1162.67.mp3"/>
    <file absolutePath="C:\Users\mitin\OneDrive\Desktop\spravka\spravka_CopiedFiles\51-1178.3-1228.98.mp3" id="45" importerPrivateSettings="BitsPerSecond:0:192000;CompressionQuality:0:4;CompressionType:0:0;Encoder:0:1181239072;" mediaHandler="AmioMP3" relativePath="spravka_CopiedFiles/51-1178.3-1228.98.mp3"/>
    <file absolutePath="C:\Users\mitin\OneDrive\Desktop\spravka\spravka_CopiedFiles\108-796.463-832.735.mp3" id="46" importerPrivateSettings="BitsPerSecond:0:192000;CompressionQuality:0:4;CompressionType:0:0;Encoder:0:1181239072;" mediaHandler="AmioMP3" relativePath="spravka_CopiedFiles/108-796.463-832.735.mp3"/>
    <file absolutePath="C:\Users\mitin\OneDrive\Desktop\spravka\spravka_CopiedFiles\30-1947.79-1999.91.mp3" id="47" importerPrivateSettings="BitsPerSecond:0:192000;CompressionQuality:0:4;CompressionType:0:0;Encoder:0:1181239072;" mediaHandler="AmioMP3" relativePath="spravka_CopiedFiles/30-1947.79-1999.91.mp3"/>
    <file absolutePath="C:\Users\mitin\OneDrive\Desktop\spravka\spravka_CopiedFiles\51-2199.17-2246.55.mp3" id="48" importerPrivateSettings="BitsPerSecond:0:192000;CompressionQuality:0:4;CompressionType:0:0;Encoder:0:1181239072;" mediaHandler="AmioMP3" relativePath="spravka_CopiedFiles/51-2199.17-2246.55.mp3"/>
    <file absolutePath="C:\Users\mitin\OneDrive\Desktop\spravka\spravka_CopiedFiles\81-219.207-259.696.mp3" id="49" importerPrivateSettings="BitsPerSecond:0:192000;CompressionQuality:0:4;CompressionType:0:0;Encoder:0:1181239072;" mediaHandler="AmioMP3" relativePath="spravka_CopiedFiles/81-219.207-259.696.mp3"/>
    <file absolutePath="C:\Users\mitin\OneDrive\Desktop\spravka\spravka_CopiedFiles\112-2285.04-2326.28.mp3" id="50" importerPrivateSettings="BitsPerSecond:0:192000;CompressionQuality:0:4;CompressionType:0:0;Encoder:0:1181239072;" mediaHandler="AmioMP3" relativePath="spravka_CopiedFiles/112-2285.04-2326.28.mp3"/>
    <file absolutePath="C:\Users\mitin\OneDrive\Desktop\spravka\spravka_CopiedFiles\80-270.388-312.946.mp3" id="51" importerPrivateSettings="BitsPerSecond:0:192000;CompressionQuality:0:4;CompressionType:0:0;Encoder:0:1181239072;" mediaHandler="AmioMP3" relativePath="spravka_CopiedFiles/80-270.388-312.946.mp3"/>
    <file absolutePath="C:\Users\mitin\OneDrive\Desktop\spravka\spravka_CopiedFiles\47-1271.78-1324..mp3" id="52" importerPrivateSettings="BitsPerSecond:0:192000;CompressionQuality:0:4;CompressionType:0:0;Encoder:0:1181239072;" mediaHandler="AmioMP3" relativePath="spravka_CopiedFiles/47-1271.78-1324..mp3"/>
    <file absolutePath="C:\Users\mitin\OneDrive\Desktop\spravka\spravka_CopiedFiles\19-1235.69-1280.41.mp3" id="53" importerPrivateSettings="BitsPerSecond:0:192000;CompressionQuality:0:4;CompressionType:0:0;Encoder:0:1181239072;" mediaHandler="AmioMP3" relativePath="spravka_CopiedFiles/19-1235.69-1280.41.mp3"/>
    <file absolutePath="C:\Users\mitin\OneDrive\Desktop\spravka\spravka_CopiedFiles\26-750.26-811.93.mp3" id="54" importerPrivateSettings="BitsPerSecond:0:192000;CompressionQuality:0:4;CompressionType:0:0;Encoder:0:1181239072;" mediaHandler="AmioMP3" relativePath="spravka_CopiedFiles/26-750.26-811.93.mp3"/>
    <file absolutePath="C:\Users\mitin\OneDrive\Desktop\spravka\spravka_CopiedFiles\29-1237.6-1284.03.mp3" id="55" importerPrivateSettings="BitsPerSecond:0:192000;CompressionQuality:0:4;CompressionType:0:0;Encoder:0:1181239072;" mediaHandler="AmioMP3" relativePath="spravka_CopiedFiles/29-1237.6-1284.03.mp3"/>
    <file absolutePath="C:\Users\mitin\OneDrive\Desktop\spravka\spravka_CopiedFiles\26-528.254-625.714.mp3" id="56" importerPrivateSettings="BitsPerSecond:0:192000;CompressionQuality:0:4;CompressionType:0:0;Encoder:0:1181239072;" mediaHandler="AmioMP3" relativePath="spravka_CopiedFiles/26-528.254-625.714.mp3"/>
    <file absolutePath="C:\Users\mitin\OneDrive\Desktop\spravka\spravka_CopiedFiles\61-1516.14-1576.73.mp3" id="57" importerPrivateSettings="BitsPerSecond:0:192000;CompressionQuality:0:4;CompressionType:0:0;Encoder:0:1181239072;" mediaHandler="AmioMP3" relativePath="spravka_CopiedFiles/61-1516.14-1576.73.mp3"/>
    <file absolutePath="C:\Users\mitin\OneDrive\Desktop\spravka\spravka_CopiedFiles\112-1673.69-1722.38.mp3" id="58" importerPrivateSettings="BitsPerSecond:0:192000;CompressionQuality:0:4;CompressionType:0:0;Encoder:0:1181239072;" mediaHandler="AmioMP3" relativePath="spravka_CopiedFiles/112-1673.69-1722.38.mp3"/>
    <file absolutePath="C:\Users\mitin\OneDrive\Desktop\spravka\spravka_CopiedFiles\111-650.729-712.834.mp3" id="59" importerPrivateSettings="BitsPerSecond:0:192000;CompressionQuality:0:4;CompressionType:0:0;Encoder:0:1181239072;" mediaHandler="AmioMP3" relativePath="spravka_CopiedFiles/111-650.729-712.834.mp3"/>
    <file absolutePath="C:\Users\mitin\OneDrive\Desktop\spravka\spravka_CopiedFiles\5-1728.16-1787.63.mp3" id="60" importerPrivateSettings="BitsPerSecond:0:192000;CompressionQuality:0:4;CompressionType:0:0;Encoder:0:1181239072;" mediaHandler="AmioMP3" relativePath="spravka_CopiedFiles/5-1728.16-1787.63.mp3"/>
    <file absolutePath="C:\Users\mitin\OneDrive\Desktop\spravka\spravka_CopiedFiles\123-594.193-644.401.mp3" id="61" importerPrivateSettings="BitsPerSecond:0:192000;CompressionQuality:0:4;CompressionType:0:0;Encoder:0:1181239072;" mediaHandler="AmioMP3" relativePath="spravka_CopiedFiles/123-594.193-644.401.mp3"/>
    <file absolutePath="C:\Users\mitin\OneDrive\Desktop\spravka\spravka_CopiedFiles\96-2292.26-2344.49.mp3" id="62" importerPrivateSettings="BitsPerSecond:0:192000;CompressionQuality:0:4;CompressionType:0:0;Encoder:0:1181239072;" mediaHandler="AmioMP3" relativePath="spravka_CopiedFiles/96-2292.26-2344.49.mp3"/>
    <file absolutePath="C:\Users\mitin\OneDrive\Desktop\spravka\spravka_CopiedFiles\51-1736.41-1796.6.mp3" id="63" importerPrivateSettings="BitsPerSecond:0:192000;CompressionQuality:0:4;CompressionType:0:0;Encoder:0:1181239072;" mediaHandler="AmioMP3" relativePath="spravka_CopiedFiles/51-1736.41-1796.6.mp3"/>
    <file absolutePath="C:\Users\mitin\OneDrive\Desktop\spravka\spravka_CopiedFiles\132-1348.67-1401.68.mp3" id="64" importerPrivateSettings="BitsPerSecond:0:192000;CompressionQuality:0:4;CompressionType:0:0;Encoder:0:1181239072;" mediaHandler="AmioMP3" relativePath="spravka_CopiedFiles/132-1348.67-1401.68.mp3"/>
    <file absolutePath="C:\Users\mitin\OneDrive\Desktop\spravka\spravka_CopiedFiles\9-2032.29-2087.71.mp3" id="65" importerPrivateSettings="BitsPerSecond:0:192000;CompressionQuality:0:4;CompressionType:0:0;Encoder:0:1181239072;" mediaHandler="AmioMP3" relativePath="spravka_CopiedFiles/9-2032.29-2087.71.mp3"/>
    <file absolutePath="C:\Users\mitin\OneDrive\Desktop\spravka\spravka_CopiedFiles\123-1666.27-1723.02.mp3" id="66" importerPrivateSettings="BitsPerSecond:0:192000;CompressionQuality:0:4;CompressionType:0:0;Encoder:0:1181239072;" mediaHandler="AmioMP3" relativePath="spravka_CopiedFiles/123-1666.27-1723.02.mp3"/>
  </files>

  <audioDevice inputID="22222222-2222-2222-2222-22222222" outputID="11111111-1111-1111-1111-11111111">
    <outputPort id="1" name="Default Output"/>
    <outputPort id="2" name="[01M] System Default - Speakers (Cirrus Logic Superior High Definition Audio) 1"/>
    <outputPort id="3" name="[02M] System Default - Speakers (Cirrus Logic Superior High Definition Audio) 2"/>
    <outputPort id="4" name="Default Stereo Output"/>
    <outputPort id="5" name="[01S] System Default - Speakers (Cirrus Logic Superior High Definition Audio) 1"/>
    <outputPort id="6" name="Default Surround Output"/>
  </audioDevice>

</sesx>
